OpenSans-MediumItalic.ufo
<glyph name="plus" format="2">
  <advance width="1171"/>
  <unicode hex="002B"/>
  <outline>
    <contour>
      <point x="698" y="795" type="line"/>
      <point x="698" y="1219" type="line"/>
      <point x="551" y="1219" type="line"/>
      <point x="551" y="795" type="line"/>
      <point x="143" y="795" type="line"/>
      <point x="143" y="649" type="line"/>
      <point x="551" y="649" type="line"/>
      <point x="551" y="227" type="line"/>
      <point x="698" y="227" type="line"/>
      <point x="698" y="649" type="line"/>
      <point x="1106" y="649" type="line"/>
      <point x="1106" y="795" type="line"/>
    </contour>
  </outline>
</glyph>
<glyph name="two" format="2">
  <advance width="1128"/>
  <unicode hex="0032"/>
  <outline>
    <contour>
      <point x="6" y="0" type="line"/>
      <point x="911" y="0" type="line"/>
      <point x="942" y="164" type="line"/>
      <point x="274" y="164" type="line"/>
      <point x="274" y="172" type="line"/>
      <point x="618" y="471" type="line" smooth="yes"/>
      <point x="956" y="766"/>
      <point x="1081" y="913"/>
      <point x="1081" y="1149" type="curve" smooth="yes"/>
      <point x="1081" y="1346"/>
      <point x="944" y="1483"/>
      <point x="696" y="1483" type="curve" smooth="yes"/>
      <point x="520" y="1483"/>
      <point x="389" y="1415"/>
      <point x="276" y="1325" type="curve"/>
      <point x="362" y="1202" type="line"/>
      <point x="459" y="1274"/>
      <point x="555" y="1329"/>
      <point x="676" y="1329" type="curve" smooth="yes"/>
      <point x="815" y="1329"/>
      <point x="893" y="1243"/>
      <point x="893" y="1120" type="curve" smooth="yes"/>
      <point x="893" y="928"/>
      <point x="774" y="817"/>
      <point x="504" y="573" type="curve" smooth="yes"/>
      <point x="39" y="154" type="line"/>
    </contour>
  </outline>
</glyph>
<glyph name="seven" format="2">
  <advance width="1128"/>
  <unicode hex="0037"/>
  <outline>
    <contour>
      <point x="166" y="0" type="line"/>
      <point x="360" y="0" type="line"/>
      <point x="1124" y="1319" type="line"/>
      <point x="1151" y="1462" type="line"/>
      <point x="252" y="1462" type="line"/>
      <point x="219" y="1303" type="line"/>
      <point x="930" y="1303" type="line"/>
    </contour>
  </outline>
</glyph>
<glyph name="A" format="2">
  <advance width="1151"/>
  <unicode hex="0041"/>
  <anchor x="459" y="0" name="bottom"/>
  <anchor x="770" y="1462" name="top"/>
  <anchor x="1305" y="1462" name="topright"/>
  <outline>
    <contour>
      <point x="-117" y="0" type="line"/>
      <point x="84" y="0" type="line"/>
      <point x="322" y="455" type="line"/>
      <point x="815" y="455" type="line"/>
      <point x="870" y="0" type="line"/>
      <point x="1051" y="0" type="line"/>
      <point x="870" y="1462" type="line"/>
      <point x="678" y="1462" type="line"/>
    </contour>
    <contour>
      <point x="410" y="618" type="line"/>
      <point x="567" y="918" type="line" smooth="yes"/>
      <point x="631" y="1038"/>
      <point x="688" y="1159"/>
      <point x="733" y="1264" type="curve"/>
      <point x="739" y="1264" type="line"/>
      <point x="741" y="1167"/>
      <point x="754" y="1030"/>
      <point x="764" y="926" type="curve" smooth="yes"/>
      <point x="797" y="618" type="line"/>
    </contour>
  </outline>
</glyph>
<glyph name="E" format="2">
  <advance width="1053"/>
  <unicode hex="0045"/>
  <anchor x="483" y="0" name="bottom"/>
  <anchor x="758" y="1462" name="top"/>
  <anchor x="1206" y="1462" name="topright"/>
  <outline>
    <contour>
      <point x="84" y="0" type="line"/>
      <point x="825" y="0" type="line"/>
      <point x="860" y="162" type="line"/>
      <point x="299" y="162" type="line"/>
      <point x="412" y="684" type="line"/>
      <point x="936" y="684" type="line"/>
      <point x="967" y="844" type="line"/>
      <point x="444" y="844" type="line"/>
      <point x="541" y="1300" type="line"/>
      <point x="1100" y="1300" type="line"/>
      <point x="1135" y="1462" type="line"/>
      <point x="393" y="1462" type="line"/>
    </contour>
  </outline>
</glyph>
<glyph name="H" format="2">
  <advance width="1393"/>
  <unicode hex="0048"/>
  <anchor x="606" y="0" name="bottom"/>
  <anchor x="774" y="731" name="center"/>
  <anchor x="887" y="1462" name="top"/>
  <anchor x="1546" y="1462" name="topright"/>
  <outline>
    <contour>
      <point x="86" y="0" type="line"/>
      <point x="268" y="0" type="line"/>
      <point x="412" y="682" type="line"/>
      <point x="1055" y="682" type="line"/>
      <point x="911" y="0" type="line"/>
      <point x="1092" y="0" type="line"/>
      <point x="1401" y="1462" type="line"/>
      <point x="1221" y="1462" type="line"/>
      <point x="1090" y="844" type="line"/>
      <point x="446" y="844" type="line"/>
      <point x="578" y="1462" type="line"/>
      <point x="395" y="1462" type="line"/>
    </contour>
  </outline>
</glyph>
<glyph name="M" format="2">
  <advance width="1722"/>
  <unicode hex="004D"/>
  <anchor x="739" y="0" name="bottom"/>
  <anchor x="1028" y="1462" name="top"/>
  <anchor x="1876" y="1462" name="topright"/>
  <outline>
    <contour>
      <point x="82" y="0" type="line"/>
      <point x="254" y="0" type="line"/>
      <point x="440" y="879" type="line" smooth="yes"/>
      <point x="469" y="1020"/>
      <point x="498" y="1198"/>
      <point x="506" y="1282" type="curve"/>
      <point x="514" y="1282" type="line"/>
      <point x="670" y="0" type="line"/>
      <point x="815" y="0" type="line"/>
      <point x="1520" y="1284" type="line"/>
      <point x="1524" y="1284" type="line"/>
      <point x="1499" y="1196"/>
      <point x="1464" y="1047"/>
      <point x="1425" y="868" type="curve" smooth="yes"/>
      <point x="1241" y="0" type="line"/>
      <point x="1425" y="0" type="line"/>
      <point x="1729" y="1462" type="line"/>
      <point x="1448" y="1462" type="line"/>
      <point x="799" y="268" type="line"/>
      <point x="791" y="268" type="line"/>
      <point x="649" y="1462" type="line"/>
      <point x="391" y="1462" type="line"/>
    </contour>
  </outline>
</glyph>
<glyph name="O" format="2">
  <advance width="1477"/>
  <unicode hex="004F"/>
  <anchor x="664" y="0" name="bottom"/>
  <anchor x="817" y="731" name="center"/>
  <anchor x="934" y="1462" name="top"/>
  <anchor x="1630" y="1462" name="topright"/>
  <outline>
    <contour>
      <point x="690" y="-20" type="curve" smooth="yes"/>
      <point x="1163" y="-20"/>
      <point x="1413" y="403"/>
      <point x="1413" y="909" type="curve" smooth="yes"/>
      <point x="1413" y="1266"/>
      <point x="1219" y="1485"/>
      <point x="887" y="1485" type="curve" smooth="yes"/>
      <point x="426" y="1485"/>
      <point x="147" y="1051"/>
      <point x="147" y="547" type="curve" smooth="yes"/>
      <point x="147" y="197"/>
      <point x="340" y="-20"/>
    </contour>
    <contour>
      <point x="696" y="141" type="curve" smooth="yes"/>
      <point x="475" y="141"/>
      <point x="342" y="293"/>
      <point x="342" y="551" type="curve" smooth="yes"/>
      <point x="342" y="977"/>
      <point x="547" y="1323"/>
      <point x="874" y="1323" type="curve" smooth="yes"/>
      <point x="1087" y="1323"/>
      <point x="1219" y="1174"/>
      <point x="1219" y="913" type="curve" smooth="yes"/>
      <point x="1219" y="500"/>
      <point x="1022" y="141"/>
    </contour>
  </outline>
</glyph>
<glyph name="T" format="2">
  <advance width="1026"/>
  <unicode hex="0054"/>
  <anchor x="397" y="0" name="bottom"/>
  <anchor x="592" y="731" name="center"/>
  <anchor x="709" y="1462" name="top"/>
  <anchor x="1180" y="1462" name="topright"/>
  <outline>
    <contour>
      <point x="311" y="0" type="line"/>
      <point x="496" y="0" type="line"/>
      <point x="772" y="1300" type="line"/>
      <point x="1174" y="1300" type="line"/>
      <point x="1206" y="1462" type="line"/>
      <point x="219" y="1462" type="line"/>
      <point x="184" y="1300" type="line"/>
      <point x="586" y="1300" type="line"/>
    </contour>
  </outline>
</glyph>
<glyph name="Z" format="2">
  <advance width="1087"/>
  <unicode hex="005A"/>
  <anchor x="440" y="0" name="bottom"/>
  <anchor x="739" y="1462" name="top"/>
  <anchor x="1241" y="1462" name="topright"/>
  <outline>
    <contour>
      <point x="-20" y="0" type="line"/>
      <point x="889" y="0" type="line"/>
      <point x="922" y="164" type="line"/>
      <point x="236" y="164" type="line"/>
      <point x="1147" y="1317" type="line"/>
      <point x="1174" y="1462" type="line"/>
      <point x="309" y="1462" type="line"/>
      <point x="274" y="1298" type="line"/>
      <point x="920" y="1298" type="line"/>
      <point x="8" y="143" type="line"/>
    </contour>
  </outline>
</glyph>
<glyph name="asciicircum" format="2">
  <advance width="1171"/>
  <unicode hex="005E"/>
  <outline>
    <contour>
      <point x="78" y="547" type="line"/>
      <point x="238" y="547" type="line"/>
      <point x="565" y="1282" type="line"/>
      <point x="934" y="547" type="line"/>
      <point x="1094" y="547" type="line"/>
      <point x="614" y="1473" type="line"/>
      <point x="512" y="1473" type="line"/>
    </contour>
  </outline>
</glyph>
<glyph name="h" format="2">
  <advance width="1186"/>
  <unicode hex="0068"/>
  <anchor x="485" y="0" name="bottom"/>
  <anchor x="711" y="549" name="center"/>
  <anchor x="475" y="1556" name="top"/>
  <anchor x="1278" y="1556" name="topright"/>
  <outline>
    <contour>
      <point x="57" y="0" type="line"/>
      <point x="238" y="0" type="line"/>
      <point x="338" y="473" type="line" smooth="yes"/>
      <point x="414" y="834"/>
      <point x="604" y="967"/>
      <point x="745" y="967" type="curve" smooth="yes"/>
      <point x="846" y="967"/>
      <point x="889" y="913"/>
      <point x="889" y="823" type="curve" smooth="yes"/>
      <point x="889" y="791"/>
      <point x="883" y="750"/>
      <point x="870" y="688" type="curve" smooth="yes"/>
      <point x="725" y="0" type="line"/>
      <point x="905" y="0" type="line"/>
      <point x="1049" y="668" type="line"/>
      <point x="1061" y="729"/>
      <point x="1071" y="782"/>
      <point x="1071" y="836" type="curve" smooth="yes"/>
      <point x="1071" y="1022"/>
      <point x="965" y="1116"/>
      <point x="795" y="1116" type="curve" smooth="yes"/>
      <point x="618" y="1116"/>
      <point x="502" y="995"/>
      <point x="424" y="893" type="curve"/>
      <point x="414" y="893" type="line"/>
      <point x="436" y="979"/>
      <point x="463" y="1071"/>
      <point x="479" y="1153" type="curve" smooth="yes"/>
      <point x="567" y="1556" type="line"/>
      <point x="387" y="1556" type="line"/>
    </contour>
  </outline>
</glyph>
<glyph name="t" format="2">
  <advance width="680"/>
  <unicode hex="0074"/>
  <anchor x="319" y="0" name="bottom"/>
  <anchor x="334" y="549" name="center"/>
  <anchor x="510" y="1348" name="top"/>
  <anchor x="885" y="1348" name="topright"/>
  <outline>
    <contour>
      <point x="379" y="-20" type="curve"/>
      <point x="438" y="-20"/>
      <point x="518" y="0"/>
      <point x="551" y="16" type="curve"/>
      <point x="551" y="154" type="line"/>
      <point x="498" y="137"/>
      <point x="455" y="127"/>
      <point x="406" y="127" type="curve"/>
      <point x="328" y="127"/>
      <point x="297" y="176"/>
      <point x="297" y="240" type="curve"/>
      <point x="297" y="279"/>
      <point x="307" y="326"/>
      <point x="315" y="362" type="curve" smooth="yes"/>
      <point x="442" y="961" type="line"/>
      <point x="717" y="961" type="line"/>
      <point x="745" y="1098" type="line"/>
      <point x="469" y="1098" type="line"/>
      <point x="524" y="1348" type="line"/>
      <point x="418" y="1348" type="line"/>
      <point x="291" y="1120" type="line"/>
      <point x="106" y="1042" type="line"/>
      <point x="90" y="961" type="line"/>
      <point x="260" y="961" type="line"/>
      <point x="135" y="365" type="line" smooth="yes"/>
      <point x="123" y="311"/>
      <point x="117" y="260"/>
      <point x="117" y="219" type="curve"/>
      <point x="117" y="41"/>
      <point x="231" y="-20"/>
    </contour>
  </outline>
</glyph>
<glyph name="braceright" format="2">
  <advance width="717"/>
  <unicode hex="007D"/>
  <outline>
    <contour>
      <point x="-76" y="-324" type="line"/>
      <point x="-61" y="-324" type="line" smooth="yes"/>
      <point x="166" y="-324"/>
      <point x="274" y="-264"/>
      <point x="324" y="-33" type="curve" smooth="yes"/>
      <point x="391" y="289" type="line" smooth="yes"/>
      <point x="420" y="428"/>
      <point x="516" y="479"/>
      <point x="674" y="479" type="curve"/>
      <point x="707" y="629" type="line"/>
      <point x="571" y="629"/>
      <point x="498" y="676"/>
      <point x="498" y="772" type="curve" smooth="yes"/>
      <point x="498" y="805"/>
      <point x="506" y="838"/>
      <point x="514" y="881" type="curve" smooth="yes"/>
      <point x="563" y="1098" type="line" smooth="yes"/>
      <point x="575" y="1149"/>
      <point x="584" y="1194"/>
      <point x="584" y="1237" type="curve" smooth="yes"/>
      <point x="584" y="1393"/>
      <point x="479" y="1462"/>
      <point x="283" y="1462" type="curve" smooth="yes"/>
      <point x="270" y="1462" type="line"/>
      <point x="240" y="1313" type="line"/>
      <point x="350" y="1313"/>
      <point x="418" y="1292"/>
      <point x="418" y="1212" type="curve" smooth="yes"/>
      <point x="418" y="1186"/>
      <point x="412" y="1153"/>
      <point x="403" y="1118" type="curve" smooth="yes"/>
      <point x="356" y="907" type="line" smooth="yes"/>
      <point x="346" y="864"/>
      <point x="338" y="815"/>
      <point x="338" y="778" type="curve" smooth="yes"/>
      <point x="338" y="672"/>
      <point x="383" y="596"/>
      <point x="489" y="567" type="curve"/>
      <point x="489" y="561" type="line"/>
      <point x="330" y="535"/>
      <point x="260" y="442"/>
      <point x="229" y="303" type="curve" smooth="yes"/>
      <point x="158" y="-16" type="line" smooth="yes"/>
      <point x="129" y="-145"/>
      <point x="55" y="-174"/>
      <point x="-76" y="-174" type="curve"/>
    </contour>
  </outline>
</glyph>
<glyph name="dieresis" format="2">
  <advance width="1135"/>
  <unicode hex="00A8"/>
  <outline>
    <contour>
      <point x="905" y="1292" type="curve"/>
      <point x="956" y="1292"/>
      <point x="1010" y="1337"/>
      <point x="1010" y="1413" type="curve"/>
      <point x="1010" y="1462"/>
      <point x="983" y="1495"/>
      <point x="928" y="1495" type="curve"/>
      <point x="858" y="1495"/>
      <point x="819" y="1440"/>
      <point x="819" y="1378" type="curve"/>
      <point x="819" y="1323"/>
      <point x="856" y="1292"/>
    </contour>
    <contour>
      <point x="539" y="1292" type="curve"/>
      <point x="590" y="1292"/>
      <point x="641" y="1337"/>
      <point x="641" y="1413" type="curve"/>
      <point x="641" y="1462"/>
      <point x="616" y="1495"/>
      <point x="559" y="1495" type="curve"/>
      <point x="489" y="1495"/>
      <point x="451" y="1440"/>
      <point x="451" y="1378" type="curve"/>
      <point x="451" y="1323"/>
      <point x="487" y="1292"/>
    </contour>
  </outline>
</glyph>
<glyph name="threesuperior" format="2">
  <advance width="723"/>
  <unicode hex="00B3"/>
  <outline>
    <contour>
      <point x="401" y="838" type="curve" smooth="yes"/>
      <point x="639" y="838"/>
      <point x="750" y="958"/>
      <point x="750" y="1116" type="curve" smooth="yes"/>
      <point x="750" y="1208"/>
      <point x="696" y="1280"/>
      <point x="602" y="1303" type="curve"/>
      <point x="602" y="1311" type="line"/>
      <point x="733" y="1346"/>
      <point x="811" y="1419"/>
      <point x="811" y="1542" type="curve" smooth="yes"/>
      <point x="811" y="1661"/>
      <point x="729" y="1749"/>
      <point x="565" y="1749" type="curve" smooth="yes"/>
      <point x="451" y="1749"/>
      <point x="356" y="1710"/>
      <point x="293" y="1661" type="curve"/>
      <point x="350" y="1563" type="line"/>
      <point x="408" y="1604"/>
      <point x="467" y="1628"/>
      <point x="539" y="1630" type="curve" smooth="yes"/>
      <point x="623" y="1632"/>
      <point x="670" y="1591"/>
      <point x="670" y="1513" type="curve" smooth="yes"/>
      <point x="670" y="1419"/>
      <point x="586" y="1364"/>
      <point x="461" y="1364" type="curve" smooth="yes"/>
      <point x="367" y="1364" type="line"/>
      <point x="342" y="1251" type="line"/>
      <point x="436" y="1251" type="line" smooth="yes"/>
      <point x="549" y="1251"/>
      <point x="608" y="1206"/>
      <point x="608" y="1120" type="curve" smooth="yes"/>
      <point x="608" y="1018"/>
      <point x="543" y="954"/>
      <point x="406" y="954" type="curve" smooth="yes"/>
      <point x="326" y="954"/>
      <point x="238" y="985"/>
      <point x="166" y="1026" type="curve"/>
      <point x="166" y="893" type="line"/>
      <point x="229" y="860"/>
      <point x="311" y="838"/>
    </contour>
  </outline>
</glyph>
<glyph name="micro" format="2">
  <advance width="1198"/>
  <unicode hex="00B5"/>
  <outline>
    <contour>
      <point x="-45" y="-492" type="line"/>
      <point x="131" y="-492" type="line"/>
      <point x="197" y="-176" type="line" smooth="yes"/>
      <point x="207" y="-121"/>
      <point x="229" y="14"/>
      <point x="238" y="74" type="curve"/>
      <point x="246" y="74" type="line"/>
      <point x="281" y="8"/>
      <point x="336" y="-20"/>
      <point x="408" y="-20" type="curve" smooth="yes"/>
      <point x="578" y="-20"/>
      <point x="690" y="98"/>
      <point x="770" y="203" type="curve"/>
      <point x="780" y="203" type="line"/>
      <point x="758" y="0" type="line"/>
      <point x="905" y="0" type="line"/>
      <point x="1139" y="1098" type="line"/>
      <point x="963" y="1098" type="line"/>
      <point x="858" y="621" type="line" smooth="yes"/>
      <point x="778" y="262"/>
      <point x="588" y="129"/>
      <point x="451" y="129" type="curve" smooth="yes"/>
      <point x="350" y="129"/>
      <point x="307" y="182"/>
      <point x="307" y="274" type="curve" smooth="yes"/>
      <point x="307" y="305"/>
      <point x="313" y="348"/>
      <point x="326" y="408" type="curve" smooth="yes"/>
      <point x="471" y="1098" type="line"/>
      <point x="291" y="1098" type="line"/>
    </contour>
  </outline>
</glyph>
<glyph name="paragraph" format="2">
  <advance width="1341"/>
  <unicode hex="00B6"/>
  <outline>
    <contour>
      <point x="760" y="-260" type="line"/>
      <point x="879" y="-260" type="line"/>
      <point x="879" y="1397" type="line"/>
      <point x="1087" y="1397" type="line"/>
      <point x="1087" y="-260" type="line"/>
      <point x="1206" y="-260" type="line"/>
      <point x="1206" y="1556" type="line"/>
      <point x="645" y="1556" type="line" smooth="yes"/>
      <point x="377" y="1556"/>
      <point x="195" y="1434"/>
      <point x="195" y="1042" type="curve"/>
      <point x="195" y="668"/>
      <point x="360" y="541"/>
      <point x="614" y="541" type="curve"/>
      <point x="672" y="541"/>
      <point x="719" y="547"/>
      <point x="760" y="559" type="curve"/>
    </contour>
  </outline>
</glyph>
<glyph name="cedilla" format="2">
  <advance width="420"/>
  <unicode hex="00B8"/>
  <outline>
    <contour>
      <point x="-82" y="-492" type="curve"/>
      <point x="111" y="-492"/>
      <point x="215" y="-397"/>
      <point x="215" y="-274" type="curve" smooth="yes"/>
      <point x="215" y="-174"/>
      <point x="147" y="-135"/>
      <point x="84" y="-117" type="curve"/>
      <point x="143" y="0" type="line"/>
      <point x="29" y="0" type="line"/>
      <point x="-70" y="-180" type="line"/>
      <point x="12" y="-190"/>
      <point x="68" y="-215"/>
      <point x="68" y="-274" type="curve" smooth="yes"/>
      <point x="68" y="-346"/>
      <point x="14" y="-383"/>
      <point x="-100" y="-383" type="curve" smooth="yes"/>
      <point x="-119" y="-383"/>
      <point x="-147" y="-381"/>
      <point x="-174" y="-375" type="curve"/>
      <point x="-174" y="-481" type="line"/>
      <point x="-152" y="-487"/>
      <point x="-117" y="-492"/>
    </contour>
  </outline>
</glyph>
<glyph name="guillemotright" format="2">
  <advance width="977"/>
  <unicode hex="00BB"/>
  <outline>
    <contour>
      <point x="498" y="111" type="line"/>
      <point x="891" y="489" type="line"/>
      <point x="891" y="518" type="line"/>
      <point x="662" y="965" type="line"/>
      <point x="537" y="911" type="line"/>
      <point x="705" y="524" type="line"/>
      <point x="410" y="199" type="line"/>
    </contour>
    <contour>
      <point x="117" y="123" type="line"/>
      <point x="487" y="528" type="line"/>
      <point x="487" y="559" type="line"/>
      <point x="272" y="965" type="line"/>
      <point x="147" y="911" type="line"/>
      <point x="303" y="557" type="line"/>
      <point x="20" y="199" type="line"/>
    </contour>
  </outline>
</glyph>
<glyph name="germandbls" format="2">
  <advance width="1196"/>
  <unicode hex="00DF"/>
  <anchor x="377" y="-492" name="bottom"/>
  <anchor x="815" y="1567" name="top"/>
  <outline>
    <contour>
      <point x="-131" y="-492" type="curve" smooth="yes"/>
      <point x="70" y="-492"/>
      <point x="162" y="-354"/>
      <point x="211" y="-127" type="curve" smooth="yes"/>
      <point x="483" y="1167" type="line"/>
      <point x="518" y="1333"/>
      <point x="602" y="1419"/>
      <point x="760" y="1419" type="curve" smooth="yes"/>
      <point x="874" y="1419"/>
      <point x="952" y="1370"/>
      <point x="952" y="1282" type="curve" smooth="yes"/>
      <point x="952" y="1186"/>
      <point x="868" y="1124"/>
      <point x="778" y="1063" type="curve" smooth="yes"/>
      <point x="682" y="995"/>
      <point x="584" y="924"/>
      <point x="584" y="784" type="curve" smooth="yes"/>
      <point x="584" y="700"/>
      <point x="629" y="633"/>
      <point x="743" y="545" type="curve" smooth="yes"/>
      <point x="838" y="467"/>
      <point x="877" y="424"/>
      <point x="877" y="334" type="curve" smooth="yes"/>
      <point x="877" y="219"/>
      <point x="795" y="127"/>
      <point x="631" y="127" type="curve" smooth="yes"/>
      <point x="537" y="127"/>
      <point x="440" y="172"/>
      <point x="383" y="217" type="curve"/>
      <point x="383" y="51" type="line"/>
      <point x="440" y="8"/>
      <point x="530" y="-20"/>
      <point x="653" y="-20" type="curve" smooth="yes"/>
      <point x="868" y="-20"/>
      <point x="1061" y="92"/>
      <point x="1061" y="354" type="curve" smooth="yes"/>
      <point x="1061" y="481"/>
      <point x="993" y="559"/>
      <point x="889" y="647" type="curve" smooth="yes"/>
      <point x="848" y="680"/>
      <point x="760" y="733"/>
      <point x="760" y="795" type="curve" smooth="yes"/>
      <point x="760" y="868"/>
      <point x="844" y="924"/>
      <point x="930" y="987" type="curve" smooth="yes"/>
      <point x="1030" y="1063"/>
      <point x="1128" y="1151"/>
      <point x="1128" y="1294" type="curve" smooth="yes"/>
      <point x="1128" y="1470"/>
      <point x="989" y="1567"/>
      <point x="776" y="1567" type="curve" smooth="yes"/>
      <point x="512" y="1567"/>
      <point x="362" y="1436"/>
      <point x="305" y="1167" type="curve" smooth="yes"/>
      <point x="27" y="-139" type="line"/>
      <point x="-4" y="-283"/>
      <point x="-59" y="-340"/>
      <point x="-145" y="-340" type="curve" smooth="yes"/>
      <point x="-188" y="-340"/>
      <point x="-223" y="-332"/>
      <point x="-256" y="-317" type="curve"/>
      <point x="-256" y="-471" type="line"/>
      <point x="-225" y="-483"/>
      <point x="-180" y="-492"/>
    </contour>
  </outline>
</glyph>
<glyph name="lslash" format="2">
  <advance width="528"/>
  <unicode hex="0142"/>
  <anchor x="147" y="0" name="bottom"/>
  <anchor x="479" y="1556" name="top"/>
  <outline>
    <contour>
      <point x="55" y="0" type="line"/>
      <point x="236" y="0" type="line"/>
      <point x="387" y="707" type="line"/>
      <point x="600" y="834" type="line"/>
      <point x="543" y="946" type="line"/>
      <point x="424" y="877" type="line"/>
      <point x="567" y="1556" type="line"/>
      <point x="387" y="1556" type="line"/>
      <point x="215" y="756" type="line"/>
      <point x="6" y="629" type="line"/>
      <point x="68" y="516" type="line"/>
      <point x="180" y="584" type="line"/>
    </contour>
  </outline>
</glyph>
<glyph name="eng" format="2">
  <advance width="1186"/>
  <unicode hex="014B"/>
  <anchor x="373" y="-492" name="bottom"/>
  <anchor x="711" y="1098" name="top"/>
  <anchor x="1262" y="1098" name="topright"/>
  <outline>
    <contour>
      <point x="537" y="-492" type="curve"/>
      <point x="741" y="-492"/>
      <point x="829" y="-362"/>
      <point x="872" y="-160" type="curve" smooth="yes"/>
      <point x="1049" y="668" type="line"/>
      <point x="1061" y="729"/>
      <point x="1071" y="784"/>
      <point x="1071" y="848" type="curve" smooth="yes"/>
      <point x="1071" y="1024"/>
      <point x="963" y="1118"/>
      <point x="795" y="1118" type="curve" smooth="yes"/>
      <point x="618" y="1118"/>
      <point x="504" y="995"/>
      <point x="426" y="895" type="curve"/>
      <point x="416" y="895" type="line"/>
      <point x="438" y="1098" type="line"/>
      <point x="291" y="1098" type="line"/>
      <point x="57" y="0" type="line"/>
      <point x="238" y="0" type="line"/>
      <point x="338" y="473" type="line" smooth="yes"/>
      <point x="414" y="834"/>
      <point x="606" y="967"/>
      <point x="745" y="967" type="curve" smooth="yes"/>
      <point x="846" y="967"/>
      <point x="891" y="913"/>
      <point x="891" y="829" type="curve" smooth="yes"/>
      <point x="891" y="791"/>
      <point x="883" y="750"/>
      <point x="870" y="688" type="curve" smooth="yes"/>
      <point x="694" y="-139" type="line" smooth="yes"/>
      <point x="666" y="-274"/>
      <point x="610" y="-342"/>
      <point x="528" y="-342" type="curve" smooth="yes"/>
      <point x="483" y="-342"/>
      <point x="446" y="-332"/>
      <point x="410" y="-319" type="curve"/>
      <point x="410" y="-471" type="line"/>
      <point x="444" y="-483"/>
      <point x="487" y="-492"/>
    </contour>
  </outline>
</glyph>
<glyph name="florin" format="2">
  <advance width="1128"/>
  <unicode hex="0192"/>
  <anchor x="-104" y="-492" name="bottom"/>
  <anchor x="315" y="1483" name="top"/>
  <outline>
    <contour>
      <point x="129" y="-492" type="curve" smooth="yes"/>
      <point x="328" y="-492"/>
      <point x="420" y="-356"/>
      <point x="469" y="-129" type="curve" smooth="yes"/>
      <point x="672" y="836" type="line"/>
      <point x="909" y="836" type="line"/>
      <point x="936" y="971" type="line"/>
      <point x="700" y="971" type="line"/>
      <point x="731" y="1118" type="line" smooth="yes"/>
      <point x="766" y="1288"/>
      <point x="825" y="1335"/>
      <point x="934" y="1335" type="curve" smooth="yes"/>
      <point x="985" y="1335"/>
      <point x="1030" y="1321"/>
      <point x="1069" y="1307" type="curve"/>
      <point x="1116" y="1444" type="line"/>
      <point x="1073" y="1464"/>
      <point x="993" y="1483"/>
      <point x="924" y="1483" type="curve" smooth="yes"/>
      <point x="721" y="1483"/>
      <point x="602" y="1395"/>
      <point x="549" y="1118" type="curve" smooth="yes"/>
      <point x="522" y="977" type="line"/>
      <point x="317" y="909" type="line"/>
      <point x="305" y="836" type="line"/>
      <point x="494" y="836" type="line"/>
      <point x="293" y="-109" type="line" smooth="yes"/>
      <point x="262" y="-266"/>
      <point x="197" y="-342"/>
      <point x="115" y="-342" type="curve" smooth="yes"/>
      <point x="70" y="-342"/>
      <point x="35" y="-332"/>
      <point x="0" y="-319" type="curve"/>
      <point x="0" y="-471" type="line"/>
      <point x="33" y="-483"/>
      <point x="78" y="-492"/>
    </contour>
  </outline>
</glyph>
<glyph name="uni0198" format="2">
  <advance width="1171"/>
  <unicode hex="0198"/>
  <anchor x="459" y="0" name="bottom"/>
  <anchor x="770" y="1462" name="top"/>
  <outline>
    <contour>
      <point x="84" y="0" type="line"/>
      <point x="266" y="0" type="line"/>
      <point x="389" y="584" type="line"/>
      <point x="559" y="709" type="line"/>
      <point x="844" y="0" type="line"/>
      <point x="1044" y="0" type="line"/>
      <point x="698" y="819" type="line"/>
      <point x="1094" y="1221" type="line" smooth="yes"/>
      <point x="1174" y="1303"/>
      <point x="1210" y="1321"/>
      <point x="1257" y="1321" type="curve" smooth="yes"/>
      <point x="1284" y="1321"/>
      <point x="1305" y="1317"/>
      <point x="1335" y="1311" type="curve"/>
      <point x="1335" y="1456" type="line"/>
      <point x="1315" y="1464"/>
      <point x="1278" y="1475"/>
      <point x="1239" y="1475" type="curve" smooth="yes"/>
      <point x="1165" y="1475"/>
      <point x="1100" y="1450"/>
      <point x="993" y="1339" type="curve" smooth="yes"/>
      <point x="551" y="887" type="line"/>
      <point x="424" y="752" type="line"/>
      <point x="575" y="1462" type="line"/>
      <point x="393" y="1462" type="line"/>
    </contour>
  </outline>
</glyph>
<glyph name="ohorn" format="2">
  <advance width="1163"/>
  <unicode hex="01A1"/>
  <anchor x="465" y="0" name="bottom"/>
  <anchor x="662" y="1098" name="top"/>
  <outline>
    <contour>
      <point x="508" y="-16" type="curve" smooth="yes"/>
      <point x="872" y="-16"/>
      <point x="1057" y="354"/>
      <point x="1057" y="688" type="curve" smooth="yes"/>
      <point x="1057" y="758"/>
      <point x="1047" y="819"/>
      <point x="1024" y="874" type="curve"/>
      <point x="1223" y="948"/>
      <point x="1321" y="1063"/>
      <point x="1364" y="1243" type="curve"/>
      <point x="1356" y="1266" type="line"/>
      <point x="1161" y="1266" type="line"/>
      <point x="1139" y="1128"/>
      <point x="1100" y="1022"/>
      <point x="973" y="969" type="curve"/>
      <point x="903" y="1061"/>
      <point x="791" y="1112"/>
      <point x="647" y="1112" type="curve" smooth="yes"/>
      <point x="285" y="1112"/>
      <point x="98" y="741"/>
      <point x="98" y="406" type="curve" smooth="yes"/>
      <point x="98" y="145"/>
      <point x="254" y="-16"/>
    </contour>
    <contour>
      <point x="518" y="133" type="curve" smooth="yes"/>
      <point x="367" y="133"/>
      <point x="281" y="229"/>
      <point x="281" y="399" type="curve" smooth="yes"/>
      <point x="281" y="705"/>
      <point x="422" y="963"/>
      <point x="649" y="963" type="curve" smooth="yes"/>
      <point x="813" y="963"/>
      <point x="872" y="829"/>
      <point x="872" y="709" type="curve" smooth="yes"/>
      <point x="872" y="346"/>
      <point x="713" y="133"/>
    </contour>
  </outline>
</glyph>
<glyph name="uni01B3" format="2">
  <advance width="1104"/>
  <unicode hex="01B3"/>
  <anchor x="426" y="0" name="bottom"/>
  <anchor x="737" y="1462" name="top"/>
  <outline>
    <contour>
      <point x="307" y="0" type="line"/>
      <point x="492" y="0" type="line"/>
      <point x="604" y="543" type="line"/>
      <point x="1040" y="1217" type="line" smooth="yes"/>
      <point x="1106" y="1317"/>
      <point x="1155" y="1321"/>
      <point x="1192" y="1321" type="curve" smooth="yes"/>
      <point x="1210" y="1321"/>
      <point x="1231" y="1317"/>
      <point x="1245" y="1311" type="curve"/>
      <point x="1278" y="1456" type="line"/>
      <point x="1255" y="1466"/>
      <point x="1196" y="1475"/>
      <point x="1169" y="1475" type="curve" smooth="yes"/>
      <point x="1040" y="1475"/>
      <point x="969" y="1403"/>
      <point x="893" y="1282" type="curve" smooth="yes"/>
      <point x="545" y="729" type="line"/>
      <point x="371" y="1462" type="line"/>
      <point x="188" y="1462" type="line"/>
      <point x="426" y="549" type="line"/>
    </contour>
  </outline>
</glyph>
<glyph name="uni01B6" format="2">
  <advance width="911"/>
  <unicode hex="01B6"/>
  <anchor x="340" y="0" name="bottom"/>
  <anchor x="573" y="1098" name="top"/>
  <outline>
    <contour>
      <point x="-31" y="0" type="line"/>
      <point x="696" y="0" type="line"/>
      <point x="723" y="135" type="line"/>
      <point x="201" y="135" type="line"/>
      <point x="498" y="498" type="line"/>
      <point x="778" y="498" type="line"/>
      <point x="809" y="641" type="line"/>
      <point x="614" y="641" type="line"/>
      <point x="870" y="952" type="line"/>
      <point x="899" y="1098" type="line"/>
      <point x="233" y="1098" type="line"/>
      <point x="205" y="963" type="line"/>
      <point x="676" y="963" type="line"/>
      <point x="416" y="641" type="line"/>
      <point x="135" y="641" type="line"/>
      <point x="104" y="498" type="line"/>
      <point x="299" y="498" type="line"/>
      <point x="-6" y="123" type="line"/>
    </contour>
  </outline>
</glyph>
<glyph name="uni01BA" format="2">
  <advance width="950"/>
  <unicode hex="01BA"/>
  <anchor x="254" y="-492" name="bottom"/>
  <anchor x="592" y="1098" name="top"/>
  <outline>
    <contour>
      <point x="223" y="-492" type="curve" smooth="yes"/>
      <point x="352" y="-492"/>
      <point x="463" y="-465"/>
      <point x="541" y="-428" type="curve"/>
      <point x="541" y="-272" type="line"/>
      <point x="461" y="-309"/>
      <point x="354" y="-342"/>
      <point x="227" y="-342" type="curve" smooth="yes"/>
      <point x="104" y="-342"/>
      <point x="47" y="-303"/>
      <point x="47" y="-250" type="curve" smooth="yes"/>
      <point x="47" y="-184"/>
      <point x="96" y="-154"/>
      <point x="264" y="-129" type="curve" smooth="yes"/>
      <point x="653" y="-74"/>
      <point x="817" y="39"/>
      <point x="817" y="293" type="curve" smooth="yes"/>
      <point x="817" y="494"/>
      <point x="668" y="604"/>
      <point x="467" y="621" type="curve"/>
      <point x="895" y="967" type="line"/>
      <point x="922" y="1098" type="line"/>
      <point x="178" y="1098" type="line"/>
      <point x="147" y="946" type="line"/>
      <point x="649" y="946" type="line"/>
      <point x="244" y="612" type="line"/>
      <point x="221" y="487" type="line"/>
      <point x="324" y="487" type="line" smooth="yes"/>
      <point x="500" y="487"/>
      <point x="637" y="451"/>
      <point x="637" y="299" type="curve" smooth="yes"/>
      <point x="637" y="125"/>
      <point x="500" y="68"/>
      <point x="276" y="33" type="curve" smooth="yes"/>
      <point x="-27" y="-14"/>
      <point x="-121" y="-92"/>
      <point x="-121" y="-256" type="curve" smooth="yes"/>
      <point x="-121" y="-399"/>
      <point x="2" y="-492"/>
    </contour>
  </outline>
</glyph>
<glyph name="uni01BC" format="2">
  <advance width="1085"/>
  <unicode hex="01BC"/>
  <anchor x="426" y="0" name="bottom"/>
  <anchor x="737" y="1462" name="top"/>
  <outline>
    <contour>
      <point x="389" y="-20" type="curve" smooth="yes"/>
      <point x="772" y="-20"/>
      <point x="977" y="182"/>
      <point x="977" y="508" type="curve" smooth="yes"/>
      <point x="977" y="745"/>
      <point x="827" y="903"/>
      <point x="532" y="903" type="curve" smooth="yes"/>
      <point x="494" y="903" type="line"/>
      <point x="584" y="1298" type="line"/>
      <point x="1085" y="1298" type="line"/>
      <point x="1120" y="1462" type="line"/>
      <point x="285" y="1462" type="line"/>
      <point x="250" y="1298" type="line"/>
      <point x="410" y="1298" type="line"/>
      <point x="289" y="752" type="line"/>
      <point x="496" y="752" type="line" smooth="yes"/>
      <point x="672" y="752"/>
      <point x="788" y="670"/>
      <point x="788" y="489" type="curve" smooth="yes"/>
      <point x="788" y="260"/>
      <point x="641" y="131"/>
      <point x="385" y="131" type="curve" smooth="yes"/>
      <point x="258" y="131"/>
      <point x="119" y="168"/>
      <point x="14" y="227" type="curve"/>
      <point x="14" y="59" type="line"/>
      <point x="115" y="0"/>
      <point x="254" y="-20"/>
    </contour>
  </outline>
</glyph>
<glyph name="uni01C0" format="2">
  <advance width="647"/>
  <unicode hex="01C0"/>
  <anchor x="209" y="0" name="bottom"/>
  <anchor x="541" y="1556" name="top"/>
  <outline>
    <contour>
      <point x="127" y="0" type="line"/>
      <point x="287" y="0" type="line"/>
      <point x="618" y="1556" type="line"/>
      <point x="459" y="1556" type="line"/>
    </contour>
  </outline>
</glyph>
<glyph name="uni01C2" format="2">
  <advance width="1057"/>
  <unicode hex="01C2"/>
  <anchor x="410" y="0" name="bottom"/>
  <anchor x="741" y="1556" name="top"/>
  <outline>
    <contour>
      <point x="330" y="0" type="line"/>
      <point x="489" y="0" type="line"/>
      <point x="606" y="547" type="line"/>
      <point x="922" y="547" type="line"/>
      <point x="954" y="694" type="line"/>
      <point x="639" y="694" type="line"/>
      <point x="680" y="889" type="line"/>
      <point x="995" y="889" type="line"/>
      <point x="1026" y="1036" type="line"/>
      <point x="711" y="1036" type="line"/>
      <point x="821" y="1556" type="line"/>
      <point x="662" y="1556" type="line"/>
      <point x="551" y="1036" type="line"/>
      <point x="236" y="1036" type="line"/>
      <point x="205" y="889" type="line"/>
      <point x="520" y="889" type="line"/>
      <point x="479" y="694" type="line"/>
      <point x="164" y="694" type="line"/>
      <point x="131" y="547" type="line"/>
      <point x="446" y="547" type="line"/>
    </contour>
  </outline>
</glyph>
<glyph name="uni021D" format="2">
  <advance width="1016"/>
  <unicode hex="021D"/>
  <anchor x="338" y="-348" name="bottom"/>
  <anchor x="604" y="1098" name="top"/>
  <outline>
    <contour>
      <point x="-139" y="-492" type="line"/>
      <point x="365" y="-393"/>
      <point x="856" y="-223"/>
      <point x="856" y="201" type="curve" smooth="yes"/>
      <point x="856" y="348"/>
      <point x="793" y="422"/>
      <point x="700" y="471" type="curve"/>
      <point x="854" y="553"/>
      <point x="958" y="676"/>
      <point x="958" y="829" type="curve" smooth="yes"/>
      <point x="958" y="1026"/>
      <point x="793" y="1118"/>
      <point x="604" y="1118" type="curve" smooth="yes"/>
      <point x="471" y="1118"/>
      <point x="336" y="1092"/>
      <point x="197" y="1022" type="curve"/>
      <point x="248" y="891" type="line"/>
      <point x="358" y="944"/>
      <point x="467" y="973"/>
      <point x="588" y="973" type="curve" smooth="yes"/>
      <point x="705" y="973"/>
      <point x="772" y="922"/>
      <point x="772" y="817" type="curve" smooth="yes"/>
      <point x="772" y="614"/>
      <point x="553" y="528"/>
      <point x="256" y="455" type="curve"/>
      <point x="256" y="319" type="line"/>
      <point x="360" y="344"/>
      <point x="459" y="371"/>
      <point x="545" y="403" type="curve"/>
      <point x="625" y="358"/>
      <point x="672" y="303"/>
      <point x="672" y="197" type="curve" smooth="yes"/>
      <point x="672" y="-104"/>
      <point x="291" y="-250"/>
      <point x="-104" y="-330" type="curve"/>
    </contour>
  </outline>
</glyph>
<glyph name="uni0221" format="2">
  <advance width="1186"/>
  <unicode hex="0221"/>
  <anchor x="432" y="-215" name="bottom"/>
  <anchor x="809" y="1556" name="top"/>
  <outline>
    <contour>
      <point x="989" y="-215" type="line"/>
      <point x="1004" y="-147"/>
      <point x="1030" y="-51"/>
      <point x="1051" y="0" type="curve"/>
      <point x="1090" y="-10"/>
      <point x="1153" y="-20"/>
      <point x="1229" y="-20" type="curve" smooth="yes"/>
      <point x="1421" y="-20"/>
      <point x="1552" y="41"/>
      <point x="1552" y="209" type="curve" smooth="yes"/>
      <point x="1552" y="324"/>
      <point x="1479" y="412"/>
      <point x="1325" y="412" type="curve" smooth="yes"/>
      <point x="1133" y="412"/>
      <point x="1047" y="291"/>
      <point x="983" y="170" type="curve"/>
      <point x="971" y="188"/>
      <point x="961" y="217"/>
      <point x="961" y="256" type="curve" smooth="yes"/>
      <point x="961" y="297"/>
      <point x="971" y="365"/>
      <point x="983" y="422" type="curve" smooth="yes"/>
      <point x="1223" y="1556" type="line"/>
      <point x="1044" y="1556" type="line"/>
      <point x="969" y="1198" type="line" smooth="yes"/>
      <point x="946" y="1100"/>
      <point x="936" y="1020"/>
      <point x="924" y="928" type="curve"/>
      <point x="913" y="928" type="line"/>
      <point x="868" y="1028"/>
      <point x="784" y="1116"/>
      <point x="637" y="1116" type="curve" smooth="yes"/>
      <point x="305" y="1116"/>
      <point x="98" y="756"/>
      <point x="98" y="354" type="curve" smooth="yes"/>
      <point x="98" y="104"/>
      <point x="219" y="-20"/>
      <point x="395" y="-20" type="curve" smooth="yes"/>
      <point x="549" y="-20"/>
      <point x="733" y="106"/>
      <point x="821" y="276" type="curve"/>
      <point x="827" y="276" type="line"/>
      <point x="827" y="166"/>
      <point x="862" y="90"/>
      <point x="930" y="47" type="curve"/>
      <point x="905" y="-14"/>
      <point x="874" y="-117"/>
      <point x="858" y="-190" type="curve"/>
    </contour>
    <contour>
      <point x="457" y="129" type="curve" smooth="yes"/>
      <point x="342" y="129"/>
      <point x="283" y="203"/>
      <point x="283" y="350" type="curve" smooth="yes"/>
      <point x="283" y="657"/>
      <point x="432" y="967"/>
      <point x="649" y="967" type="curve" smooth="yes"/>
      <point x="795" y="967"/>
      <point x="854" y="877"/>
      <point x="854" y="745" type="curve" smooth="yes"/>
      <point x="854" y="420"/>
      <point x="637" y="129"/>
    </contour>
    <contour>
      <point x="1241" y="98" type="curve" smooth="yes"/>
      <point x="1178" y="98"/>
      <point x="1126" y="104"/>
      <point x="1094" y="115" type="curve"/>
      <point x="1139" y="223"/>
      <point x="1206" y="299"/>
      <point x="1311" y="299" type="curve" smooth="yes"/>
      <point x="1384" y="299"/>
      <point x="1421" y="264"/>
      <point x="1421" y="209" type="curve" smooth="yes"/>
      <point x="1421" y="145"/>
      <point x="1374" y="98"/>
    </contour>
  </outline>
</glyph>
<glyph name="uni0247" format="2">
  <advance width="1022"/>
  <unicode hex="0247"/>
  <anchor x="305" y="-426" name="bottom"/>
  <anchor x="727" y="1556" name="top"/>
  <outline>
    <contour>
      <point x="-98" y="-426" type="line"/>
      <point x="49" y="-426" type="line"/>
      <point x="289" y="25" type="line"/>
      <point x="346" y="-4"/>
      <point x="414" y="-20"/>
      <point x="496" y="-20" type="curve" smooth="yes"/>
      <point x="635" y="-20"/>
      <point x="723" y="12"/>
      <point x="827" y="59" type="curve"/>
      <point x="827" y="213" type="line"/>
      <point x="719" y="160"/>
      <point x="631" y="129"/>
      <point x="528" y="129" type="curve" smooth="yes"/>
      <point x="461" y="129"/>
      <point x="408" y="145"/>
      <point x="369" y="176" type="curve"/>
      <point x="537" y="492" type="line"/>
      <point x="834" y="539"/>
      <point x="961" y="684"/>
      <point x="961" y="862" type="curve" smooth="yes"/>
      <point x="961" y="958"/>
      <point x="922" y="1030"/>
      <point x="846" y="1075" type="curve"/>
      <point x="1102" y="1556" type="line"/>
      <point x="954" y="1556" type="line"/>
      <point x="719" y="1114" type="line"/>
      <point x="696" y="1116"/>
      <point x="672" y="1118"/>
      <point x="647" y="1118" type="curve" smooth="yes"/>
      <point x="307" y="1118"/>
      <point x="98" y="741"/>
      <point x="98" y="393" type="curve" smooth="yes"/>
      <point x="98" y="276"/>
      <point x="129" y="180"/>
      <point x="186" y="109" type="curve"/>
    </contour>
    <contour>
      <point x="289" y="305" type="line"/>
      <point x="283" y="334"/>
      <point x="281" y="365"/>
      <point x="281" y="399" type="curve" smooth="yes"/>
      <point x="281" y="422"/>
      <point x="283" y="451"/>
      <point x="285" y="475" type="curve"/>
      <point x="381" y="475" type="line"/>
    </contour>
    <contour>
      <point x="311" y="621" type="line"/>
      <point x="367" y="825"/>
      <point x="492" y="969"/>
      <point x="643" y="969" type="curve"/>
      <point x="461" y="627" type="line"/>
      <point x="418" y="623"/>
      <point x="373" y="621"/>
      <point x="326" y="621" type="curve" smooth="yes"/>
    </contour>
    <contour>
      <point x="627" y="664" type="curve"/>
      <point x="762" y="920" type="line"/>
      <point x="778" y="899"/>
      <point x="784" y="874"/>
      <point x="784" y="848" type="curve" smooth="yes"/>
      <point x="784" y="758"/>
      <point x="721" y="698"/>
    </contour>
  </outline>
</glyph>
<glyph name="uni024A" format="2">
  <advance width="1489"/>
  <unicode hex="024A"/>
  <anchor x="524" y="-492" name="bottom"/>
  <anchor x="940" y="1462" name="top"/>
  <outline>
    <contour>
      <point x="1194" y="-492" type="curve" smooth="yes"/>
      <point x="1235" y="-492"/>
      <point x="1294" y="-481"/>
      <point x="1323" y="-465" type="curve"/>
      <point x="1323" y="-309" type="line"/>
      <point x="1296" y="-322"/>
      <point x="1268" y="-330"/>
      <point x="1235" y="-330" type="curve" smooth="yes"/>
      <point x="1182" y="-330"/>
      <point x="1141" y="-305"/>
      <point x="1141" y="-240" type="curve" smooth="yes"/>
      <point x="1141" y="-219"/>
      <point x="1145" y="-193"/>
      <point x="1151" y="-162" type="curve" smooth="yes"/>
      <point x="1495" y="1462" type="line"/>
      <point x="1346" y="1462" type="line"/>
      <point x="1272" y="1257" type="line"/>
      <point x="1264" y="1257" type="line"/>
      <point x="1190" y="1386"/>
      <point x="1067" y="1485"/>
      <point x="881" y="1485" type="curve" smooth="yes"/>
      <point x="420" y="1485"/>
      <point x="147" y="1040"/>
      <point x="147" y="555" type="curve" smooth="yes"/>
      <point x="147" y="207"/>
      <point x="313" y="-20"/>
      <point x="633" y="-20" type="curve" smooth="yes"/>
      <point x="823" y="-20"/>
      <point x="952" y="76"/>
      <point x="1038" y="188" type="curve"/>
      <point x="1047" y="188" type="line"/>
      <point x="1034" y="141"/>
      <point x="1020" y="90"/>
      <point x="1010" y="41" type="curve" smooth="yes"/>
      <point x="965" y="-170" type="line" smooth="yes"/>
      <point x="956" y="-205"/>
      <point x="952" y="-238"/>
      <point x="952" y="-264" type="curve" smooth="yes"/>
      <point x="952" y="-426"/>
      <point x="1059" y="-492"/>
    </contour>
    <contour>
      <point x="664" y="139" type="curve" smooth="yes"/>
      <point x="465" y="139"/>
      <point x="342" y="293"/>
      <point x="342" y="559" type="curve" smooth="yes"/>
      <point x="342" y="938"/>
      <point x="535" y="1323"/>
      <point x="870" y="1323" type="curve" smooth="yes"/>
      <point x="1073" y="1323"/>
      <point x="1204" y="1206"/>
      <point x="1204" y="1010" type="curve" smooth="yes"/>
      <point x="1204" y="975"/>
      <point x="1196" y="897"/>
      <point x="1180" y="823" type="curve" smooth="yes"/>
      <point x="1126" y="578" type="line" smooth="yes"/>
      <point x="1073" y="330"/>
      <point x="915" y="139"/>
    </contour>
  </outline>
</glyph>
<glyph name="uni024B" format="2">
  <advance width="1186"/>
  <unicode hex="024B"/>
  <anchor x="373" y="-492" name="bottom"/>
  <anchor x="711" y="1098" name="top"/>
  <outline>
    <contour>
      <point x="895" y="-492" type="curve" smooth="yes"/>
      <point x="958" y="-492"/>
      <point x="1018" y="-477"/>
      <point x="1049" y="-459" type="curve"/>
      <point x="1049" y="-322" type="line"/>
      <point x="1026" y="-332"/>
      <point x="987" y="-344"/>
      <point x="936" y="-344" type="curve" smooth="yes"/>
      <point x="885" y="-344"/>
      <point x="846" y="-317"/>
      <point x="846" y="-246" type="curve" smooth="yes"/>
      <point x="846" y="-219"/>
      <point x="852" y="-184"/>
      <point x="860" y="-147" type="curve" smooth="yes"/>
      <point x="1126" y="1098" type="line"/>
      <point x="991" y="1098" type="line"/>
      <point x="924" y="928" type="line"/>
      <point x="913" y="928" type="line"/>
      <point x="870" y="1028"/>
      <point x="784" y="1118"/>
      <point x="639" y="1118" type="curve" smooth="yes"/>
      <point x="305" y="1118"/>
      <point x="98" y="752"/>
      <point x="98" y="354" type="curve" smooth="yes"/>
      <point x="98" y="106"/>
      <point x="219" y="-20"/>
      <point x="397" y="-20" type="curve" smooth="yes"/>
      <point x="551" y="-20"/>
      <point x="666" y="82"/>
      <point x="760" y="203" type="curve"/>
      <point x="768" y="203" type="line"/>
      <point x="745" y="127"/>
      <point x="719" y="27"/>
      <point x="709" y="-20" type="curve" smooth="yes"/>
      <point x="680" y="-150" type="line" smooth="yes"/>
      <point x="672" y="-193"/>
      <point x="668" y="-231"/>
      <point x="668" y="-266" type="curve" smooth="yes"/>
      <point x="668" y="-432"/>
      <point x="764" y="-492"/>
    </contour>
    <contour>
      <point x="457" y="129" type="curve" smooth="yes"/>
      <point x="342" y="129"/>
      <point x="283" y="203"/>
      <point x="283" y="350" type="curve" smooth="yes"/>
      <point x="283" y="657"/>
      <point x="434" y="967"/>
      <point x="651" y="967" type="curve" smooth="yes"/>
      <point x="793" y="967"/>
      <point x="852" y="866"/>
      <point x="852" y="745" type="curve" smooth="yes"/>
      <point x="852" y="428"/>
      <point x="639" y="129"/>
    </contour>
  </outline>
</glyph>
<glyph name="uni0255" format="2">
  <advance width="985"/>
  <unicode hex="0255"/>
  <anchor x="377" y="0" name="bottom"/>
  <anchor x="610" y="1098" name="top"/>
  <outline>
    <contour>
      <point x="90" y="-100" type="line"/>
      <point x="125" y="-33"/>
      <point x="166" y="35"/>
      <point x="203" y="86" type="curve"/>
      <point x="276" y="14"/>
      <point x="381" y="-20"/>
      <point x="502" y="-20" type="curve" smooth="yes"/>
      <point x="727" y="-20"/>
      <point x="881" y="78"/>
      <point x="881" y="274" type="curve" smooth="yes"/>
      <point x="881" y="403"/>
      <point x="799" y="520"/>
      <point x="618" y="520" type="curve" smooth="yes"/>
      <point x="489" y="520"/>
      <point x="383" y="467"/>
      <point x="281" y="371" type="curve"/>
      <point x="281" y="391"/>
      <point x="281" y="414"/>
      <point x="281" y="434" type="curve" smooth="yes"/>
      <point x="281" y="702"/>
      <point x="440" y="967"/>
      <point x="674" y="967" type="curve" smooth="yes"/>
      <point x="762" y="967"/>
      <point x="838" y="940"/>
      <point x="893" y="915" type="curve"/>
      <point x="944" y="1065" type="line"/>
      <point x="866" y="1098"/>
      <point x="768" y="1118"/>
      <point x="672" y="1118" type="curve" smooth="yes"/>
      <point x="319" y="1118"/>
      <point x="98" y="782"/>
      <point x="98" y="389" type="curve" smooth="yes"/>
      <point x="98" y="319"/>
      <point x="111" y="248"/>
      <point x="131" y="205" type="curve"/>
      <point x="80" y="135"/>
      <point x="25" y="49"/>
      <point x="-20" y="-37" type="curve"/>
    </contour>
    <contour>
      <point x="514" y="129" type="curve" smooth="yes"/>
      <point x="420" y="129"/>
      <point x="356" y="172"/>
      <point x="324" y="229" type="curve"/>
      <point x="410" y="324"/>
      <point x="512" y="371"/>
      <point x="598" y="371" type="curve" smooth="yes"/>
      <point x="676" y="371"/>
      <point x="721" y="330"/>
      <point x="721" y="264" type="curve" smooth="yes"/>
      <point x="721" y="195"/>
      <point x="651" y="129"/>
    </contour>
  </outline>
</glyph>
<glyph name="uni0256" format="2">
  <advance width="1186"/>
  <unicode hex="0256"/>
  <anchor x="373" y="-492" name="bottom"/>
  <anchor x="809" y="1556" name="top"/>
  <anchor x="1358" y="1556" name="topright"/>
  <outline>
    <contour>
      <point x="895" y="-492" type="curve" smooth="yes"/>
      <point x="958" y="-492"/>
      <point x="1018" y="-477"/>
      <point x="1049" y="-459" type="curve"/>
      <point x="1049" y="-322" type="line"/>
      <point x="1026" y="-332"/>
      <point x="987" y="-344"/>
      <point x="936" y="-344" type="curve" smooth="yes"/>
      <point x="885" y="-344"/>
      <point x="846" y="-317"/>
      <point x="846" y="-246" type="curve" smooth="yes"/>
      <point x="846" y="-219"/>
      <point x="852" y="-184"/>
      <point x="860" y="-147" type="curve" smooth="yes"/>
      <point x="1223" y="1556" type="line"/>
      <point x="1044" y="1556" type="line"/>
      <point x="969" y="1198" type="line" smooth="yes"/>
      <point x="948" y="1100"/>
      <point x="936" y="1020"/>
      <point x="924" y="928" type="curve"/>
      <point x="913" y="928" type="line"/>
      <point x="868" y="1028"/>
      <point x="784" y="1116"/>
      <point x="637" y="1116" type="curve" smooth="yes"/>
      <point x="305" y="1116"/>
      <point x="98" y="756"/>
      <point x="98" y="354" type="curve" smooth="yes"/>
      <point x="98" y="104"/>
      <point x="219" y="-20"/>
      <point x="395" y="-20" type="curve" smooth="yes"/>
      <point x="549" y="-20"/>
      <point x="662" y="80"/>
      <point x="760" y="203" type="curve"/>
      <point x="768" y="203" type="line"/>
      <point x="743" y="123"/>
      <point x="715" y="20"/>
      <point x="707" y="-20" type="curve" smooth="yes"/>
      <point x="680" y="-150" type="line" smooth="yes"/>
      <point x="672" y="-193"/>
      <point x="668" y="-231"/>
      <point x="668" y="-266" type="curve" smooth="yes"/>
      <point x="668" y="-432"/>
      <point x="764" y="-492"/>
    </contour>
    <contour>
      <point x="457" y="129" type="curve" smooth="yes"/>
      <point x="342" y="129"/>
      <point x="283" y="203"/>
      <point x="283" y="350" type="curve" smooth="yes"/>
      <point x="283" y="657"/>
      <point x="432" y="967"/>
      <point x="649" y="967" type="curve" smooth="yes"/>
      <point x="795" y="967"/>
      <point x="854" y="877"/>
      <point x="854" y="745" type="curve" smooth="yes"/>
      <point x="854" y="420"/>
      <point x="637" y="129"/>
    </contour>
  </outline>
</glyph>
<glyph name="uni0257" format="2">
  <advance width="1186"/>
  <unicode hex="0257"/>
  <anchor x="477" y="0" name="bottom"/>
  <anchor x="811" y="1567" name="top"/>
  <outline>
    <contour>
      <point x="395" y="-20" type="curve" smooth="yes"/>
      <point x="549" y="-20"/>
      <point x="662" y="80"/>
      <point x="760" y="203" type="curve"/>
      <point x="768" y="203" type="line"/>
      <point x="745" y="0" type="line"/>
      <point x="893" y="0" type="line"/>
      <point x="1167" y="1294" type="line" smooth="yes"/>
      <point x="1186" y="1376"/>
      <point x="1225" y="1411"/>
      <point x="1280" y="1411" type="curve" smooth="yes"/>
      <point x="1323" y="1411"/>
      <point x="1364" y="1401"/>
      <point x="1386" y="1391" type="curve"/>
      <point x="1386" y="1540" type="line"/>
      <point x="1364" y="1552"/>
      <point x="1315" y="1567"/>
      <point x="1268" y="1567" type="curve" smooth="yes"/>
      <point x="1096" y="1567"/>
      <point x="1026" y="1466"/>
      <point x="985" y="1278" type="curve" smooth="yes"/>
      <point x="967" y="1192" type="line" smooth="yes"/>
      <point x="946" y="1096"/>
      <point x="936" y="1018"/>
      <point x="924" y="928" type="curve"/>
      <point x="913" y="928" type="line"/>
      <point x="868" y="1028"/>
      <point x="784" y="1116"/>
      <point x="637" y="1116" type="curve" smooth="yes"/>
      <point x="305" y="1116"/>
      <point x="98" y="756"/>
      <point x="98" y="354" type="curve" smooth="yes"/>
      <point x="98" y="104"/>
      <point x="219" y="-20"/>
    </contour>
    <contour>
      <point x="457" y="129" type="curve" smooth="yes"/>
      <point x="342" y="129"/>
      <point x="283" y="203"/>
      <point x="283" y="350" type="curve" smooth="yes"/>
      <point x="283" y="657"/>
      <point x="432" y="967"/>
      <point x="649" y="967" type="curve" smooth="yes"/>
      <point x="795" y="967"/>
      <point x="854" y="877"/>
      <point x="854" y="745" type="curve" smooth="yes"/>
      <point x="854" y="420"/>
      <point x="637" y="129"/>
    </contour>
  </outline>
</glyph>
<glyph name="uni0258" format="2">
  <advance width="1008"/>
  <unicode hex="0258"/>
  <anchor x="387" y="0" name="bottom"/>
  <anchor x="621" y="1098" name="top"/>
  <outline>
    <contour>
      <point x="354" y="-20" type="curve" smooth="yes"/>
      <point x="737" y="-20"/>
      <point x="909" y="319"/>
      <point x="909" y="680" type="curve" smooth="yes"/>
      <point x="909" y="922"/>
      <point x="786" y="1118"/>
      <point x="520" y="1118" type="curve" smooth="yes"/>
      <point x="287" y="1118"/>
      <point x="158" y="985"/>
      <point x="158" y="797" type="curve" smooth="yes"/>
      <point x="158" y="616"/>
      <point x="281" y="475"/>
      <point x="664" y="475" type="curve" smooth="yes"/>
      <point x="702" y="475" type="line"/>
      <point x="651" y="274"/>
      <point x="551" y="125"/>
      <point x="332" y="125" type="curve" smooth="yes"/>
      <point x="205" y="125"/>
      <point x="121" y="158"/>
      <point x="27" y="207" type="curve"/>
      <point x="27" y="55" type="line"/>
      <point x="113" y="8"/>
      <point x="190" y="-20"/>
    </contour>
    <contour>
      <point x="725" y="621" type="curve"/>
      <point x="662" y="621" type="line" smooth="yes"/>
      <point x="451" y="621"/>
      <point x="334" y="672"/>
      <point x="334" y="805" type="curve" smooth="yes"/>
      <point x="334" y="899"/>
      <point x="395" y="969"/>
      <point x="514" y="969" type="curve" smooth="yes"/>
      <point x="631" y="969"/>
      <point x="729" y="870"/>
      <point x="729" y="692" type="curve" smooth="yes"/>
      <point x="729" y="672"/>
      <point x="727" y="643"/>
    </contour>
  </outline>
</glyph>
<glyph name="eopenreversedhook" format="2">
  <advance width="1331"/>
  <unicode hex="025D"/>
  <anchor x="313" y="-20" name="bottom"/>
  <anchor x="528" y="1118" name="top"/>
  <outline>
    <contour>
      <point x="1130" y="539" type="curve" smooth="yes"/>
      <point x="1217" y="539"/>
      <point x="1294" y="569"/>
      <point x="1364" y="616" type="curve"/>
      <point x="1307" y="743" type="line"/>
      <point x="1255" y="715"/>
      <point x="1217" y="696"/>
      <point x="1161" y="696" type="curve" smooth="yes"/>
      <point x="1100" y="696"/>
      <point x="1071" y="741"/>
      <point x="1061" y="856" type="curve" smooth="yes"/>
      <point x="1051" y="979" type="line"/>
      <point x="711" y="893" type="line"/>
      <point x="719" y="754" type="line"/>
      <point x="907" y="799" type="line"/>
      <point x="926" y="608"/>
      <point x="1006" y="539"/>
    </contour>
    <component base="afii10073"/>
  </outline>
</glyph>
<glyph name="uni0260" format="2">
  <advance width="1186"/>
  <unicode hex="0260"/>
  <anchor x="373" y="-492" name="bottom"/>
  <anchor x="811" y="1567" name="top"/>
  <outline>
    <contour>
      <point x="381" y="-492" type="curve" smooth="yes"/>
      <point x="643" y="-492"/>
      <point x="813" y="-373"/>
      <point x="879" y="-63" type="curve" smooth="yes"/>
      <point x="1167" y="1294" type="line" smooth="yes"/>
      <point x="1186" y="1376"/>
      <point x="1225" y="1411"/>
      <point x="1280" y="1411" type="curve" smooth="yes"/>
      <point x="1323" y="1411"/>
      <point x="1364" y="1401"/>
      <point x="1386" y="1391" type="curve"/>
      <point x="1386" y="1540" type="line"/>
      <point x="1364" y="1552"/>
      <point x="1315" y="1567"/>
      <point x="1268" y="1567" type="curve" smooth="yes"/>
      <point x="1096" y="1567"/>
      <point x="1026" y="1466"/>
      <point x="985" y="1278" type="curve" smooth="yes"/>
      <point x="967" y="1192" type="line" smooth="yes"/>
      <point x="946" y="1096"/>
      <point x="936" y="1018"/>
      <point x="924" y="928" type="curve"/>
      <point x="913" y="928" type="line"/>
      <point x="868" y="1028"/>
      <point x="784" y="1116"/>
      <point x="637" y="1116" type="curve" smooth="yes"/>
      <point x="305" y="1116"/>
      <point x="98" y="756"/>
      <point x="98" y="354" type="curve" smooth="yes"/>
      <point x="98" y="104"/>
      <point x="219" y="-20"/>
      <point x="395" y="-20" type="curve" smooth="yes"/>
      <point x="549" y="-20"/>
      <point x="662" y="80"/>
      <point x="760" y="203" type="curve"/>
      <point x="768" y="203" type="line"/>
      <point x="754" y="152"/>
      <point x="731" y="63"/>
      <point x="717" y="2" type="curve" smooth="yes"/>
      <point x="698" y="-76" type="line" smooth="yes"/>
      <point x="655" y="-266"/>
      <point x="545" y="-342"/>
      <point x="375" y="-342" type="curve" smooth="yes"/>
      <point x="258" y="-342"/>
      <point x="123" y="-299"/>
      <point x="51" y="-256" type="curve"/>
      <point x="51" y="-422" type="line"/>
      <point x="129" y="-463"/>
      <point x="248" y="-492"/>
    </contour>
    <contour>
      <point x="457" y="129" type="curve" smooth="yes"/>
      <point x="342" y="129"/>
      <point x="283" y="203"/>
      <point x="283" y="350" type="curve" smooth="yes"/>
      <point x="283" y="657"/>
      <point x="432" y="967"/>
      <point x="649" y="967" type="curve" smooth="yes"/>
      <point x="795" y="967"/>
      <point x="854" y="877"/>
      <point x="854" y="745" type="curve" smooth="yes"/>
      <point x="854" y="420"/>
      <point x="637" y="129"/>
    </contour>
  </outline>
</glyph>
<glyph name="uni0266" format="2">
  <advance width="1186"/>
  <unicode hex="0266"/>
  <anchor x="477" y="0" name="bottom"/>
  <anchor x="811" y="1567" name="top"/>
  <outline>
    <contour>
      <point x="57" y="0" type="line"/>
      <point x="238" y="0" type="line"/>
      <point x="338" y="473" type="line" smooth="yes"/>
      <point x="414" y="834"/>
      <point x="604" y="967"/>
      <point x="745" y="967" type="curve" smooth="yes"/>
      <point x="846" y="967"/>
      <point x="889" y="913"/>
      <point x="889" y="823" type="curve" smooth="yes"/>
      <point x="889" y="791"/>
      <point x="883" y="750"/>
      <point x="870" y="688" type="curve" smooth="yes"/>
      <point x="725" y="0" type="line"/>
      <point x="905" y="0" type="line"/>
      <point x="1049" y="668" type="line"/>
      <point x="1061" y="729"/>
      <point x="1071" y="782"/>
      <point x="1071" y="836" type="curve" smooth="yes"/>
      <point x="1071" y="1022"/>
      <point x="965" y="1116"/>
      <point x="795" y="1116" type="curve" smooth="yes"/>
      <point x="618" y="1116"/>
      <point x="506" y="997"/>
      <point x="428" y="895" type="curve"/>
      <point x="418" y="895" type="line"/>
      <point x="438" y="969"/>
      <point x="455" y="1038"/>
      <point x="471" y="1112" type="curve" smooth="yes"/>
      <point x="510" y="1288" type="line" smooth="yes"/>
      <point x="528" y="1374"/>
      <point x="567" y="1411"/>
      <point x="623" y="1411" type="curve" smooth="yes"/>
      <point x="666" y="1411"/>
      <point x="707" y="1401"/>
      <point x="729" y="1391" type="curve"/>
      <point x="729" y="1540" type="line"/>
      <point x="707" y="1552"/>
      <point x="657" y="1567"/>
      <point x="610" y="1567" type="curve" smooth="yes"/>
      <point x="438" y="1567"/>
      <point x="367" y="1466"/>
      <point x="328" y="1278" type="curve" smooth="yes"/>
    </contour>
  </outline>
</glyph>
<glyph name="uni026A" format="2">
  <advance width="602"/>
  <unicode hex="026A"/>
  <anchor x="184" y="0" name="bottom"/>
  <anchor x="418" y="1098" name="top"/>
  <outline>
    <contour>
      <point x="-53" y="0" type="line"/>
      <point x="424" y="0" type="line"/>
      <point x="446" y="106" type="line"/>
      <point x="303" y="141" type="line"/>
      <point x="477" y="954" type="line"/>
      <point x="633" y="991" type="line"/>
      <point x="655" y="1098" type="line"/>
      <point x="178" y="1098" type="line"/>
      <point x="156" y="991" type="line"/>
      <point x="301" y="954" type="line"/>
      <point x="127" y="141" type="line"/>
      <point x="-31" y="106" type="line"/>
    </contour>
  </outline>
</glyph>
<glyph name="uni026C" format="2">
  <advance width="682"/>
  <unicode hex="026C"/>
  <anchor x="225" y="0" name="bottom"/>
  <anchor x="557" y="1556" name="top"/>
  <outline>
    <contour>
      <point x="166" y="0" type="line"/>
      <point x="346" y="0" type="line"/>
      <point x="475" y="608" type="line"/>
      <point x="674" y="608" type="line"/>
      <point x="705" y="756" type="line"/>
      <point x="506" y="756" type="line"/>
      <point x="678" y="1556" type="line"/>
      <point x="498" y="1556" type="line"/>
      <point x="379" y="995" type="line"/>
      <point x="350" y="1018"/>
      <point x="313" y="1036"/>
      <point x="268" y="1036" type="curve" smooth="yes"/>
      <point x="113" y="1036"/>
      <point x="27" y="940"/>
      <point x="27" y="811" type="curve" smooth="yes"/>
      <point x="27" y="698"/>
      <point x="102" y="608"/>
      <point x="258" y="608" type="curve" smooth="yes"/>
      <point x="295" y="608" type="line"/>
    </contour>
    <contour>
      <point x="264" y="756" type="line" smooth="yes"/>
      <point x="217" y="756"/>
      <point x="190" y="776"/>
      <point x="190" y="819" type="curve" smooth="yes"/>
      <point x="190" y="856"/>
      <point x="215" y="889"/>
      <point x="264" y="889" type="curve" smooth="yes"/>
      <point x="313" y="889"/>
      <point x="336" y="854"/>
      <point x="336" y="809" type="curve" smooth="yes"/>
      <point x="336" y="797"/>
      <point x="334" y="784"/>
      <point x="332" y="774" type="curve" smooth="yes"/>
      <point x="328" y="756" type="line"/>
    </contour>
  </outline>
</glyph>
<glyph name="uni026D" format="2">
  <advance width="526"/>
  <unicode hex="026D"/>
  <anchor x="43" y="-492" name="bottom"/>
  <anchor x="479" y="1556" name="top"/>
  <outline>
    <contour>
      <point x="266" y="-492" type="curve" smooth="yes"/>
      <point x="328" y="-492"/>
      <point x="408" y="-471"/>
      <point x="442" y="-455" type="curve"/>
      <point x="442" y="-317" type="line"/>
      <point x="387" y="-334"/>
      <point x="346" y="-344"/>
      <point x="301" y="-344" type="curve" smooth="yes"/>
      <point x="221" y="-344"/>
      <point x="197" y="-295"/>
      <point x="197" y="-229" type="curve" smooth="yes"/>
      <point x="197" y="-190"/>
      <point x="205" y="-141"/>
      <point x="213" y="-104" type="curve" smooth="yes"/>
      <point x="567" y="1556" type="line"/>
      <point x="387" y="1556" type="line"/>
      <point x="35" y="-94" type="line" smooth="yes"/>
      <point x="23" y="-152"/>
      <point x="14" y="-211"/>
      <point x="14" y="-252" type="curve" smooth="yes"/>
      <point x="14" y="-430"/>
      <point x="123" y="-492"/>
    </contour>
  </outline>
</glyph>
<glyph name="uni0270" format="2">
  <advance width="1792"/>
  <unicode hex="0270"/>
  <anchor x="676" y="-492" name="bottom"/>
  <anchor x="1014" y="1098" name="top"/>
  <outline>
    <contour>
      <point x="1217" y="-492" type="line"/>
      <point x="1395" y="-492" type="line"/>
      <point x="1733" y="1098" type="line"/>
      <point x="1552" y="1098" type="line"/>
      <point x="1452" y="635" type="line" smooth="yes"/>
      <point x="1374" y="274"/>
      <point x="1200" y="131"/>
      <point x="1065" y="131" type="curve" smooth="yes"/>
      <point x="969" y="131"/>
      <point x="932" y="184"/>
      <point x="932" y="274" type="curve" smooth="yes"/>
      <point x="932" y="307"/>
      <point x="938" y="348"/>
      <point x="950" y="410" type="curve" smooth="yes"/>
      <point x="1098" y="1098" type="line"/>
      <point x="918" y="1098" type="line"/>
      <point x="811" y="602" type="line" smooth="yes"/>
      <point x="741" y="272"/>
      <point x="565" y="131"/>
      <point x="432" y="131" type="curve" smooth="yes"/>
      <point x="336" y="131"/>
      <point x="293" y="184"/>
      <point x="293" y="266" type="curve" smooth="yes"/>
      <point x="293" y="307"/>
      <point x="301" y="348"/>
      <point x="313" y="410" type="curve" smooth="yes"/>
      <point x="459" y="1098" type="line"/>
      <point x="276" y="1098" type="line"/>
      <point x="135" y="430" type="line" smooth="yes"/>
      <point x="123" y="369"/>
      <point x="113" y="315"/>
      <point x="113" y="250" type="curve" smooth="yes"/>
      <point x="113" y="76"/>
      <point x="209" y="-20"/>
      <point x="379" y="-20" type="curve" smooth="yes"/>
      <point x="547" y="-20"/>
      <point x="674" y="102"/>
      <point x="756" y="223" type="curve"/>
      <point x="764" y="223" type="line"/>
      <point x="780" y="72"/>
      <point x="862" y="-20"/>
      <point x="1012" y="-20" type="curve" smooth="yes"/>
      <point x="1180" y="-20"/>
      <point x="1290" y="102"/>
      <point x="1364" y="203" type="curve"/>
      <point x="1374" y="203" type="line"/>
      <point x="1356" y="135"/>
      <point x="1325" y="27"/>
      <point x="1315" y="-25" type="curve" smooth="yes"/>
    </contour>
  </outline>
</glyph>
<glyph name="uni0280" format="2">
  <advance width="1104"/>
  <unicode hex="0280"/>
  <anchor x="436" y="0" name="bottom"/>
  <anchor x="670" y="1098" name="top"/>
  <outline>
    <contour>
      <point x="57" y="0" type="line"/>
      <point x="238" y="0" type="line"/>
      <point x="330" y="436" type="line"/>
      <point x="555" y="436" type="line"/>
      <point x="735" y="0" type="line"/>
      <point x="926" y="0" type="line"/>
      <point x="725" y="461" type="line"/>
      <point x="895" y="504"/>
      <point x="1034" y="612"/>
      <point x="1034" y="817" type="curve" smooth="yes"/>
      <point x="1034" y="993"/>
      <point x="907" y="1098"/>
      <point x="694" y="1098" type="curve" smooth="yes"/>
      <point x="291" y="1098" type="line"/>
    </contour>
    <contour>
      <point x="360" y="586" type="line"/>
      <point x="440" y="948" type="line"/>
      <point x="655" y="948" type="line" smooth="yes"/>
      <point x="791" y="948"/>
      <point x="854" y="893"/>
      <point x="854" y="803" type="curve" smooth="yes"/>
      <point x="854" y="651"/>
      <point x="739" y="586"/>
      <point x="567" y="586" type="curve" smooth="yes"/>
    </contour>
  </outline>
</glyph>
<glyph name="uni0288" format="2">
  <advance width="680"/>
  <unicode hex="0288"/>
  <anchor x="119" y="-492" name="bottom"/>
  <anchor x="510" y="1348" name="top"/>
  <anchor x="885" y="1348" name="topright"/>
  <outline>
    <contour>
      <point x="276" y="-492" type="curve" smooth="yes"/>
      <point x="336" y="-492"/>
      <point x="416" y="-471"/>
      <point x="449" y="-455" type="curve"/>
      <point x="449" y="-317" type="line"/>
      <point x="395" y="-334"/>
      <point x="352" y="-344"/>
      <point x="303" y="-344" type="curve" smooth="yes"/>
      <point x="225" y="-344"/>
      <point x="195" y="-295"/>
      <point x="195" y="-231" type="curve" smooth="yes"/>
      <point x="195" y="-193"/>
      <point x="205" y="-145"/>
      <point x="213" y="-109" type="curve" smooth="yes"/>
      <point x="442" y="961" type="line"/>
      <point x="717" y="961" type="line"/>
      <point x="745" y="1098" type="line"/>
      <point x="469" y="1098" type="line"/>
      <point x="524" y="1348" type="line"/>
      <point x="418" y="1348" type="line"/>
      <point x="291" y="1120" type="line"/>
      <point x="106" y="1042" type="line"/>
      <point x="90" y="961" type="line"/>
      <point x="260" y="961" type="line"/>
      <point x="33" y="-106" type="line" smooth="yes"/>
      <point x="20" y="-160"/>
      <point x="14" y="-211"/>
      <point x="14" y="-252" type="curve" smooth="yes"/>
      <point x="14" y="-430"/>
      <point x="129" y="-492"/>
    </contour>
  </outline>
</glyph>
<glyph name="uni028A" format="2">
  <advance width="1153"/>
  <unicode hex="028A"/>
  <anchor x="461" y="0" name="bottom"/>
  <anchor x="694" y="1098" name="top"/>
  <outline>
    <contour>
      <point x="504" y="-16" type="curve" smooth="yes"/>
      <point x="868" y="-16"/>
      <point x="1059" y="283"/>
      <point x="1059" y="627" type="curve" smooth="yes"/>
      <point x="1059" y="750"/>
      <point x="1012" y="864"/>
      <point x="928" y="948" type="curve"/>
      <point x="1159" y="948" type="line"/>
      <point x="1190" y="1098" type="line"/>
      <point x="737" y="1098" type="line"/>
      <point x="709" y="956" type="line"/>
      <point x="811" y="911"/>
      <point x="874" y="791"/>
      <point x="874" y="647" type="curve" smooth="yes"/>
      <point x="874" y="285"/>
      <point x="709" y="133"/>
      <point x="514" y="133" type="curve" smooth="yes"/>
      <point x="348" y="133"/>
      <point x="264" y="250"/>
      <point x="264" y="420" type="curve" smooth="yes"/>
      <point x="264" y="694"/>
      <point x="373" y="889"/>
      <point x="571" y="956" type="curve"/>
      <point x="600" y="1098" type="line"/>
      <point x="145" y="1098" type="line"/>
      <point x="115" y="948" type="line"/>
      <point x="311" y="948" type="line"/>
      <point x="147" y="817"/>
      <point x="82" y="635"/>
      <point x="82" y="426" type="curve" smooth="yes"/>
      <point x="82" y="166"/>
      <point x="227" y="-16"/>
    </contour>
  </outline>
</glyph>
<glyph name="uni028B" format="2">
  <advance width="1229"/>
  <unicode hex="028B"/>
  <anchor x="498" y="0" name="bottom"/>
  <anchor x="731" y="1098" name="top"/>
  <outline>
    <contour>
      <point x="520" y="-20" type="curve" smooth="yes"/>
      <point x="811" y="-20"/>
      <point x="983" y="150"/>
      <point x="1051" y="475" type="curve" smooth="yes"/>
      <point x="1114" y="780" type="line" smooth="yes"/>
      <point x="1122" y="817"/>
      <point x="1124" y="848"/>
      <point x="1124" y="879" type="curve" smooth="yes"/>
      <point x="1124" y="1044"/>
      <point x="1016" y="1118"/>
      <point x="866" y="1118" type="curve" smooth="yes"/>
      <point x="829" y="1118"/>
      <point x="768" y="1110"/>
      <point x="729" y="1098" type="curve"/>
      <point x="729" y="944" type="line"/>
      <point x="768" y="956"/>
      <point x="807" y="963"/>
      <point x="842" y="963" type="curve" smooth="yes"/>
      <point x="905" y="963"/>
      <point x="942" y="926"/>
      <point x="942" y="852" type="curve" smooth="yes"/>
      <point x="942" y="829"/>
      <point x="938" y="805"/>
      <point x="932" y="774" type="curve" smooth="yes"/>
      <point x="868" y="481" type="line"/>
      <point x="817" y="242"/>
      <point x="715" y="127"/>
      <point x="535" y="127" type="curve" smooth="yes"/>
      <point x="375" y="127"/>
      <point x="311" y="215"/>
      <point x="311" y="356" type="curve" smooth="yes"/>
      <point x="311" y="397"/>
      <point x="317" y="444"/>
      <point x="328" y="496" type="curve" smooth="yes"/>
      <point x="455" y="1098" type="line"/>
      <point x="274" y="1098" type="line"/>
      <point x="147" y="489" type="line" smooth="yes"/>
      <point x="137" y="436"/>
      <point x="131" y="389"/>
      <point x="131" y="342" type="curve" smooth="yes"/>
      <point x="131" y="121"/>
      <point x="256" y="-20"/>
    </contour>
  </outline>
</glyph>
<glyph name="uni0299" format="2">
  <advance width="1085"/>
  <unicode hex="0299"/>
  <anchor x="463" y="0" name="bottom"/>
  <anchor x="696" y="1098" name="top"/>
  <outline>
    <contour>
      <point x="84" y="0" type="line"/>
      <point x="498" y="0" type="line" smooth="yes"/>
      <point x="766" y="0"/>
      <point x="948" y="109"/>
      <point x="948" y="350" type="curve" smooth="yes"/>
      <point x="948" y="424"/>
      <point x="903" y="526"/>
      <point x="772" y="563" type="curve"/>
      <point x="772" y="571" type="line"/>
      <point x="940" y="610"/>
      <point x="1020" y="702"/>
      <point x="1020" y="846" type="curve" smooth="yes"/>
      <point x="1020" y="1004"/>
      <point x="905" y="1098"/>
      <point x="653" y="1098" type="curve" smooth="yes"/>
      <point x="315" y="1098" type="line"/>
    </contour>
    <contour>
      <point x="297" y="143" type="line"/>
      <point x="375" y="502" type="line"/>
      <point x="571" y="502" type="line"/>
      <point x="711" y="502"/>
      <point x="760" y="453"/>
      <point x="760" y="367" type="curve" smooth="yes"/>
      <point x="760" y="233"/>
      <point x="674" y="143"/>
      <point x="502" y="143" type="curve" smooth="yes"/>
    </contour>
    <contour>
      <point x="403" y="643" type="line"/>
      <point x="469" y="952" type="line"/>
      <point x="629" y="952" type="line" smooth="yes"/>
      <point x="772" y="952"/>
      <point x="831" y="899"/>
      <point x="831" y="825" type="curve" smooth="yes"/>
      <point x="831" y="698"/>
      <point x="760" y="643"/>
      <point x="602" y="643" type="curve" smooth="yes"/>
    </contour>
  </outline>
</glyph>
<glyph name="kturned" format="2">
  <advance width="1014"/>
  <unicode hex="029E"/>
  <anchor x="287" y="-492" name="bottom"/>
  <anchor x="625" y="1098" name="top"/>
  <outline>
    <contour>
      <point x="434" y="-492" type="line"/>
      <point x="616" y="-492" type="line"/>
      <point x="954" y="1098" type="line"/>
      <point x="772" y="1098" type="line"/>
      <point x="690" y="700" type="line"/>
      <point x="543" y="584" type="line"/>
      <point x="311" y="1098" type="line"/>
      <point x="113" y="1098" type="line"/>
      <point x="406" y="471" type="line"/>
      <point x="-66" y="0" type="line"/>
      <point x="147" y="0" type="line"/>
      <point x="668" y="530" type="line"/>
      <point x="672" y="530" type="line"/>
      <point x="659" y="492"/>
      <point x="623" y="379"/>
      <point x="575" y="160" type="curve" smooth="yes"/>
    </contour>
  </outline>
</glyph>
<glyph name="uni029F" format="2">
  <advance width="850"/>
  <unicode hex="029F"/>
  <anchor x="309" y="0" name="bottom"/>
  <anchor x="543" y="1098" name="top"/>
  <outline>
    <contour>
      <point x="57" y="0" type="line"/>
      <point x="705" y="0" type="line"/>
      <point x="735" y="150" type="line"/>
      <point x="268" y="150" type="line"/>
      <point x="471" y="1098" type="line"/>
      <point x="291" y="1098" type="line"/>
    </contour>
  </outline>
</glyph>
<glyph name="tslig" format="2">
  <advance width="1434"/>
  <unicode hex="02A6"/>
  <anchor x="600" y="0" name="bottom"/>
  <anchor x="887" y="1348" name="top"/>
  <outline>
    <contour>
      <point x="383" y="0" type="curve" smooth="yes"/>
      <point x="866" y="0" type="line" smooth="yes"/>
      <point x="1124" y="0"/>
      <point x="1292" y="96"/>
      <point x="1292" y="317" type="curve" smooth="yes"/>
      <point x="1292" y="471"/>
      <point x="1188" y="543"/>
      <point x="1049" y="625" type="curve"/>
      <point x="903" y="705"/>
      <point x="868" y="745"/>
      <point x="868" y="817" type="curve" smooth="yes"/>
      <point x="868" y="905"/>
      <point x="942" y="967"/>
      <point x="1061" y="967" type="curve" smooth="yes"/>
      <point x="1180" y="967"/>
      <point x="1264" y="932"/>
      <point x="1335" y="899" type="curve"/>
      <point x="1393" y="1042" type="line"/>
      <point x="1311" y="1081"/>
      <point x="1194" y="1118"/>
      <point x="1061" y="1118" type="curve" smooth="yes"/>
      <point x="1012" y="1118"/>
      <point x="967" y="1110"/>
      <point x="926" y="1098" type="curve"/>
      <point x="469" y="1098" type="line"/>
      <point x="524" y="1348" type="line"/>
      <point x="418" y="1348" type="line"/>
      <point x="291" y="1120" type="line"/>
      <point x="106" y="1042" type="line"/>
      <point x="90" y="961" type="line"/>
      <point x="260" y="961" type="line"/>
      <point x="139" y="385" type="line" smooth="yes"/>
      <point x="127" y="332"/>
      <point x="121" y="281"/>
      <point x="121" y="240" type="curve" smooth="yes"/>
      <point x="121" y="61"/>
      <point x="236" y="0"/>
    </contour>
    <contour>
      <point x="410" y="147" type="line"/>
      <point x="332" y="147"/>
      <point x="301" y="197"/>
      <point x="301" y="260" type="curve" smooth="yes"/>
      <point x="301" y="299"/>
      <point x="311" y="346"/>
      <point x="319" y="383" type="curve" smooth="yes"/>
      <point x="442" y="961" type="line"/>
      <point x="735" y="961" type="line"/>
      <point x="705" y="915"/>
      <point x="688" y="862"/>
      <point x="688" y="807" type="curve" smooth="yes"/>
      <point x="688" y="668"/>
      <point x="768" y="586"/>
      <point x="924" y="498" type="curve" smooth="yes"/>
      <point x="1065" y="418"/>
      <point x="1108" y="379"/>
      <point x="1108" y="299" type="curve" smooth="yes"/>
      <point x="1108" y="197"/>
      <point x="1022" y="147"/>
      <point x="860" y="147" type="curve" smooth="yes"/>
    </contour>
  </outline>
</glyph>
<glyph name="uni02AC" format="2">
  <advance width="1022"/>
  <unicode hex="02AC"/>
  <anchor x="395" y="0" name="bottom"/>
  <anchor x="707" y="1462" name="top"/>
  <outline>
    <contour>
      <point x="254" y="774" type="line"/>
      <point x="403" y="774" type="line"/>
      <point x="672" y="1288" type="line"/>
      <point x="717" y="774" type="line"/>
      <point x="862" y="774" type="line"/>
      <point x="1210" y="1462" type="line"/>
      <point x="1063" y="1462" type="line"/>
      <point x="817" y="942" type="line"/>
      <point x="774" y="1462" type="line"/>
      <point x="635" y="1462" type="line"/>
      <point x="367" y="944" type="line"/>
      <point x="336" y="1462" type="line"/>
      <point x="199" y="1462" type="line"/>
    </contour>
    <contour>
      <point x="90" y="0" type="line"/>
      <point x="242" y="0" type="line"/>
      <point x="508" y="514" type="line"/>
      <point x="553" y="0" type="line"/>
      <point x="698" y="0" type="line"/>
      <point x="1047" y="688" type="line"/>
      <point x="899" y="688" type="line"/>
      <point x="653" y="168" type="line"/>
      <point x="610" y="688" type="line"/>
      <point x="471" y="688" type="line"/>
      <point x="203" y="170" type="line"/>
      <point x="172" y="688" type="line"/>
      <point x="35" y="688" type="line"/>
    </contour>
  </outline>
</glyph>
<glyph name="uni02C0" format="2">
  <advance width="551"/>
  <unicode hex="02C0"/>
  <outline>
    <contour>
      <point x="246" y="950" type="line"/>
      <point x="367" y="950" type="line"/>
      <point x="389" y="1057" type="line"/>
      <point x="598" y="1112"/>
      <point x="694" y="1208"/>
      <point x="694" y="1352" type="curve" smooth="yes"/>
      <point x="694" y="1470"/>
      <point x="608" y="1569"/>
      <point x="438" y="1569" type="curve" smooth="yes"/>
      <point x="344" y="1569"/>
      <point x="262" y="1540"/>
      <point x="197" y="1501" type="curve"/>
      <point x="244" y="1399" type="line"/>
      <point x="303" y="1434"/>
      <point x="371" y="1458"/>
      <point x="430" y="1458" type="curve" smooth="yes"/>
      <point x="510" y="1458"/>
      <point x="555" y="1407"/>
      <point x="555" y="1346" type="curve" smooth="yes"/>
      <point x="555" y="1241"/>
      <point x="469" y="1169"/>
      <point x="285" y="1130" type="curve"/>
    </contour>
  </outline>
</glyph>
<glyph name="circumflex" format="2">
  <advance width="803"/>
  <unicode hex="02C6"/>
  <outline>
    <contour>
      <point x="236" y="1241" type="line"/>
      <point x="354" y="1241" type="line"/>
      <point x="426" y="1288"/>
      <point x="512" y="1354"/>
      <point x="594" y="1427" type="curve"/>
      <point x="649" y="1354"/>
      <point x="707" y="1284"/>
      <point x="756" y="1241" type="curve"/>
      <point x="868" y="1241" type="line"/>
      <point x="868" y="1268" type="line"/>
      <point x="817" y="1348"/>
      <point x="737" y="1462"/>
      <point x="696" y="1569" type="curve"/>
      <point x="522" y="1569" type="line"/>
      <point x="465" y="1477"/>
      <point x="305" y="1331"/>
      <point x="236" y="1268" type="curve"/>
    </contour>
  </outline>
</glyph>
<glyph name="macron" format="2">
  <advance width="715"/>
  <unicode hex="02C9"/>
  <outline>
    <contour>
      <point x="229" y="1241" type="line"/>
      <point x="780" y="1241" type="line"/>
      <point x="811" y="1386" type="line"/>
      <point x="260" y="1386" type="line"/>
    </contour>
  </outline>
</glyph>
<glyph name="uni02CC" format="2">
  <advance width="328"/>
  <unicode hex="02CC"/>
  <outline>
    <contour>
      <point x="-123" y="-418" type="line"/>
      <point x="39" y="-418" type="line"/>
      <point x="156" y="123" type="line"/>
      <point x="-6" y="123" type="line"/>
    </contour>
  </outline>
</glyph>
<glyph name="dotaccent" format="2">
  <advance width="379"/>
  <unicode hex="02D9"/>
  <outline>
    <contour>
      <point x="360" y="1280" type="curve"/>
      <point x="418" y="1280"/>
      <point x="477" y="1331"/>
      <point x="477" y="1415" type="curve"/>
      <point x="477" y="1473"/>
      <point x="446" y="1507"/>
      <point x="383" y="1507" type="curve"/>
      <point x="307" y="1507"/>
      <point x="262" y="1446"/>
      <point x="262" y="1376" type="curve"/>
      <point x="262" y="1315"/>
      <point x="305" y="1280"/>
    </contour>
  </outline>
</glyph>
<glyph name="ogonek" format="2">
  <advance width="500"/>
  <unicode hex="02DB"/>
  <outline>
    <contour>
      <point x="94" y="-444" type="curve"/>
      <point x="131" y="-444"/>
      <point x="174" y="-440"/>
      <point x="209" y="-430" type="curve"/>
      <point x="209" y="-317" type="line"/>
      <point x="184" y="-322"/>
      <point x="156" y="-326"/>
      <point x="127" y="-326" type="curve"/>
      <point x="86" y="-326"/>
      <point x="59" y="-305"/>
      <point x="59" y="-258" type="curve"/>
      <point x="59" y="-150"/>
      <point x="170" y="-63"/>
      <point x="250" y="0" type="curve"/>
      <point x="125" y="0" type="line"/>
      <point x="2" y="-76"/>
      <point x="-88" y="-154"/>
      <point x="-88" y="-281" type="curve"/>
      <point x="-88" y="-393"/>
      <point x="-10" y="-444"/>
    </contour>
  </outline>
</glyph>
<glyph name="uni02F3" format="2">
  <advance width="682"/>
  <unicode hex="02F3"/>
  <outline>
    <contour>
      <point x="150" y="-553" type="curve"/>
      <point x="279" y="-553"/>
      <point x="379" y="-475"/>
      <point x="379" y="-338" type="curve"/>
      <point x="379" y="-205"/>
      <point x="276" y="-125"/>
      <point x="150" y="-125" type="curve"/>
      <point x="16" y="-125"/>
      <point x="-72" y="-205"/>
      <point x="-72" y="-340" type="curve"/>
      <point x="-72" y="-475"/>
      <point x="16" y="-553"/>
    </contour>
    <contour>
      <point x="150" y="-453" type="curve"/>
      <point x="74" y="-453"/>
      <point x="37" y="-410"/>
      <point x="37" y="-340" type="curve"/>
      <point x="37" y="-270"/>
      <point x="82" y="-227"/>
      <point x="150" y="-227" type="curve"/>
      <point x="215" y="-227"/>
      <point x="262" y="-270"/>
      <point x="262" y="-340" type="curve"/>
      <point x="262" y="-410"/>
      <point x="215" y="-453"/>
    </contour>
  </outline>
</glyph>
<glyph name="downtackbelowcomb" format="2">
  <unicode hex="031E"/>
  <anchor x="-80" y="0" name="_bottom"/>
  <anchor x="-133" y="-426" name="bottom"/>
  <outline>
    <contour>
      <point x="-260" y="-426" type="line"/>
      <point x="-125" y="-426" type="line"/>
      <point x="-82" y="-221" type="line"/>
      <point x="66" y="-221" type="line"/>
      <point x="90" y="-98" type="line"/>
      <point x="-338" y="-98" type="line"/>
      <point x="-362" y="-221" type="line"/>
      <point x="-215" y="-221" type="line"/>
    </contour>
  </outline>
</glyph>
<glyph name="slashlongoverlaycomb" format="2">
  <unicode hex="0338"/>
  <anchor x="4" y="717" name="_center"/>
  <outline>
    <contour>
      <point x="-555" y="-119" type="line"/>
      <point x="-395" y="-119" type="line"/>
      <point x="561" y="1552" type="line"/>
      <point x="401" y="1552" type="line"/>
    </contour>
  </outline>
</glyph>
<glyph name="squarebelowcomb" format="2">
  <unicode hex="033B"/>
  <anchor x="-113" y="0" name="_bottom"/>
  <anchor x="-164" y="-467" name="bottom"/>
  <outline>
    <contour>
      <point x="-559" y="-467" type="line"/>
      <point x="135" y="-467" type="line"/>
      <point x="223" y="-57" type="line"/>
      <point x="-471" y="-57" type="line"/>
    </contour>
    <contour>
      <point x="-422" y="-358" type="line"/>
      <point x="-381" y="-166" type="line"/>
      <point x="84" y="-166" type="line"/>
      <point x="43" y="-358" type="line"/>
    </contour>
  </outline>
</glyph>
<glyph name="doublemacroncomb" format="2">
  <unicode hex="035E"/>
  <anchor x="444" y="1098" name="_top"/>
  <anchor x="496" y="1386" name="top"/>
  <outline>
    <contour>
      <point x="-29" y="1241" type="line"/>
      <point x="979" y="1241" type="line"/>
      <point x="1010" y="1386" type="line"/>
      <point x="2" y="1386" type="line"/>
    </contour>
  </outline>
</glyph>
<glyph name="archaicsampi" format="2">
  <advance width="1024"/>
  <unicode hex="0373"/>
  <anchor x="395" y="0" name="bottom"/>
  <anchor x="727" y="1563" name="top"/>
  <outline>
    <contour>
      <point x="303" y="0" type="line"/>
      <point x="487" y="0" type="line"/>
      <point x="788" y="1417" type="line"/>
      <point x="1079" y="1417" type="line"/>
      <point x="1110" y="1563" type="line"/>
      <point x="342" y="1563" type="line"/>
      <point x="311" y="1417" type="line"/>
      <point x="604" y="1417" type="line"/>
    </contour>
    <contour>
      <point x="174" y="1081" type="line"/>
      <point x="330" y="1081" type="line"/>
      <point x="432" y="1563" type="line"/>
      <point x="276" y="1563" type="line"/>
    </contour>
    <contour>
      <point x="918" y="1081" type="line"/>
      <point x="1073" y="1081" type="line"/>
      <point x="1176" y="1563" type="line"/>
      <point x="1020" y="1563" type="line"/>
    </contour>
  </outline>
</glyph>
<glyph name="pamphyliandigamma" format="2">
  <advance width="1241"/>
  <unicode hex="0377"/>
  <anchor x="504" y="0" name="bottom"/>
  <anchor x="737" y="1098" name="top"/>
  <outline>
    <contour>
      <point x="57" y="0" type="line"/>
      <point x="281" y="0" type="line"/>
      <point x="983" y="918" type="line"/>
      <point x="969" y="864"/>
      <point x="930" y="711"/>
      <point x="915" y="647" type="curve" smooth="yes"/>
      <point x="778" y="0" type="line"/>
      <point x="948" y="0" type="line"/>
      <point x="1182" y="1098" type="line"/>
      <point x="961" y="1098" type="line"/>
      <point x="254" y="178" type="line"/>
      <point x="268" y="233"/>
      <point x="309" y="377"/>
      <point x="319" y="428" type="curve" smooth="yes"/>
      <point x="463" y="1098" type="line"/>
      <point x="291" y="1098" type="line"/>
    </contour>
  </outline>
</glyph>
<glyph name="Sigma" format="2">
  <advance width="1071"/>
  <unicode hex="03A3"/>
  <anchor x="420" y="0" name="bottom"/>
  <anchor x="731" y="1462" name="top"/>
  <outline>
    <contour>
      <point x="-31" y="0" type="line"/>
      <point x="901" y="0" type="line"/>
      <point x="936" y="162" type="line"/>
      <point x="215" y="162" type="line"/>
      <point x="725" y="741" type="line"/>
      <point x="455" y="1300" type="line"/>
      <point x="1118" y="1300" type="line"/>
      <point x="1153" y="1462" type="line"/>
      <point x="287" y="1462" type="line"/>
      <point x="258" y="1317" type="line"/>
      <point x="532" y="756" type="line"/>
      <point x="-2" y="150" type="line"/>
    </contour>
  </outline>
</glyph>
<glyph name="beta" format="2">
  <advance width="1190"/>
  <unicode hex="03B2"/>
  <anchor x="614" y="0" name="bottom"/>
  <anchor x="813" y="1567" name="top"/>
  <anchor x="1366" y="1567" name="topright"/>
  <outline>
    <contour>
      <point x="-47" y="-492" type="line"/>
      <point x="133" y="-492" type="line"/>
      <point x="258" y="90" type="line"/>
      <point x="326" y="39"/>
      <point x="414" y="-20"/>
      <point x="571" y="-20" type="curve" smooth="yes"/>
      <point x="887" y="-20"/>
      <point x="1063" y="193"/>
      <point x="1063" y="473" type="curve" smooth="yes"/>
      <point x="1063" y="678"/>
      <point x="948" y="780"/>
      <point x="807" y="811" type="curve"/>
      <point x="1038" y="862"/>
      <point x="1159" y="1004"/>
      <point x="1159" y="1221" type="curve" smooth="yes"/>
      <point x="1159" y="1438"/>
      <point x="1020" y="1567"/>
      <point x="788" y="1567" type="curve" smooth="yes"/>
      <point x="461" y="1567"/>
      <point x="346" y="1352"/>
      <point x="291" y="1096" type="curve" smooth="yes"/>
    </contour>
    <contour>
      <point x="557" y="127" type="curve" smooth="yes"/>
      <point x="455" y="127"/>
      <point x="350" y="162"/>
      <point x="285" y="213" type="curve"/>
      <point x="471" y="1090" type="line" smooth="yes"/>
      <point x="508" y="1264"/>
      <point x="575" y="1419"/>
      <point x="770" y="1419" type="curve" smooth="yes"/>
      <point x="909" y="1419"/>
      <point x="975" y="1327"/>
      <point x="975" y="1208" type="curve" smooth="yes"/>
      <point x="975" y="1026"/>
      <point x="877" y="891"/>
      <point x="635" y="891" type="curve" smooth="yes"/>
      <point x="563" y="891" type="line"/>
      <point x="530" y="739" type="line"/>
      <point x="596" y="739" type="line" smooth="yes"/>
      <point x="809" y="739"/>
      <point x="887" y="629"/>
      <point x="887" y="465" type="curve" smooth="yes"/>
      <point x="887" y="293"/>
      <point x="780" y="127"/>
    </contour>
  </outline>
</glyph>
<glyph name="pi" format="2">
  <advance width="1249"/>
  <unicode hex="03C0"/>
  <anchor x="508" y="0" name="bottom"/>
  <anchor x="741" y="1098" name="top"/>
  <outline>
    <contour>
      <point x="909" y="-20" type="curve" smooth="yes"/>
      <point x="963" y="-20"/>
      <point x="1014" y="-8"/>
      <point x="1053" y="4" type="curve"/>
      <point x="1053" y="143" type="line"/>
      <point x="1030" y="135"/>
      <point x="997" y="127"/>
      <point x="965" y="127" type="curve" smooth="yes"/>
      <point x="922" y="127"/>
      <point x="899" y="152"/>
      <point x="899" y="193" type="curve" smooth="yes"/>
      <point x="899" y="213"/>
      <point x="903" y="250"/>
      <point x="911" y="287" type="curve" smooth="yes"/>
      <point x="1047" y="944" type="line"/>
      <point x="1260" y="944" type="line"/>
      <point x="1290" y="1098" type="line"/>
      <point x="289" y="1098" type="line"/>
      <point x="92" y="1018" type="line"/>
      <point x="78" y="944" type="line"/>
      <point x="301" y="944" type="line"/>
      <point x="96" y="0" type="line"/>
      <point x="279" y="0" type="line"/>
      <point x="483" y="944" type="line"/>
      <point x="866" y="944" type="line"/>
      <point x="733" y="301" type="line" smooth="yes"/>
      <point x="721" y="238"/>
      <point x="715" y="195"/>
      <point x="715" y="160" type="curve" smooth="yes"/>
      <point x="715" y="49"/>
      <point x="784" y="-20"/>
    </contour>
  </outline>
</glyph>
<glyph name="chi" format="2">
  <advance width="1038"/>
  <unicode hex="03C7"/>
  <anchor x="299" y="-492" name="bottom"/>
  <anchor x="637" y="1098" name="top"/>
  <anchor x="1114" y="1098" name="topright"/>
  <outline>
    <contour>
      <point x="-231" y="-492" type="line"/>
      <point x="-29" y="-492" type="line"/>
      <point x="420" y="152" type="line"/>
      <point x="465" y="-211" type="line" smooth="yes"/>
      <point x="485" y="-371"/>
      <point x="535" y="-492"/>
      <point x="705" y="-492" type="curve" smooth="yes"/>
      <point x="756" y="-492"/>
      <point x="803" y="-481"/>
      <point x="840" y="-469" type="curve"/>
      <point x="840" y="-334" type="line"/>
      <point x="815" y="-340"/>
      <point x="786" y="-346"/>
      <point x="758" y="-346" type="curve" smooth="yes"/>
      <point x="674" y="-346"/>
      <point x="647" y="-293"/>
      <point x="631" y="-186" type="curve" smooth="yes"/>
      <point x="563" y="309" type="line"/>
      <point x="1114" y="1098" type="line"/>
      <point x="924" y="1098" type="line"/>
      <point x="522" y="508" type="line"/>
      <point x="483" y="846" type="line" smooth="yes"/>
      <point x="463" y="1004"/>
      <point x="408" y="1102"/>
      <point x="252" y="1102" type="curve" smooth="yes"/>
      <point x="205" y="1102"/>
      <point x="150" y="1090"/>
      <point x="113" y="1073" type="curve"/>
      <point x="145" y="940" type="line"/>
      <point x="168" y="946"/>
      <point x="190" y="954"/>
      <point x="213" y="954" type="curve" smooth="yes"/>
      <point x="274" y="954"/>
      <point x="307" y="918"/>
      <point x="319" y="813" type="curve" smooth="yes"/>
      <point x="379" y="346" type="line"/>
    </contour>
  </outline>
</glyph>
<glyph name="uni03D8" format="2">
  <advance width="1415"/>
  <unicode hex="03D8"/>
  <anchor x="592" y="0" name="bottom"/>
  <anchor x="903" y="1462" name="top"/>
  <outline>
    <contour>
      <point x="504" y="0" type="line"/>
      <point x="686" y="0" type="line"/>
      <point x="739" y="258" type="line"/>
      <point x="1098" y="272"/>
      <point x="1389" y="518"/>
      <point x="1389" y="956" type="curve" smooth="yes"/>
      <point x="1389" y="1268"/>
      <point x="1206" y="1485"/>
      <point x="860" y="1485" type="curve" smooth="yes"/>
      <point x="369" y="1485"/>
      <point x="156" y="1135"/>
      <point x="156" y="784" type="curve" smooth="yes"/>
      <point x="156" y="502"/>
      <point x="334" y="317"/>
      <point x="561" y="272" type="curve"/>
    </contour>
    <contour>
      <point x="719" y="420" type="curve" smooth="yes"/>
      <point x="489" y="420"/>
      <point x="350" y="537"/>
      <point x="350" y="813" type="curve" smooth="yes"/>
      <point x="350" y="1065"/>
      <point x="489" y="1323"/>
      <point x="834" y="1323" type="curve" smooth="yes"/>
      <point x="1057" y="1323"/>
      <point x="1194" y="1192"/>
      <point x="1194" y="954" type="curve" smooth="yes"/>
      <point x="1194" y="655"/>
      <point x="1055" y="420"/>
    </contour>
  </outline>
</glyph>
<glyph name="uni03D9" format="2">
  <advance width="1153"/>
  <unicode hex="03D9"/>
  <anchor x="356" y="-492" name="bottom"/>
  <anchor x="694" y="1098" name="top"/>
  <outline>
    <contour>
      <point x="270" y="-492" type="line"/>
      <point x="451" y="-492" type="line"/>
      <point x="553" y="-14" type="line"/>
      <point x="887" y="14"/>
      <point x="1057" y="369"/>
      <point x="1057" y="688" type="curve" smooth="yes"/>
      <point x="1057" y="950"/>
      <point x="903" y="1112"/>
      <point x="647" y="1112" type="curve" smooth="yes"/>
      <point x="285" y="1112"/>
      <point x="98" y="741"/>
      <point x="98" y="406" type="curve" smooth="yes"/>
      <point x="98" y="195"/>
      <point x="201" y="47"/>
      <point x="377" y="0" type="curve"/>
    </contour>
    <contour>
      <point x="518" y="133" type="curve" smooth="yes"/>
      <point x="367" y="133"/>
      <point x="281" y="229"/>
      <point x="281" y="399" type="curve" smooth="yes"/>
      <point x="281" y="705"/>
      <point x="422" y="963"/>
      <point x="649" y="963" type="curve" smooth="yes"/>
      <point x="813" y="963"/>
      <point x="872" y="829"/>
      <point x="872" y="709" type="curve" smooth="yes"/>
      <point x="872" y="346"/>
      <point x="713" y="133"/>
    </contour>
  </outline>
</glyph>
<glyph name="uni03DA" format="2">
  <advance width="1196"/>
  <unicode hex="03DA"/>
  <anchor x="481" y="0" name="bottom"/>
  <anchor x="793" y="1462" name="top"/>
  <outline>
    <contour>
      <point x="600" y="0" type="line"/>
      <point x="786" y="0" type="line"/>
      <point x="883" y="459" type="line"/>
      <point x="795" y="459" type="line" smooth="yes"/>
      <point x="500" y="459"/>
      <point x="391" y="571"/>
      <point x="391" y="799" type="curve" smooth="yes"/>
      <point x="391" y="1096"/>
      <point x="612" y="1321"/>
      <point x="926" y="1321" type="curve" smooth="yes"/>
      <point x="1042" y="1321"/>
      <point x="1130" y="1294"/>
      <point x="1214" y="1249" type="curve"/>
      <point x="1288" y="1401" type="line"/>
      <point x="1190" y="1454"/>
      <point x="1083" y="1483"/>
      <point x="926" y="1483" type="curve" smooth="yes"/>
      <point x="496" y="1483"/>
      <point x="197" y="1192"/>
      <point x="197" y="784" type="curve" smooth="yes"/>
      <point x="197" y="494"/>
      <point x="381" y="319"/>
      <point x="664" y="307" type="curve"/>
    </contour>
  </outline>
</glyph>
<glyph name="afii10059" format="2">
  <advance width="1853"/>
  <unicode hex="040A"/>
  <anchor x="811" y="0" name="bottom"/>
  <anchor x="1122" y="1462" name="top"/>
  <outline>
    <contour>
      <point x="84" y="0" type="line"/>
      <point x="266" y="0" type="line"/>
      <point x="410" y="684" type="line"/>
      <point x="967" y="684" type="line"/>
      <point x="823" y="0" type="line"/>
      <point x="1159" y="0" type="line"/>
      <point x="1497" y="0"/>
      <point x="1735" y="150"/>
      <point x="1735" y="483" type="curve" smooth="yes"/>
      <point x="1735" y="682"/>
      <point x="1632" y="846"/>
      <point x="1292" y="846" type="curve" smooth="yes"/>
      <point x="1184" y="846" type="line"/>
      <point x="1315" y="1462" type="line"/>
      <point x="1133" y="1462" type="line"/>
      <point x="1001" y="846" type="line"/>
      <point x="444" y="846" type="line"/>
      <point x="575" y="1462" type="line"/>
      <point x="393" y="1462" type="line"/>
    </contour>
    <contour>
      <point x="1038" y="156" type="line"/>
      <point x="1153" y="684" type="line"/>
      <point x="1290" y="684" type="line" smooth="yes"/>
      <point x="1452" y="684"/>
      <point x="1546" y="629"/>
      <point x="1546" y="467" type="curve" smooth="yes"/>
      <point x="1546" y="262"/>
      <point x="1425" y="156"/>
      <point x="1186" y="156" type="curve" smooth="yes"/>
    </contour>
  </outline>
</glyph>
<glyph name="afii10024" format="2">
  <advance width="1606"/>
  <unicode hex="0416"/>
  <anchor x="686" y="0" name="bottom"/>
  <anchor x="0" y="0" name="bottomright"/>
  <anchor x="1004" y="1462" name="top"/>
  <outline>
    <contour>
      <point x="-102" y="0" type="line"/>
      <point x="119" y="0" type="line"/>
      <point x="760" y="729" type="line"/>
      <point x="606" y="0" type="line"/>
      <point x="782" y="0" type="line"/>
      <point x="936" y="729" type="line"/>
      <point x="1290" y="0" type="line"/>
      <point x="1493" y="0" type="line"/>
      <point x="1124" y="729" type="line"/>
      <point x="1790" y="1462" type="line"/>
      <point x="1573" y="1462" type="line"/>
      <point x="944" y="766" type="line"/>
      <point x="1092" y="1462" type="line"/>
      <point x="915" y="1462" type="line"/>
      <point x="768" y="766" type="line"/>
      <point x="416" y="1462" type="line"/>
      <point x="219" y="1462" type="line"/>
      <point x="575" y="770" type="line"/>
    </contour>
  </outline>
</glyph>
<glyph name="afii10025" format="2">
  <advance width="1102"/>
  <unicode hex="0417"/>
  <anchor x="434" y="0" name="bottom"/>
  <anchor x="745" y="1462" name="top"/>
  <outline>
    <contour>
      <point x="393" y="-20" type="curve" smooth="yes"/>
      <point x="788" y="-20"/>
      <point x="983" y="184"/>
      <point x="983" y="430" type="curve" smooth="yes"/>
      <point x="983" y="621"/>
      <point x="862" y="727"/>
      <point x="698" y="752" type="curve"/>
      <point x="698" y="756" type="line"/>
      <point x="932" y="803"/>
      <point x="1075" y="950"/>
      <point x="1075" y="1157" type="curve" smooth="yes"/>
      <point x="1075" y="1354"/>
      <point x="934" y="1483"/>
      <point x="698" y="1483" type="curve" smooth="yes"/>
      <point x="510" y="1483"/>
      <point x="373" y="1436"/>
      <point x="233" y="1343" type="curve"/>
      <point x="307" y="1212" type="line"/>
      <point x="420" y="1284"/>
      <point x="539" y="1331"/>
      <point x="662" y="1331" type="curve" smooth="yes"/>
      <point x="799" y="1331"/>
      <point x="887" y="1268"/>
      <point x="887" y="1133" type="curve" smooth="yes"/>
      <point x="887" y="909"/>
      <point x="684" y="829"/>
      <point x="485" y="829" type="curve" smooth="yes"/>
      <point x="291" y="829" type="line"/>
      <point x="260" y="680" type="line"/>
      <point x="469" y="680" type="line" smooth="yes"/>
      <point x="674" y="680"/>
      <point x="791" y="606"/>
      <point x="791" y="438" type="curve" smooth="yes"/>
      <point x="791" y="274"/>
      <point x="674" y="131"/>
      <point x="403" y="131" type="curve" smooth="yes"/>
      <point x="252" y="131"/>
      <point x="96" y="176"/>
      <point x="-2" y="233" type="curve"/>
      <point x="-2" y="59" type="line"/>
      <point x="111" y="4"/>
      <point x="236" y="-20"/>
    </contour>
  </outline>
</glyph>
<glyph name="afii10026" format="2">
  <advance width="1438"/>
  <unicode hex="0418"/>
  <anchor x="602" y="0" name="bottom"/>
  <anchor x="913" y="1462" name="top"/>
  <outline>
    <contour>
      <point x="84" y="0" type="line"/>
      <point x="297" y="0" type="line"/>
      <point x="1227" y="1219" type="line"/>
      <point x="1231" y="1219" type="line"/>
      <point x="1206" y="1128"/>
      <point x="1169" y="952"/>
      <point x="1139" y="813" type="curve" smooth="yes"/>
      <point x="967" y="0" type="line"/>
      <point x="1139" y="0" type="line"/>
      <point x="1448" y="1462" type="line"/>
      <point x="1235" y="1462" type="line"/>
      <point x="309" y="264" type="line"/>
      <point x="305" y="264" type="line"/>
      <point x="324" y="336"/>
      <point x="369" y="535"/>
      <point x="395" y="657" type="curve" smooth="yes"/>
      <point x="567" y="1462" type="line"/>
      <point x="393" y="1462" type="line"/>
    </contour>
  </outline>
</glyph>
<glyph name="afii10040" format="2">
  <advance width="1374"/>
  <unicode hex="0426"/>
  <anchor x="489" y="-383" name="bottom"/>
  <anchor x="883" y="1462" name="top"/>
  <outline>
    <contour>
      <point x="977" y="-383" type="line"/>
      <point x="1151" y="-383" type="line"/>
      <point x="1270" y="164" type="line"/>
      <point x="1100" y="164" type="line"/>
      <point x="1374" y="1462" type="line"/>
      <point x="1190" y="1462" type="line"/>
      <point x="915" y="164" type="line"/>
      <point x="301" y="164" type="line"/>
      <point x="575" y="1462" type="line"/>
      <point x="391" y="1462" type="line"/>
      <point x="82" y="0" type="line"/>
      <point x="1059" y="0" type="line"/>
    </contour>
  </outline>
</glyph>
<glyph name="afii10045" format="2">
  <advance width="1622"/>
  <unicode hex="042B"/>
  <anchor x="694" y="0" name="bottom"/>
  <anchor x="1014" y="1462" name="top"/>
  <outline>
    <contour>
      <point x="84" y="0" type="line"/>
      <point x="442" y="0" type="line"/>
      <point x="782" y="0"/>
      <point x="1020" y="150"/>
      <point x="1020" y="481" type="curve" smooth="yes"/>
      <point x="1020" y="682"/>
      <point x="918" y="844"/>
      <point x="575" y="844" type="curve" smooth="yes"/>
      <point x="444" y="844" type="line"/>
      <point x="575" y="1462" type="line"/>
      <point x="393" y="1462" type="line"/>
    </contour>
    <contour>
      <point x="299" y="156" type="line"/>
      <point x="412" y="686" type="line"/>
      <point x="575" y="686" type="line" smooth="yes"/>
      <point x="735" y="686"/>
      <point x="831" y="629"/>
      <point x="831" y="467" type="curve" smooth="yes"/>
      <point x="831" y="262"/>
      <point x="711" y="156"/>
      <point x="469" y="156" type="curve" smooth="yes"/>
    </contour>
    <contour>
      <point x="1141" y="0" type="line"/>
      <point x="1323" y="0" type="line"/>
      <point x="1632" y="1462" type="line"/>
      <point x="1450" y="1462" type="line"/>
    </contour>
  </outline>
</glyph>
<glyph name="afii10047" format="2">
  <advance width="1200"/>
  <unicode hex="042D"/>
  <anchor x="485" y="0" name="bottom"/>
  <anchor x="797" y="1462" name="top"/>
  <outline>
    <contour>
      <point x="367" y="-20" type="curve" smooth="yes"/>
      <point x="936" y="-20"/>
      <point x="1139" y="449"/>
      <point x="1139" y="934" type="curve" smooth="yes"/>
      <point x="1139" y="1292"/>
      <point x="940" y="1483"/>
      <point x="623" y="1483" type="curve" smooth="yes"/>
      <point x="471" y="1483"/>
      <point x="336" y="1446"/>
      <point x="236" y="1409" type="curve"/>
      <point x="283" y="1257" type="line"/>
      <point x="377" y="1290"/>
      <point x="475" y="1321"/>
      <point x="604" y="1321" type="curve" smooth="yes"/>
      <point x="834" y="1321"/>
      <point x="946" y="1161"/>
      <point x="946" y="934" type="curve" smooth="yes"/>
      <point x="946" y="895"/>
      <point x="944" y="870"/>
      <point x="944" y="846" type="curve"/>
      <point x="340" y="846" type="line"/>
      <point x="307" y="684" type="line"/>
      <point x="924" y="684" type="line"/>
      <point x="866" y="354"/>
      <point x="692" y="141"/>
      <point x="377" y="141" type="curve" smooth="yes"/>
      <point x="227" y="141"/>
      <point x="129" y="184"/>
      <point x="18" y="236" type="curve"/>
      <point x="18" y="59" type="line"/>
      <point x="125" y="4"/>
      <point x="231" y="-20"/>
    </contour>
  </outline>
</glyph>
<glyph name="afii10091" format="2">
  <advance width="1829"/>
  <unicode hex="0449"/>
  <anchor x="799" y="0" name="bottom"/>
  <anchor x="1032" y="1098" name="top"/>
  <outline>
    <contour>
      <point x="1413" y="-381" type="line"/>
      <point x="1593" y="-381" type="line"/>
      <point x="1710" y="139" type="line"/>
      <point x="1692" y="135"/>
      <point x="1665" y="125"/>
      <point x="1630" y="125" type="curve" smooth="yes"/>
      <point x="1583" y="125"/>
      <point x="1554" y="152"/>
      <point x="1554" y="203" type="curve" smooth="yes"/>
      <point x="1554" y="231"/>
      <point x="1561" y="279"/>
      <point x="1569" y="324" type="curve" smooth="yes"/>
      <point x="1733" y="1098" type="line"/>
      <point x="1552" y="1098" type="line"/>
      <point x="1452" y="625" type="line" smooth="yes"/>
      <point x="1378" y="264"/>
      <point x="1200" y="131"/>
      <point x="1065" y="131" type="curve" smooth="yes"/>
      <point x="969" y="131"/>
      <point x="932" y="182"/>
      <point x="932" y="274" type="curve" smooth="yes"/>
      <point x="932" y="305"/>
      <point x="938" y="348"/>
      <point x="950" y="408" type="curve"/>
      <point x="1098" y="1098" type="line"/>
      <point x="918" y="1098" type="line"/>
      <point x="811" y="602" type="line" smooth="yes"/>
      <point x="741" y="270"/>
      <point x="563" y="131"/>
      <point x="432" y="131" type="curve"/>
      <point x="336" y="131"/>
      <point x="293" y="184"/>
      <point x="293" y="266" type="curve" smooth="yes"/>
      <point x="293" y="307"/>
      <point x="301" y="348"/>
      <point x="313" y="408" type="curve" smooth="yes"/>
      <point x="459" y="1098" type="line"/>
      <point x="276" y="1098" type="line"/>
      <point x="135" y="430" type="line" smooth="yes"/>
      <point x="123" y="367"/>
      <point x="113" y="315"/>
      <point x="113" y="250" type="curve"/>
      <point x="113" y="76"/>
      <point x="209" y="-20"/>
      <point x="379" y="-20" type="curve" smooth="yes"/>
      <point x="549" y="-20"/>
      <point x="674" y="102"/>
      <point x="756" y="223" type="curve"/>
      <point x="764" y="223" type="line"/>
      <point x="780" y="72"/>
      <point x="862" y="-20"/>
      <point x="1012" y="-20" type="curve" smooth="yes"/>
      <point x="1178" y="-20"/>
      <point x="1292" y="94"/>
      <point x="1364" y="199" type="curve"/>
      <point x="1370" y="199" type="line"/>
      <point x="1372" y="70"/>
      <point x="1411" y="8"/>
      <point x="1493" y="-14" type="curve"/>
    </contour>
  </outline>
</glyph>
<glyph name="afii10096" format="2">
  <advance width="1610"/>
  <unicode hex="044E"/>
  <anchor x="688" y="0" name="bottom"/>
  <anchor x="922" y="1098" name="top"/>
  <outline>
    <contour>
      <point x="983" y="-16" type="curve" smooth="yes"/>
      <point x="1325" y="-16"/>
      <point x="1509" y="334"/>
      <point x="1509" y="688" type="curve" smooth="yes"/>
      <point x="1509" y="936"/>
      <point x="1378" y="1112"/>
      <point x="1118" y="1112" type="curve" smooth="yes"/>
      <point x="891" y="1112"/>
      <point x="705" y="954"/>
      <point x="618" y="641" type="curve"/>
      <point x="375" y="641" type="line"/>
      <point x="469" y="1098" type="line"/>
      <point x="291" y="1098" type="line"/>
      <point x="57" y="0" type="line"/>
      <point x="238" y="0" type="line"/>
      <point x="342" y="492" type="line"/>
      <point x="594" y="492" type="line"/>
      <point x="594" y="475"/>
      <point x="592" y="440"/>
      <point x="592" y="406" type="curve" smooth="yes"/>
      <point x="592" y="160"/>
      <point x="725" y="-16"/>
    </contour>
    <contour>
      <point x="995" y="133" type="curve" smooth="yes"/>
      <point x="844" y="133"/>
      <point x="774" y="242"/>
      <point x="774" y="399" type="curve" smooth="yes"/>
      <point x="774" y="666"/>
      <point x="885" y="963"/>
      <point x="1116" y="963" type="curve" smooth="yes"/>
      <point x="1249" y="963"/>
      <point x="1325" y="860"/>
      <point x="1325" y="709" type="curve" smooth="yes"/>
      <point x="1325" y="360"/>
      <point x="1180" y="133"/>
    </contour>
  </outline>
</glyph>
<glyph name="afii10107" format="2">
  <advance width="1675"/>
  <unicode hex="045A"/>
  <anchor x="721" y="0" name="bottom"/>
  <anchor x="954" y="1098" name="top"/>
  <outline>
    <contour>
      <point x="1114" y="-20" type="curve" smooth="yes"/>
      <point x="1411" y="-20"/>
      <point x="1546" y="154"/>
      <point x="1546" y="354" type="curve" smooth="yes"/>
      <point x="1546" y="539"/>
      <point x="1434" y="645"/>
      <point x="1208" y="645" type="curve" smooth="yes"/>
      <point x="1130" y="645"/>
      <point x="1053" y="633"/>
      <point x="989" y="621" type="curve"/>
      <point x="1092" y="1098" type="line"/>
      <point x="911" y="1098" type="line"/>
      <point x="813" y="641" type="line"/>
      <point x="375" y="641" type="line"/>
      <point x="471" y="1098" type="line"/>
      <point x="293" y="1098" type="line"/>
      <point x="57" y="0" type="line"/>
      <point x="240" y="0" type="line"/>
      <point x="342" y="492" type="line"/>
      <point x="780" y="492" type="line"/>
      <point x="766" y="428"/>
      <point x="756" y="352"/>
      <point x="756" y="295" type="curve" smooth="yes"/>
      <point x="756" y="80"/>
      <point x="895" y="-20"/>
    </contour>
    <contour>
      <point x="1126" y="127" type="curve" smooth="yes"/>
      <point x="987" y="127"/>
      <point x="934" y="199"/>
      <point x="934" y="309" type="curve" smooth="yes"/>
      <point x="934" y="350"/>
      <point x="940" y="395"/>
      <point x="956" y="477" type="curve"/>
      <point x="1022" y="489"/>
      <point x="1092" y="498"/>
      <point x="1159" y="498" type="curve" smooth="yes"/>
      <point x="1296" y="498"/>
      <point x="1366" y="457"/>
      <point x="1366" y="340" type="curve" smooth="yes"/>
      <point x="1366" y="229"/>
      <point x="1296" y="127"/>
    </contour>
  </outline>
</glyph>
<glyph name="uni0462" format="2">
  <advance width="1204"/>
  <unicode hex="0462"/>
  <anchor x="487" y="0" name="bottom"/>
  <anchor x="799" y="1462" name="top"/>
  <outline>
    <contour>
      <point x="152" y="0" type="line"/>
      <point x="453" y="0" type="line" smooth="yes"/>
      <point x="862" y="0"/>
      <point x="1087" y="170"/>
      <point x="1087" y="481" type="curve" smooth="yes"/>
      <point x="1087" y="700"/>
      <point x="963" y="844"/>
      <point x="649" y="844" type="curve" smooth="yes"/>
      <point x="512" y="844" type="line"/>
      <point x="569" y="1100" type="line"/>
      <point x="952" y="1100" type="line"/>
      <point x="985" y="1255" type="line"/>
      <point x="600" y="1255" type="line"/>
      <point x="647" y="1462" type="line"/>
      <point x="463" y="1462" type="line"/>
      <point x="418" y="1255" type="line"/>
      <point x="176" y="1255" type="line"/>
      <point x="143" y="1100" type="line"/>
      <point x="385" y="1100" type="line"/>
    </contour>
    <contour>
      <point x="367" y="158" type="line"/>
      <point x="479" y="682" type="line"/>
      <point x="625" y="682" type="line" smooth="yes"/>
      <point x="809" y="682"/>
      <point x="901" y="621"/>
      <point x="901" y="473" type="curve" smooth="yes"/>
      <point x="901" y="254"/>
      <point x="731" y="158"/>
      <point x="481" y="158" type="curve" smooth="yes"/>
    </contour>
  </outline>
</glyph>
<glyph name="uni0465" format="2">
  <advance width="1419"/>
  <unicode hex="0465"/>
  <anchor x="594" y="0" name="bottom"/>
  <anchor x="827" y="1098" name="top"/>
  <outline>
    <contour>
      <point x="995" y="-20" type="curve"/>
      <point x="1110" y="-20"/>
      <point x="1202" y="6"/>
      <point x="1276" y="45" type="curve"/>
      <point x="1276" y="197" type="line"/>
      <point x="1196" y="160"/>
      <point x="1120" y="129"/>
      <point x="1016" y="129" type="curve"/>
      <point x="862" y="129"/>
      <point x="770" y="231"/>
      <point x="770" y="391" type="curve"/>
      <point x="770" y="422"/>
      <point x="770" y="442"/>
      <point x="776" y="487" type="curve"/>
      <point x="1233" y="487" type="line"/>
      <point x="1268" y="639" type="line"/>
      <point x="807" y="639" type="line"/>
      <point x="868" y="840"/>
      <point x="995" y="967"/>
      <point x="1163" y="967" type="curve"/>
      <point x="1251" y="967"/>
      <point x="1327" y="940"/>
      <point x="1382" y="915" type="curve"/>
      <point x="1434" y="1065" type="line"/>
      <point x="1352" y="1098"/>
      <point x="1257" y="1118"/>
      <point x="1159" y="1118" type="curve"/>
      <point x="864" y="1118"/>
      <point x="690" y="897"/>
      <point x="623" y="641" type="curve"/>
      <point x="375" y="641" type="line"/>
      <point x="469" y="1098" type="line"/>
      <point x="291" y="1098" type="line"/>
      <point x="57" y="0" type="line"/>
      <point x="238" y="0" type="line"/>
      <point x="342" y="492" type="line"/>
      <point x="594" y="492" type="line"/>
      <point x="590" y="457"/>
      <point x="588" y="422"/>
      <point x="588" y="389" type="curve"/>
      <point x="588" y="111"/>
      <point x="752" y="-20"/>
    </contour>
  </outline>
</glyph>
<glyph name="uni046B" format="2">
  <advance width="1231"/>
  <unicode hex="046B"/>
  <anchor x="500" y="0" name="bottom"/>
  <anchor x="733" y="1098" name="top"/>
  <outline>
    <contour>
      <point x="-111" y="0" type="line"/>
      <point x="76" y="0" type="line"/>
      <point x="256" y="340" type="line" smooth="yes"/>
      <point x="326" y="475"/>
      <point x="385" y="524"/>
      <point x="516" y="524" type="curve"/>
      <point x="406" y="0" type="line"/>
      <point x="571" y="0" type="line"/>
      <point x="682" y="524" type="line"/>
      <point x="811" y="524"/>
      <point x="854" y="471"/>
      <point x="872" y="338" type="curve" smooth="yes"/>
      <point x="918" y="0" type="line"/>
      <point x="1092" y="0" type="line"/>
      <point x="1044" y="340" type="line" smooth="yes"/>
      <point x="1022" y="502"/>
      <point x="981" y="610"/>
      <point x="797" y="641" type="curve"/>
      <point x="1167" y="993" type="line"/>
      <point x="1190" y="1098" type="line"/>
      <point x="258" y="1098" type="line"/>
      <point x="238" y="993" type="line"/>
      <point x="459" y="641" type="line"/>
      <point x="240" y="618"/>
      <point x="162" y="508"/>
      <point x="84" y="362" type="curve" smooth="yes"/>
    </contour>
    <contour>
      <point x="621" y="647" type="line"/>
      <point x="436" y="944" type="line"/>
      <point x="920" y="944" type="line"/>
    </contour>
  </outline>
</glyph>
<glyph name="titlocomb-cy" format="2">
  <unicode hex="0483"/>
  <anchor x="-471" y="1098" name="_top"/>
  <anchor x="-420" y="1464" name="top"/>
  <outline>
    <contour>
      <point x="-721" y="1167" type="curve"/>
      <point x="-657" y="1167"/>
      <point x="-625" y="1204"/>
      <point x="-612" y="1262" type="curve"/>
      <point x="-180" y="1262" type="line"/>
      <point x="-84" y="1264"/>
      <point x="-41" y="1307"/>
      <point x="-41" y="1389" type="curve"/>
      <point x="-41" y="1436"/>
      <point x="-72" y="1464"/>
      <point x="-129" y="1464" type="curve"/>
      <point x="-193" y="1464"/>
      <point x="-225" y="1430"/>
      <point x="-236" y="1370" type="curve"/>
      <point x="-670" y="1370" type="line" smooth="yes"/>
      <point x="-764" y="1370"/>
      <point x="-807" y="1327"/>
      <point x="-807" y="1249" type="curve"/>
      <point x="-807" y="1206"/>
      <point x="-776" y="1167"/>
    </contour>
  </outline>
</glyph>
<glyph name="uni048D" format="2">
  <advance width="1071"/>
  <unicode hex="048D"/>
  <anchor x="420" y="0" name="bottom"/>
  <anchor x="752" y="1556" name="top"/>
  <outline>
    <contour>
      <point x="492" y="-20" type="curve"/>
      <point x="782" y="-20"/>
      <point x="942" y="141"/>
      <point x="942" y="354" type="curve"/>
      <point x="942" y="539"/>
      <point x="834" y="645"/>
      <point x="598" y="645" type="curve"/>
      <point x="518" y="645"/>
      <point x="424" y="633"/>
      <point x="356" y="621" type="curve"/>
      <point x="475" y="1176" type="line"/>
      <point x="741" y="1176" type="line"/>
      <point x="770" y="1313" type="line"/>
      <point x="504" y="1313" type="line"/>
      <point x="557" y="1556" type="line"/>
      <point x="377" y="1556" type="line"/>
      <point x="324" y="1313" type="line"/>
      <point x="174" y="1313" type="line"/>
      <point x="145" y="1176" type="line"/>
      <point x="295" y="1176" type="line"/>
      <point x="150" y="487" type="line" smooth="yes"/>
      <point x="135" y="428"/>
      <point x="125" y="354"/>
      <point x="125" y="297" type="curve"/>
      <point x="127" y="86"/>
      <point x="256" y="-20"/>
    </contour>
    <contour>
      <point x="508" y="127" type="curve"/>
      <point x="371" y="127"/>
      <point x="303" y="186"/>
      <point x="303" y="311" type="curve"/>
      <point x="303" y="350"/>
      <point x="309" y="397"/>
      <point x="326" y="477" type="curve"/>
      <point x="395" y="489"/>
      <point x="483" y="498"/>
      <point x="555" y="498" type="curve"/>
      <point x="696" y="498"/>
      <point x="766" y="451"/>
      <point x="766" y="340" type="curve"/>
      <point x="766" y="213"/>
      <point x="674" y="127"/>
    </contour>
  </outline>
</glyph>
<glyph name="uni048F" format="2">
  <advance width="1186"/>
  <unicode hex="048F"/>
  <anchor x="373" y="-492" name="bottom"/>
  <anchor x="711" y="1098" name="top"/>
  <outline>
    <contour>
      <point x="768" y="-197" type="line"/>
      <point x="889" y="-127" type="line"/>
      <point x="612" y="371" type="line"/>
      <point x="489" y="301" type="line"/>
    </contour>
    <component base="p"/>
  </outline>
</glyph>
<glyph name="uni0492" format="2">
  <advance width="971"/>
  <unicode hex="0492"/>
  <anchor x="369" y="0" name="bottom"/>
  <anchor x="680" y="1462" name="top"/>
  <outline>
    <contour>
      <point x="84" y="0" type="line"/>
      <point x="266" y="0" type="line"/>
      <point x="401" y="645" type="line"/>
      <point x="725" y="645" type="line"/>
      <point x="760" y="803" type="line"/>
      <point x="436" y="803" type="line"/>
      <point x="541" y="1298" type="line"/>
      <point x="1092" y="1298" type="line"/>
      <point x="1126" y="1462" type="line"/>
      <point x="393" y="1462" type="line"/>
      <point x="252" y="803" type="line"/>
      <point x="106" y="803" type="line"/>
      <point x="74" y="645" type="line"/>
      <point x="219" y="645" type="line"/>
    </contour>
  </outline>
</glyph>
<glyph name="uni0496" format="2">
  <advance width="1702"/>
  <unicode hex="0496"/>
  <anchor x="653" y="-385" name="bottom"/>
  <anchor x="1047" y="1462" name="top"/>
  <outline>
    <contour>
      <point x="1305" y="-385" type="line"/>
      <point x="1479" y="-385" type="line"/>
      <point x="1595" y="164" type="line"/>
      <point x="1409" y="164" type="line"/>
      <point x="1124" y="729" type="line"/>
      <point x="1790" y="1462" type="line"/>
      <point x="1573" y="1462" type="line"/>
      <point x="944" y="766" type="line"/>
      <point x="1092" y="1462" type="line"/>
      <point x="915" y="1462" type="line"/>
      <point x="768" y="766" type="line"/>
      <point x="416" y="1462" type="line"/>
      <point x="219" y="1462" type="line"/>
      <point x="575" y="770" type="line"/>
      <point x="-102" y="0" type="line"/>
      <point x="119" y="0" type="line"/>
      <point x="760" y="729" type="line"/>
      <point x="606" y="0" type="line"/>
      <point x="782" y="0" type="line"/>
      <point x="936" y="729" type="line"/>
      <point x="1290" y="0" type="line"/>
      <point x="1384" y="0" type="line"/>
    </contour>
  </outline>
</glyph>
<glyph name="uni04B9" format="2">
  <advance width="1145"/>
  <unicode hex="04B9"/>
  <anchor x="457" y="0" name="bottom"/>
  <anchor x="690" y="1098" name="top"/>
  <outline>
    <contour>
      <point x="668" y="0" type="line"/>
      <point x="852" y="0" type="line"/>
      <point x="1085" y="1098" type="line"/>
      <point x="905" y="1098" type="line"/>
      <point x="881" y="981" type="line" smooth="yes"/>
      <point x="821" y="715"/>
      <point x="715" y="586"/>
      <point x="598" y="543" type="curve"/>
      <point x="657" y="813" type="line"/>
      <point x="530" y="813" type="line"/>
      <point x="467" y="528" type="line"/>
      <point x="379" y="532"/>
      <point x="338" y="586"/>
      <point x="338" y="676" type="curve" smooth="yes"/>
      <point x="338" y="705"/>
      <point x="344" y="750"/>
      <point x="356" y="807" type="curve" smooth="yes"/>
      <point x="418" y="1098" type="line"/>
      <point x="236" y="1098" type="line"/>
      <point x="180" y="827" type="line" smooth="yes"/>
      <point x="166" y="766"/>
      <point x="156" y="713"/>
      <point x="156" y="657" type="curve" smooth="yes"/>
      <point x="156" y="473"/>
      <point x="262" y="379"/>
      <point x="434" y="379" type="curve"/>
      <point x="383" y="131" type="line"/>
      <point x="510" y="131" type="line"/>
      <point x="565" y="393" type="line"/>
      <point x="655" y="424"/>
      <point x="737" y="496"/>
      <point x="795" y="573" type="curve"/>
      <point x="803" y="573" type="line"/>
      <point x="780" y="500"/>
      <point x="754" y="414"/>
      <point x="733" y="309" type="curve" smooth="yes"/>
    </contour>
  </outline>
</glyph>
<glyph name="uni04BF" format="2">
  <advance width="1227"/>
  <unicode hex="04BF"/>
  <anchor x="416" y="-381" name="bottom"/>
  <anchor x="731" y="1098" name="top"/>
  <outline>
    <contour>
      <point x="500" y="-381" type="line"/>
      <point x="682" y="-381" type="line"/>
      <point x="754" y="-18" type="line"/>
      <point x="854" y="-12"/>
      <point x="940" y="14"/>
      <point x="1034" y="59" type="curve"/>
      <point x="1034" y="213" type="line"/>
      <point x="930" y="164"/>
      <point x="838" y="129"/>
      <point x="735" y="129" type="curve" smooth="yes"/>
      <point x="565" y="129"/>
      <point x="489" y="231"/>
      <point x="489" y="399" type="curve" smooth="yes"/>
      <point x="489" y="422"/>
      <point x="492" y="451"/>
      <point x="494" y="475" type="curve"/>
      <point x="528" y="475" type="line" smooth="yes"/>
      <point x="995" y="475"/>
      <point x="1169" y="662"/>
      <point x="1169" y="862" type="curve" smooth="yes"/>
      <point x="1169" y="1036"/>
      <point x="1049" y="1118"/>
      <point x="854" y="1118" type="curve" smooth="yes"/>
      <point x="590" y="1118"/>
      <point x="403" y="891"/>
      <point x="334" y="623" type="curve"/>
      <point x="272" y="623"/>
      <point x="238" y="637"/>
      <point x="238" y="698" type="curve" smooth="yes"/>
      <point x="238" y="743"/>
      <point x="258" y="793"/>
      <point x="281" y="825" type="curve"/>
      <point x="123" y="825" type="line"/>
      <point x="90" y="786"/>
      <point x="74" y="721"/>
      <point x="74" y="676" type="curve" smooth="yes"/>
      <point x="74" y="537"/>
      <point x="172" y="481"/>
      <point x="309" y="477" type="curve"/>
      <point x="305" y="449"/>
      <point x="305" y="420"/>
      <point x="305" y="393" type="curve" smooth="yes"/>
      <point x="305" y="184"/>
      <point x="401" y="41"/>
      <point x="575" y="-6" type="curve"/>
    </contour>
    <contour>
      <point x="516" y="621" type="line"/>
      <point x="580" y="842"/>
      <point x="713" y="969"/>
      <point x="844" y="969" type="curve" smooth="yes"/>
      <point x="930" y="969"/>
      <point x="991" y="924"/>
      <point x="991" y="848" type="curve" smooth="yes"/>
      <point x="991" y="674"/>
      <point x="764" y="621"/>
      <point x="532" y="621" type="curve" smooth="yes"/>
    </contour>
  </outline>
</glyph>
<glyph name="uni04F6" format="2">
  <advance width="981"/>
  <unicode hex="04F6"/>
  <anchor x="293" y="-385" name="bottom"/>
  <anchor x="686" y="1462" name="top"/>
  <outline>
    <contour>
      <point x="178" y="-385" type="line"/>
      <point x="354" y="-385" type="line"/>
      <point x="471" y="164" type="line"/>
      <point x="303" y="164" type="line"/>
      <point x="543" y="1300" type="line"/>
      <point x="1104" y="1300" type="line"/>
      <point x="1137" y="1462" type="line"/>
      <point x="395" y="1462" type="line"/>
      <point x="86" y="0" type="line"/>
      <point x="260" y="0" type="line"/>
    </contour>
  </outline>
</glyph>
<glyph name="uni04FB" format="2">
  <advance width="799"/>
  <unicode hex="04FB"/>
  <anchor x="197" y="-401" name="bottom"/>
  <anchor x="516" y="1098" name="top"/>
  <outline>
    <contour>
      <point x="109" y="-401" type="curve"/>
      <point x="244" y="-401"/>
      <point x="322" y="-332"/>
      <point x="360" y="-150" type="curve" smooth="yes"/>
      <point x="424" y="150" type="line"/>
      <point x="268" y="150" type="line"/>
      <point x="340" y="483" type="line"/>
      <point x="608" y="483" type="line"/>
      <point x="637" y="618" type="line"/>
      <point x="367" y="618" type="line"/>
      <point x="438" y="944" type="line"/>
      <point x="844" y="944" type="line"/>
      <point x="877" y="1098" type="line"/>
      <point x="291" y="1098" type="line"/>
      <point x="188" y="618" type="line"/>
      <point x="39" y="618" type="line"/>
      <point x="10" y="483" type="line"/>
      <point x="160" y="483" type="line"/>
      <point x="57" y="0" type="line"/>
      <point x="236" y="0" type="line"/>
      <point x="207" y="-131" type="line"/>
      <point x="193" y="-205"/>
      <point x="154" y="-248"/>
      <point x="98" y="-248" type="curve"/>
      <point x="59" y="-248"/>
      <point x="31" y="-242"/>
      <point x="-2" y="-229" type="curve"/>
      <point x="-2" y="-379" type="line"/>
      <point x="20" y="-391"/>
      <point x="63" y="-401"/>
    </contour>
  </outline>
</glyph>
<glyph name="uni0503" format="2">
  <advance width="1745"/>
  <unicode hex="0503"/>
  <anchor x="756" y="0" name="bottom"/>
  <anchor x="1087" y="1556" name="top"/>
  <outline>
    <contour>
      <point x="397" y="-20" type="curve" smooth="yes"/>
      <point x="575" y="-20"/>
      <point x="702" y="82"/>
      <point x="801" y="211" type="curve"/>
      <point x="811" y="211" type="line"/>
      <point x="842" y="70"/>
      <point x="950" y="-20"/>
      <point x="1126" y="-20" type="curve" smooth="yes"/>
      <point x="1368" y="-20"/>
      <point x="1491" y="100"/>
      <point x="1548" y="381" type="curve" smooth="yes"/>
      <point x="1614" y="700" type="line"/>
      <point x="1438" y="700" type="line"/>
      <point x="1372" y="389" type="line" smooth="yes"/>
      <point x="1335" y="215"/>
      <point x="1272" y="127"/>
      <point x="1130" y="127" type="curve" smooth="yes"/>
      <point x="1020" y="127"/>
      <point x="967" y="195"/>
      <point x="967" y="303" type="curve" smooth="yes"/>
      <point x="967" y="338"/>
      <point x="973" y="379"/>
      <point x="981" y="418" type="curve" smooth="yes"/>
      <point x="1223" y="1556" type="line"/>
      <point x="1044" y="1556" type="line"/>
      <point x="969" y="1202" type="line"/>
      <point x="948" y="1094"/>
      <point x="936" y="1016"/>
      <point x="924" y="928" type="curve"/>
      <point x="913" y="928" type="line"/>
      <point x="868" y="1028"/>
      <point x="780" y="1116"/>
      <point x="631" y="1116" type="curve" smooth="yes"/>
      <point x="299" y="1116"/>
      <point x="98" y="752"/>
      <point x="98" y="354" type="curve" smooth="yes"/>
      <point x="98" y="109"/>
      <point x="215" y="-20"/>
    </contour>
    <contour>
      <point x="457" y="129" type="curve" smooth="yes"/>
      <point x="342" y="129"/>
      <point x="283" y="203"/>
      <point x="283" y="350" type="curve" smooth="yes"/>
      <point x="283" y="657"/>
      <point x="428" y="967"/>
      <point x="647" y="967" type="curve" smooth="yes"/>
      <point x="791" y="967"/>
      <point x="854" y="877"/>
      <point x="854" y="745" type="curve" smooth="yes"/>
      <point x="854" y="414"/>
      <point x="637" y="129"/>
    </contour>
  </outline>
</glyph>
<glyph name="uni0505" format="2">
  <advance width="1536"/>
  <unicode hex="0505"/>
  <anchor x="651" y="0" name="bottom"/>
  <anchor x="885" y="1098" name="top"/>
  <outline>
    <contour>
      <point x="911" y="-20" type="curve" smooth="yes"/>
      <point x="1159" y="-20"/>
      <point x="1280" y="100"/>
      <point x="1337" y="381" type="curve" smooth="yes"/>
      <point x="1403" y="700" type="line"/>
      <point x="1225" y="700" type="line"/>
      <point x="1159" y="387" type="line" smooth="yes"/>
      <point x="1124" y="215"/>
      <point x="1059" y="127"/>
      <point x="920" y="127" type="curve" smooth="yes"/>
      <point x="809" y="127"/>
      <point x="758" y="182"/>
      <point x="758" y="274" type="curve" smooth="yes"/>
      <point x="758" y="305"/>
      <point x="760" y="336"/>
      <point x="760" y="358" type="curve" smooth="yes"/>
      <point x="760" y="475"/>
      <point x="696" y="549"/>
      <point x="578" y="567" type="curve"/>
      <point x="578" y="575" type="line"/>
      <point x="750" y="614"/>
      <point x="838" y="715"/>
      <point x="838" y="860" type="curve" smooth="yes"/>
      <point x="838" y="1030"/>
      <point x="705" y="1118"/>
      <point x="498" y="1118" type="curve" smooth="yes"/>
      <point x="381" y="1118"/>
      <point x="268" y="1090"/>
      <point x="150" y="1034" type="curve"/>
      <point x="205" y="897" type="line"/>
      <point x="303" y="938"/>
      <point x="389" y="967"/>
      <point x="483" y="967" type="curve" smooth="yes"/>
      <point x="606" y="967"/>
      <point x="655" y="909"/>
      <point x="655" y="829" type="curve" smooth="yes"/>
      <point x="655" y="686"/>
      <point x="522" y="645"/>
      <point x="377" y="645" type="curve" smooth="yes"/>
      <point x="266" y="645" type="line"/>
      <point x="236" y="494" type="line"/>
      <point x="395" y="494" type="line" smooth="yes"/>
      <point x="524" y="494"/>
      <point x="586" y="459"/>
      <point x="586" y="340" type="curve" smooth="yes"/>
      <point x="586" y="315"/>
      <point x="584" y="289"/>
      <point x="584" y="254" type="curve" smooth="yes"/>
      <point x="584" y="76"/>
      <point x="692" y="-20"/>
    </contour>
  </outline>
</glyph>
<glyph name="uni050A" format="2">
  <advance width="1960"/>
  <unicode hex="050A"/>
  <anchor x="864" y="0" name="bottom"/>
  <anchor x="1176" y="1462" name="top"/>
  <outline>
    <contour>
      <point x="1325" y="-20" type="curve" smooth="yes"/>
      <point x="1554" y="-20"/>
      <point x="1688" y="84"/>
      <point x="1747" y="365" type="curve" smooth="yes"/>
      <point x="1851" y="848" type="line"/>
      <point x="1669" y="848" type="line"/>
      <point x="1575" y="389" type="line" smooth="yes"/>
      <point x="1538" y="217"/>
      <point x="1475" y="141"/>
      <point x="1335" y="141" type="curve" smooth="yes"/>
      <point x="1223" y="141"/>
      <point x="1167" y="195"/>
      <point x="1167" y="297" type="curve" smooth="yes"/>
      <point x="1167" y="328"/>
      <point x="1174" y="371"/>
      <point x="1182" y="412" type="curve" smooth="yes"/>
      <point x="1405" y="1462" type="line"/>
      <point x="1221" y="1462" type="line"/>
      <point x="1090" y="844" type="line"/>
      <point x="446" y="844" type="line"/>
      <point x="578" y="1462" type="line"/>
      <point x="395" y="1462" type="line"/>
      <point x="86" y="0" type="line"/>
      <point x="268" y="0" type="line"/>
      <point x="412" y="682" type="line"/>
      <point x="1055" y="682" type="line"/>
      <point x="1004" y="438" type="line" smooth="yes"/>
      <point x="989" y="369"/>
      <point x="985" y="326"/>
      <point x="985" y="283" type="curve" smooth="yes"/>
      <point x="985" y="76"/>
      <point x="1133" y="-20"/>
    </contour>
  </outline>
</glyph>
<glyph name="uni050E" format="2">
  <advance width="1358"/>
  <unicode hex="050E"/>
  <anchor x="563" y="0" name="bottom"/>
  <anchor x="874" y="1462" name="top"/>
  <outline>
    <contour>
      <point x="723" y="-20" type="curve"/>
      <point x="950" y="-20"/>
      <point x="1085" y="84"/>
      <point x="1145" y="365" type="curve"/>
      <point x="1245" y="848" type="line"/>
      <point x="1067" y="848" type="line"/>
      <point x="973" y="389" type="line" smooth="yes"/>
      <point x="934" y="217"/>
      <point x="872" y="141"/>
      <point x="733" y="141" type="curve"/>
      <point x="618" y="141"/>
      <point x="565" y="195"/>
      <point x="565" y="297" type="curve"/>
      <point x="565" y="328"/>
      <point x="571" y="371"/>
      <point x="580" y="412" type="curve"/>
      <point x="770" y="1300" type="line"/>
      <point x="1174" y="1300" type="line"/>
      <point x="1208" y="1462" type="line"/>
      <point x="219" y="1462" type="line"/>
      <point x="184" y="1300" type="line"/>
      <point x="586" y="1300" type="line"/>
      <point x="401" y="434" type="line" smooth="yes"/>
      <point x="387" y="365"/>
      <point x="381" y="324"/>
      <point x="381" y="283" type="curve"/>
      <point x="381" y="76"/>
      <point x="530" y="-20"/>
    </contour>
  </outline>
</glyph>
<glyph name="uni0512" format="2">
  <advance width="1325"/>
  <unicode hex="0512"/>
  <anchor x="461" y="-401" name="bottom"/>
  <anchor x="858" y="1462" name="top"/>
  <outline>
    <contour>
      <point x="903" y="-401" type="curve"/>
      <point x="1036" y="-401"/>
      <point x="1114" y="-332"/>
      <point x="1153" y="-150" type="curve" smooth="yes"/>
      <point x="1219" y="162" type="line"/>
      <point x="1061" y="162" type="line"/>
      <point x="1339" y="1462" type="line"/>
      <point x="612" y="1462" type="line"/>
      <point x="524" y="1135"/>
      <point x="406" y="696"/>
      <point x="317" y="446" type="curve" smooth="yes"/>
      <point x="229" y="201"/>
      <point x="158" y="139"/>
      <point x="37" y="139" type="curve" smooth="yes"/>
      <point x="0" y="139"/>
      <point x="-39" y="150"/>
      <point x="-66" y="160" type="curve"/>
      <point x="-66" y="0" type="line"/>
      <point x="-39" y="-12"/>
      <point x="4" y="-23"/>
      <point x="61" y="-23" type="curve" smooth="yes"/>
      <point x="301" y="-23"/>
      <point x="395" y="135"/>
      <point x="487" y="395" type="curve" smooth="yes"/>
      <point x="569" y="631"/>
      <point x="676" y="1030"/>
      <point x="748" y="1298" type="curve"/>
      <point x="1122" y="1298" type="line"/>
      <point x="844" y="0" type="line"/>
      <point x="1026" y="0" type="line"/>
      <point x="1001" y="-131" type="line" smooth="yes"/>
      <point x="987" y="-205"/>
      <point x="946" y="-248"/>
      <point x="893" y="-248" type="curve"/>
      <point x="854" y="-248"/>
      <point x="823" y="-242"/>
      <point x="793" y="-229" type="curve"/>
      <point x="793" y="-379" type="line"/>
      <point x="813" y="-391"/>
      <point x="858" y="-401"/>
    </contour>
  </outline>
</glyph>
<glyph name="uni051F" format="2">
  <advance width="995"/>
  <unicode hex="051F"/>
  <anchor x="381" y="0" name="bottom"/>
  <anchor x="614" y="1098" name="top"/>
  <outline>
    <contour>
      <point x="57" y="0" type="line"/>
      <point x="238" y="0" type="line"/>
      <point x="352" y="547" type="line"/>
      <point x="700" y="0" type="line"/>
      <point x="915" y="0" type="line"/>
      <point x="549" y="555" type="line"/>
      <point x="723" y="729" type="line"/>
      <point x="838" y="582" type="line"/>
      <point x="936" y="662" type="line"/>
      <point x="811" y="817" type="line"/>
      <point x="1092" y="1098" type="line"/>
      <point x="866" y="1098" type="line"/>
      <point x="715" y="940" type="line"/>
      <point x="604" y="1081" type="line"/>
      <point x="506" y="1006" type="line"/>
      <point x="627" y="850" type="line"/>
      <point x="354" y="569" type="line"/>
      <point x="467" y="1098" type="line"/>
      <point x="289" y="1098" type="line"/>
    </contour>
  </outline>
</glyph>
<glyph name="uni0520" format="2">
  <advance width="2009"/>
  <unicode hex="0520"/>
  <anchor x="780" y="-512" name="bottom"/>
  <anchor x="1200" y="1462" name="top"/>
  <outline>
    <contour>
      <point x="1182" y="-512" type="curve" smooth="yes"/>
      <point x="1571" y="-512"/>
      <point x="1839" y="-211"/>
      <point x="1839" y="262" type="curve" smooth="yes"/>
      <point x="1839" y="573"/>
      <point x="1673" y="803"/>
      <point x="1333" y="803" type="curve" smooth="yes"/>
      <point x="1288" y="803"/>
      <point x="1241" y="799"/>
      <point x="1196" y="788" type="curve"/>
      <point x="1339" y="1462" type="line"/>
      <point x="612" y="1462" type="line"/>
      <point x="524" y="1135"/>
      <point x="406" y="696"/>
      <point x="317" y="446" type="curve" smooth="yes"/>
      <point x="229" y="201"/>
      <point x="158" y="139"/>
      <point x="37" y="139" type="curve" smooth="yes"/>
      <point x="0" y="139"/>
      <point x="-39" y="150"/>
      <point x="-66" y="160" type="curve"/>
      <point x="-66" y="0" type="line"/>
      <point x="-39" y="-12"/>
      <point x="4" y="-23"/>
      <point x="61" y="-23" type="curve" smooth="yes"/>
      <point x="301" y="-23"/>
      <point x="395" y="135"/>
      <point x="487" y="395" type="curve" smooth="yes"/>
      <point x="569" y="631"/>
      <point x="676" y="1030"/>
      <point x="748" y="1298" type="curve"/>
      <point x="1120" y="1298" type="line"/>
      <point x="844" y="0" type="line"/>
      <point x="1030" y="0" type="line"/>
      <point x="1163" y="639" type="line"/>
      <point x="1194" y="645"/>
      <point x="1243" y="647"/>
      <point x="1292" y="647" type="curve" smooth="yes"/>
      <point x="1528" y="647"/>
      <point x="1647" y="496"/>
      <point x="1647" y="262" type="curve" smooth="yes"/>
      <point x="1647" y="-53"/>
      <point x="1489" y="-352"/>
      <point x="1161" y="-352" type="curve" smooth="yes"/>
      <point x="1071" y="-352"/>
      <point x="993" y="-332"/>
      <point x="915" y="-299" type="curve"/>
      <point x="915" y="-465" type="line"/>
      <point x="987" y="-494"/>
      <point x="1071" y="-512"/>
    </contour>
  </outline>
</glyph>
<glyph name="uni0522" format="2">
  <advance width="2077"/>
  <unicode hex="0522"/>
  <anchor x="786" y="-512" name="bottom"/>
  <anchor x="1206" y="1462" name="top"/>
  <outline>
    <contour>
      <point x="1249" y="-512" type="curve" smooth="yes"/>
      <point x="1638" y="-512"/>
      <point x="1907" y="-211"/>
      <point x="1907" y="262" type="curve" smooth="yes"/>
      <point x="1907" y="573"/>
      <point x="1741" y="803"/>
      <point x="1401" y="803" type="curve" smooth="yes"/>
      <point x="1356" y="803"/>
      <point x="1307" y="799"/>
      <point x="1262" y="788" type="curve"/>
      <point x="1401" y="1462" type="line"/>
      <point x="1221" y="1462" type="line"/>
      <point x="1090" y="844" type="line"/>
      <point x="446" y="844" type="line"/>
      <point x="578" y="1462" type="line"/>
      <point x="395" y="1462" type="line"/>
      <point x="86" y="0" type="line"/>
      <point x="268" y="0" type="line"/>
      <point x="412" y="682" type="line"/>
      <point x="1055" y="682" type="line"/>
      <point x="911" y="0" type="line"/>
      <point x="1098" y="0" type="line"/>
      <point x="1231" y="639" type="line"/>
      <point x="1262" y="645"/>
      <point x="1311" y="647"/>
      <point x="1360" y="647" type="curve" smooth="yes"/>
      <point x="1595" y="647"/>
      <point x="1714" y="496"/>
      <point x="1714" y="262" type="curve" smooth="yes"/>
      <point x="1714" y="-53"/>
      <point x="1556" y="-352"/>
      <point x="1229" y="-352" type="curve" smooth="yes"/>
      <point x="1139" y="-352"/>
      <point x="1061" y="-332"/>
      <point x="983" y="-299" type="curve"/>
      <point x="983" y="-465" type="line"/>
      <point x="1055" y="-494"/>
      <point x="1139" y="-512"/>
    </contour>
  </outline>
</glyph>
<glyph name="uni0524" format="2">
  <advance width="1403"/>
  <unicode hex="0524"/>
  <anchor x="504" y="-383" name="bottom"/>
  <anchor x="897" y="1462" name="top"/>
  <outline>
    <contour>
      <point x="1006" y="-383" type="line"/>
      <point x="1180" y="-383" type="line"/>
      <point x="1298" y="164" type="line"/>
      <point x="1130" y="164" type="line"/>
      <point x="1405" y="1462" type="line"/>
      <point x="395" y="1462" type="line"/>
      <point x="86" y="0" type="line"/>
      <point x="268" y="0" type="line"/>
      <point x="543" y="1300" type="line"/>
      <point x="1186" y="1300" type="line"/>
      <point x="911" y="0" type="line"/>
      <point x="1087" y="0" type="line"/>
    </contour>
  </outline>
</glyph>
<glyph name="uni0526" format="2">
  <advance width="1341"/>
  <unicode hex="0526"/>
  <anchor x="473" y="-383" name="bottom"/>
  <anchor x="866" y="1462" name="top"/>
  <outline>
    <contour>
      <point x="944" y="-383" type="line"/>
      <point x="1118" y="-383" type="line"/>
      <point x="1237" y="164" type="line"/>
      <point x="1069" y="164" type="line"/>
      <point x="1153" y="559" type="line" smooth="yes"/>
      <point x="1163" y="600"/>
      <point x="1165" y="637"/>
      <point x="1165" y="670" type="curve" smooth="yes"/>
      <point x="1165" y="854"/>
      <point x="1053" y="954"/>
      <point x="834" y="954" type="curve" smooth="yes"/>
      <point x="682" y="954"/>
      <point x="549" y="903"/>
      <point x="451" y="864" type="curve"/>
      <point x="575" y="1462" type="line"/>
      <point x="391" y="1462" type="line"/>
      <point x="82" y="0" type="line"/>
      <point x="266" y="0" type="line"/>
      <point x="416" y="711" type="line"/>
      <point x="547" y="760"/>
      <point x="659" y="791"/>
      <point x="803" y="791" type="curve" smooth="yes"/>
      <point x="926" y="791"/>
      <point x="979" y="741"/>
      <point x="979" y="647" type="curve" smooth="yes"/>
      <point x="979" y="623"/>
      <point x="975" y="590"/>
      <point x="969" y="559" type="curve" smooth="yes"/>
      <point x="850" y="0" type="line"/>
      <point x="1026" y="0" type="line"/>
    </contour>
  </outline>
</glyph>
<glyph name="uni1ABB" format="2">
  <unicode hex="1ABB"/>
  <anchor x="115" y="1098" name="_top"/>
  <anchor x="201" y="1710" name="top"/>
  <outline>
    <contour>
      <point x="360" y="1251" type="curve"/>
      <point x="504" y="1251" type="line"/>
      <point x="600" y="1331"/>
      <point x="643" y="1430"/>
      <point x="643" y="1534" type="curve" smooth="yes"/>
      <point x="643" y="1595"/>
      <point x="623" y="1663"/>
      <point x="580" y="1710" type="curve"/>
      <point x="457" y="1710" type="line"/>
      <point x="494" y="1661"/>
      <point x="514" y="1593"/>
      <point x="514" y="1532" type="curve" smooth="yes"/>
      <point x="514" y="1427"/>
      <point x="457" y="1329"/>
    </contour>
    <contour>
      <point x="-186" y="1251" type="curve"/>
      <point x="-63" y="1251" type="line"/>
      <point x="-100" y="1300"/>
      <point x="-121" y="1368"/>
      <point x="-121" y="1430" type="curve" smooth="yes"/>
      <point x="-121" y="1532"/>
      <point x="-63" y="1630"/>
      <point x="33" y="1710" type="curve"/>
      <point x="-111" y="1710" type="line"/>
      <point x="-209" y="1630"/>
      <point x="-250" y="1530"/>
      <point x="-250" y="1427" type="curve" smooth="yes"/>
      <point x="-250" y="1364"/>
      <point x="-229" y="1298"/>
    </contour>
  </outline>
</glyph>
<glyph name="uni1C82" format="2">
  <advance width="1055"/>
  <unicode hex="1C82"/>
  <anchor x="412" y="0" name="bottom"/>
  <anchor x="645" y="1098" name="top"/>
  <outline>
    <contour>
      <point x="453" y="-20" type="curve" smooth="yes"/>
      <point x="807" y="-20"/>
      <point x="987" y="348"/>
      <point x="987" y="682" type="curve" smooth="yes"/>
      <point x="987" y="983"/>
      <point x="870" y="1147"/>
      <point x="612" y="1147" type="curve" smooth="yes"/>
      <point x="256" y="1147"/>
      <point x="72" y="772"/>
      <point x="72" y="426" type="curve" smooth="yes"/>
      <point x="72" y="166"/>
      <point x="180" y="-20"/>
    </contour>
    <contour>
      <point x="457" y="131" type="curve" smooth="yes"/>
      <point x="309" y="131"/>
      <point x="258" y="244"/>
      <point x="258" y="410" type="curve" smooth="yes"/>
      <point x="258" y="713"/>
      <point x="385" y="995"/>
      <point x="604" y="995" type="curve" smooth="yes"/>
      <point x="756" y="995"/>
      <point x="801" y="870"/>
      <point x="801" y="711" type="curve" smooth="yes"/>
      <point x="801" y="446"/>
      <point x="688" y="131"/>
    </contour>
  </outline>
</glyph>
<glyph name="uni1D03" format="2">
  <advance width="1085"/>
  <unicode hex="1D03"/>
  <anchor x="408" y="0" name="bottom"/>
  <anchor x="641" y="1098" name="top"/>
  <outline>
    <contour>
      <point x="25" y="502" type="line"/>
      <point x="1055" y="502" type="line"/>
      <point x="1083" y="643" type="line"/>
      <point x="53" y="643" type="line"/>
    </contour>
    <component base="uni0299"/>
  </outline>
</glyph>
<glyph name="uni1D05" format="2">
  <advance width="1159"/>
  <unicode hex="1D05"/>
  <anchor x="463" y="0" name="bottom"/>
  <anchor x="696" y="1098" name="top"/>
  <outline>
    <contour>
      <point x="59" y="0" type="line"/>
      <point x="369" y="0" type="line" smooth="yes"/>
      <point x="799" y="0"/>
      <point x="1063" y="242"/>
      <point x="1063" y="659" type="curve" smooth="yes"/>
      <point x="1063" y="932"/>
      <point x="887" y="1098"/>
      <point x="608" y="1098" type="curve" smooth="yes"/>
      <point x="291" y="1098" type="line"/>
    </contour>
    <contour>
      <point x="274" y="145" type="line"/>
      <point x="444" y="952" type="line"/>
      <point x="561" y="952" type="line" smooth="yes"/>
      <point x="752" y="952"/>
      <point x="872" y="852"/>
      <point x="872" y="653" type="curve" smooth="yes"/>
      <point x="872" y="352"/>
      <point x="696" y="145"/>
      <point x="383" y="145" type="curve" smooth="yes"/>
    </contour>
  </outline>
</glyph>
<glyph name="uni1D0B" format="2">
  <advance width="967"/>
  <unicode hex="1D0B"/>
  <anchor x="367" y="0" name="bottom"/>
  <anchor x="600" y="1098" name="top"/>
  <outline>
    <contour>
      <point x="57" y="0" type="line"/>
      <point x="238" y="0" type="line"/>
      <point x="328" y="426" type="line"/>
      <point x="422" y="483" type="line"/>
      <point x="655" y="0" type="line"/>
      <point x="862" y="0" type="line"/>
      <point x="561" y="594" type="line"/>
      <point x="1077" y="1098" type="line"/>
      <point x="860" y="1098" type="line"/>
      <point x="489" y="733" type="line" smooth="yes"/>
      <point x="449" y="694"/>
      <point x="399" y="645"/>
      <point x="365" y="604" type="curve"/>
      <point x="469" y="1098" type="line"/>
      <point x="289" y="1098" type="line"/>
    </contour>
  </outline>
</glyph>
<glyph name="uni1D0C" format="2">
  <advance width="842"/>
  <unicode hex="1D0C"/>
  <anchor x="305" y="0" name="bottom"/>
  <anchor x="539" y="1098" name="top"/>
  <outline>
    <contour>
      <point x="59" y="0" type="line"/>
      <point x="680" y="0" type="line"/>
      <point x="711" y="150" type="line"/>
      <point x="270" y="150" type="line"/>
      <point x="336" y="457" type="line"/>
      <point x="610" y="608" type="line"/>
      <point x="551" y="725" type="line"/>
      <point x="371" y="625" type="line"/>
      <point x="471" y="1098" type="line"/>
      <point x="291" y="1098" type="line"/>
      <point x="168" y="512" type="line"/>
      <point x="16" y="426" type="line"/>
      <point x="74" y="313" type="line"/>
      <point x="133" y="346" type="line"/>
    </contour>
  </outline>
</glyph>
<glyph name="uni1D0D" format="2">
  <advance width="1413"/>
  <unicode hex="1D0D"/>
  <anchor x="590" y="0" name="bottom"/>
  <anchor x="823" y="1098" name="top"/>
  <outline>
    <contour>
      <point x="57" y="0" type="line"/>
      <point x="233" y="0" type="line"/>
      <point x="371" y="662" type="line" smooth="yes"/>
      <point x="377" y="692"/>
      <point x="385" y="733"/>
      <point x="391" y="766" type="curve"/>
      <point x="399" y="766" type="line"/>
      <point x="510" y="0" type="line"/>
      <point x="662" y="0" type="line"/>
      <point x="1094" y="760" type="line"/>
      <point x="1102" y="760" type="line"/>
      <point x="1094" y="727"/>
      <point x="1087" y="702"/>
      <point x="1081" y="672" type="curve" smooth="yes"/>
      <point x="936" y="0" type="line"/>
      <point x="1120" y="0" type="line"/>
      <point x="1352" y="1098" type="line"/>
      <point x="1110" y="1098" type="line"/>
      <point x="643" y="283" type="line"/>
      <point x="637" y="283" type="line"/>
      <point x="524" y="1098" type="line"/>
      <point x="289" y="1098" type="line"/>
    </contour>
  </outline>
</glyph>
<glyph name="uni1D16" format="2">
  <advance width="1153"/>
  <unicode hex="1D16"/>
  <anchor x="582" y="547" name="bottom"/>
  <anchor x="694" y="1098" name="top"/>
  <outline>
    <contour>
      <point x="109" y="551" type="curve"/>
      <point x="293" y="551" type="line"/>
      <point x="332" y="784"/>
      <point x="461" y="963"/>
      <point x="649" y="963" type="curve" smooth="yes"/>
      <point x="813" y="963"/>
      <point x="872" y="829"/>
      <point x="872" y="709" type="curve" smooth="yes"/>
      <point x="872" y="651"/>
      <point x="868" y="602"/>
      <point x="860" y="551" type="curve"/>
      <point x="1047" y="551" type="line"/>
      <point x="1053" y="596"/>
      <point x="1057" y="643"/>
      <point x="1057" y="688" type="curve" smooth="yes"/>
      <point x="1057" y="950"/>
      <point x="903" y="1112"/>
      <point x="647" y="1112" type="curve" smooth="yes"/>
      <point x="336" y="1112"/>
      <point x="154" y="840"/>
    </contour>
  </outline>
</glyph>
<glyph name="uni1D1C" format="2">
  <advance width="1184"/>
  <unicode hex="1D1C"/>
  <anchor x="475" y="0" name="bottom"/>
  <anchor x="709" y="1098" name="top"/>
  <outline>
    <contour>
      <point x="502" y="-20" type="curve" smooth="yes"/>
      <point x="799" y="-20"/>
      <point x="936" y="143"/>
      <point x="985" y="381" type="curve" smooth="yes"/>
      <point x="1135" y="1098" type="line"/>
      <point x="954" y="1098" type="line"/>
      <point x="805" y="391" type="line" smooth="yes"/>
      <point x="772" y="236"/>
      <point x="686" y="125"/>
      <point x="516" y="125" type="curve" smooth="yes"/>
      <point x="385" y="125"/>
      <point x="301" y="195"/>
      <point x="301" y="313" type="curve" smooth="yes"/>
      <point x="301" y="336"/>
      <point x="303" y="362"/>
      <point x="311" y="399" type="curve" smooth="yes"/>
      <point x="461" y="1098" type="line"/>
      <point x="279" y="1098" type="line"/>
      <point x="135" y="424" type="line" smooth="yes"/>
      <point x="123" y="365"/>
      <point x="119" y="328"/>
      <point x="119" y="295" type="curve" smooth="yes"/>
      <point x="119" y="104"/>
      <point x="260" y="-20"/>
    </contour>
  </outline>
</glyph>
<glyph name="uni1D22" format="2">
  <advance width="899"/>
  <unicode hex="1D22"/>
  <anchor x="334" y="0" name="bottom"/>
  <anchor x="567" y="1098" name="top"/>
  <outline>
    <contour>
      <point x="-41" y="0" type="line"/>
      <point x="713" y="0" type="line"/>
      <point x="743" y="150" type="line"/>
      <point x="225" y="150" type="line"/>
      <point x="907" y="975" type="line"/>
      <point x="932" y="1098" type="line"/>
      <point x="207" y="1098" type="line"/>
      <point x="176" y="948" type="line"/>
      <point x="662" y="948" type="line"/>
      <point x="-16" y="121" type="line"/>
    </contour>
  </outline>
</glyph>
<glyph name="uni1D25" format="2">
  <advance width="952"/>
  <unicode hex="1D25"/>
  <anchor x="360" y="0" name="bottom"/>
  <anchor x="594" y="1098" name="top"/>
  <outline>
    <contour>
      <point x="39" y="-20" type="curve" smooth="yes"/>
      <point x="150" y="-20"/>
      <point x="240" y="23"/>
      <point x="412" y="205" type="curve"/>
      <point x="510" y="16"/>
      <point x="590" y="-20"/>
      <point x="694" y="-20" type="curve" smooth="yes"/>
      <point x="741" y="-20"/>
      <point x="799" y="-10"/>
      <point x="834" y="8" type="curve"/>
      <point x="834" y="154" type="line"/>
      <point x="795" y="141"/>
      <point x="754" y="129"/>
      <point x="713" y="129" type="curve" smooth="yes"/>
      <point x="664" y="129"/>
      <point x="606" y="176"/>
      <point x="541" y="313" type="curve"/>
      <point x="705" y="459"/>
      <point x="868" y="616"/>
      <point x="868" y="811" type="curve" smooth="yes"/>
      <point x="868" y="977"/>
      <point x="758" y="1114"/>
      <point x="575" y="1114" type="curve" smooth="yes"/>
      <point x="348" y="1114"/>
      <point x="176" y="961"/>
      <point x="176" y="719" type="curve" smooth="yes"/>
      <point x="176" y="590"/>
      <point x="229" y="449"/>
      <point x="309" y="326" type="curve"/>
      <point x="193" y="203"/>
      <point x="102" y="129"/>
      <point x="37" y="129" type="curve" smooth="yes"/>
      <point x="0" y="129"/>
      <point x="-29" y="139"/>
      <point x="-61" y="154" type="curve"/>
      <point x="-92" y="8" type="line"/>
      <point x="-63" y="-10"/>
      <point x="-8" y="-20"/>
    </contour>
  </outline>
</glyph>
<glyph name="uni1D27" format="2">
  <advance width="938"/>
  <unicode hex="1D27"/>
  <outline>
    <contour>
      <point x="-113" y="0" type="line"/>
      <point x="84" y="0" type="line"/>
      <point x="446" y="657" type="line" smooth="yes"/>
      <point x="485" y="727"/>
      <point x="516" y="793"/>
      <point x="541" y="856" type="curve"/>
      <point x="541" y="797"/>
      <point x="547" y="709"/>
      <point x="553" y="649" type="curve" smooth="yes"/>
      <point x="633" y="0" type="line"/>
      <point x="815" y="0" type="line"/>
      <point x="670" y="1098" type="line"/>
      <point x="500" y="1098" type="line"/>
    </contour>
  </outline>
</glyph>
<glyph name="uni1D28" format="2">
  <advance width="1186"/>
  <unicode hex="1D28"/>
  <outline>
    <contour>
      <point x="59" y="0" type="line"/>
      <point x="244" y="0" type="line"/>
      <point x="444" y="950" type="line"/>
      <point x="913" y="950" type="line"/>
      <point x="713" y="0" type="line"/>
      <point x="895" y="0" type="line"/>
      <point x="1126" y="1098" type="line"/>
      <point x="291" y="1098" type="line"/>
    </contour>
  </outline>
</glyph>
<glyph name="uni1D2B" format="2">
  <advance width="1145"/>
  <unicode hex="1D2B"/>
  <outline>
    <contour>
      <point x="29" y="-16" type="curve" smooth="yes"/>
      <point x="195" y="-16"/>
      <point x="274" y="68"/>
      <point x="365" y="289" type="curve" smooth="yes"/>
      <point x="418" y="420"/>
      <point x="508" y="725"/>
      <point x="571" y="950" type="curve"/>
      <point x="870" y="950" type="line"/>
      <point x="670" y="0" type="line"/>
      <point x="854" y="0" type="line"/>
      <point x="1083" y="1098" type="line"/>
      <point x="440" y="1098" type="line"/>
      <point x="352" y="793"/>
      <point x="274" y="535"/>
      <point x="201" y="350" type="curve" smooth="yes"/>
      <point x="131" y="178"/>
      <point x="78" y="125"/>
      <point x="12" y="125" type="curve" smooth="yes"/>
      <point x="-18" y="125"/>
      <point x="-49" y="133"/>
      <point x="-82" y="147" type="curve"/>
      <point x="-82" y="6" type="line"/>
      <point x="-47" y="-8"/>
      <point x="-6" y="-16"/>
    </contour>
  </outline>
</glyph>
<glyph name="uni1D71" format="2">
  <advance width="1186"/>
  <unicode hex="1D71"/>
  <outline>
    <contour>
      <point x="-45" y="-492" type="line"/>
      <point x="133" y="-492" type="line"/>
      <point x="164" y="-340" type="line"/>
      <point x="180" y="-346"/>
      <point x="203" y="-350"/>
      <point x="221" y="-350" type="curve" smooth="yes"/>
      <point x="338" y="-350"/>
      <point x="416" y="-258"/>
      <point x="461" y="-88" type="curve"/>
      <point x="352" y="-88" type="line"/>
      <point x="319" y="-170"/>
      <point x="293" y="-207"/>
      <point x="233" y="-207" type="curve" smooth="yes"/>
      <point x="221" y="-207"/>
      <point x="205" y="-205"/>
      <point x="195" y="-201" type="curve"/>
      <point x="233" y="-18" type="line" smooth="yes"/>
      <point x="244" y="31"/>
      <point x="256" y="123"/>
      <point x="260" y="168" type="curve"/>
      <point x="270" y="168" type="line"/>
      <point x="317" y="68"/>
      <point x="403" y="-20"/>
      <point x="551" y="-20" type="curve" smooth="yes"/>
      <point x="881" y="-20"/>
      <point x="1085" y="340"/>
      <point x="1085" y="741" type="curve" smooth="yes"/>
      <point x="1085" y="989"/>
      <point x="965" y="1116"/>
      <point x="788" y="1116" type="curve" smooth="yes"/>
      <point x="635" y="1116"/>
      <point x="518" y="1014"/>
      <point x="422" y="893" type="curve"/>
      <point x="414" y="893" type="line"/>
      <point x="438" y="1098" type="line"/>
      <point x="291" y="1098" type="line"/>
      <point x="39" y="-98" type="line"/>
      <point x="25" y="-92"/>
      <point x="6" y="-90"/>
      <point x="-8" y="-90" type="curve" smooth="yes"/>
      <point x="-127" y="-90"/>
      <point x="-207" y="-182"/>
      <point x="-244" y="-352" type="curve"/>
      <point x="-137" y="-352" type="line"/>
      <point x="-111" y="-283"/>
      <point x="-80" y="-233"/>
      <point x="-23" y="-233" type="curve" smooth="yes"/>
      <point x="-12" y="-233"/>
      <point x="0" y="-236"/>
      <point x="8" y="-238" type="curve"/>
    </contour>
    <contour>
      <point x="537" y="129" type="curve" smooth="yes"/>
      <point x="393" y="129"/>
      <point x="328" y="219"/>
      <point x="328" y="350" type="curve" smooth="yes"/>
      <point x="328" y="676"/>
      <point x="545" y="967"/>
      <point x="727" y="967" type="curve" smooth="yes"/>
      <point x="842" y="967"/>
      <point x="901" y="893"/>
      <point x="901" y="745" type="curve" smooth="yes"/>
      <point x="901" y="438"/>
      <point x="756" y="129"/>
    </contour>
  </outline>
</glyph>
<glyph name="uni1D72" format="2">
  <advance width="815"/>
  <unicode hex="1D72"/>
  <outline>
    <contour>
      <point x="57" y="0" type="line"/>
      <point x="238" y="0" type="line"/>
      <point x="317" y="373" type="line"/>
      <point x="336" y="367"/>
      <point x="356" y="362"/>
      <point x="375" y="362" type="curve" smooth="yes"/>
      <point x="492" y="362"/>
      <point x="569" y="455"/>
      <point x="614" y="625" type="curve"/>
      <point x="506" y="625" type="line"/>
      <point x="473" y="543"/>
      <point x="446" y="506"/>
      <point x="387" y="506" type="curve" smooth="yes"/>
      <point x="375" y="506"/>
      <point x="358" y="508"/>
      <point x="346" y="514" type="curve"/>
      <point x="393" y="727"/>
      <point x="535" y="954"/>
      <point x="735" y="954" type="curve" smooth="yes"/>
      <point x="770" y="954"/>
      <point x="803" y="950"/>
      <point x="840" y="942" type="curve"/>
      <point x="879" y="1104" type="line"/>
      <point x="842" y="1114"/>
      <point x="799" y="1118"/>
      <point x="760" y="1118" type="curve" smooth="yes"/>
      <point x="604" y="1118"/>
      <point x="512" y="1008"/>
      <point x="426" y="895" type="curve"/>
      <point x="416" y="895" type="line"/>
      <point x="438" y="1098" type="line"/>
      <point x="291" y="1098" type="line"/>
      <point x="188" y="614" type="line"/>
      <point x="174" y="621"/>
      <point x="158" y="623"/>
      <point x="145" y="623" type="curve" smooth="yes"/>
      <point x="27" y="623"/>
      <point x="-53" y="530"/>
      <point x="-90" y="360" type="curve"/>
      <point x="16" y="360" type="line"/>
      <point x="43" y="430"/>
      <point x="74" y="479"/>
      <point x="131" y="479" type="curve" smooth="yes"/>
      <point x="141" y="479"/>
      <point x="152" y="477"/>
      <point x="160" y="475" type="curve"/>
    </contour>
  </outline>
</glyph>
<glyph name="uni1D84" format="2">
  <advance width="1014"/>
  <unicode hex="1D84"/>
  <outline>
    <contour>
      <point x="616" y="-406" type="curve" smooth="yes"/>
      <point x="760" y="-406"/>
      <point x="840" y="-328"/>
      <point x="874" y="-156" type="curve" smooth="yes"/>
      <point x="938" y="147" type="line"/>
      <point x="827" y="147" type="line"/>
      <point x="604" y="627" type="line"/>
      <point x="1075" y="1098" type="line"/>
      <point x="862" y="1098" type="line"/>
      <point x="342" y="567" type="line"/>
      <point x="338" y="567" type="line"/>
      <point x="350" y="606"/>
      <point x="387" y="719"/>
      <point x="434" y="938" type="curve" smooth="yes"/>
      <point x="567" y="1556" type="line"/>
      <point x="385" y="1556" type="line"/>
      <point x="55" y="0" type="line"/>
      <point x="238" y="0" type="line"/>
      <point x="319" y="397" type="line"/>
      <point x="467" y="514" type="line"/>
      <point x="698" y="0" type="line"/>
      <point x="737" y="0" type="line"/>
      <point x="707" y="-139" type="line" smooth="yes"/>
      <point x="690" y="-215"/>
      <point x="653" y="-250"/>
      <point x="584" y="-250" type="curve" smooth="yes"/>
      <point x="545" y="-250"/>
      <point x="512" y="-240"/>
      <point x="494" y="-231" type="curve"/>
      <point x="494" y="-381" type="line"/>
      <point x="518" y="-393"/>
      <point x="569" y="-406"/>
    </contour>
  </outline>
</glyph>
<glyph name="uni1D85" format="2">
  <advance width="528"/>
  <unicode hex="1D85"/>
  <anchor x="35" y="-406" name="bottom"/>
  <anchor x="485" y="1552" name="top"/>
  <outline>
    <contour>
      <point x="35" y="-406" type="curve" smooth="yes"/>
      <point x="178" y="-406"/>
      <point x="258" y="-328"/>
      <point x="293" y="-156" type="curve" smooth="yes"/>
      <point x="356" y="147" type="line"/>
      <point x="266" y="147" type="line"/>
      <point x="567" y="1556" type="line"/>
      <point x="387" y="1556" type="line"/>
      <point x="55" y="0" type="line"/>
      <point x="156" y="0" type="line"/>
      <point x="125" y="-139" type="line" smooth="yes"/>
      <point x="109" y="-215"/>
      <point x="72" y="-250"/>
      <point x="2" y="-250" type="curve" smooth="yes"/>
      <point x="-37" y="-250"/>
      <point x="-70" y="-240"/>
      <point x="-88" y="-231" type="curve"/>
      <point x="-88" y="-381" type="line"/>
      <point x="-63" y="-393"/>
      <point x="-12" y="-406"/>
    </contour>
  </outline>
</glyph>
<glyph name="uni1D88" format="2">
  <advance width="1186"/>
  <unicode hex="1D88"/>
  <outline>
    <contour>
      <point x="-45" y="-492" type="line"/>
      <point x="133" y="-492" type="line"/>
      <point x="233" y="-18" type="line" smooth="yes"/>
      <point x="244" y="31"/>
      <point x="256" y="123"/>
      <point x="260" y="168" type="curve"/>
      <point x="270" y="168" type="line"/>
      <point x="317" y="68"/>
      <point x="403" y="-20"/>
      <point x="551" y="-20" type="curve" smooth="yes"/>
      <point x="592" y="-20"/>
      <point x="635" y="-14"/>
      <point x="672" y="-2" type="curve"/>
      <point x="641" y="-139" type="line" smooth="yes"/>
      <point x="625" y="-215"/>
      <point x="588" y="-250"/>
      <point x="518" y="-250" type="curve" smooth="yes"/>
      <point x="479" y="-250"/>
      <point x="446" y="-240"/>
      <point x="428" y="-231" type="curve"/>
      <point x="428" y="-381" type="line"/>
      <point x="453" y="-393"/>
      <point x="504" y="-406"/>
      <point x="551" y="-406" type="curve" smooth="yes"/>
      <point x="694" y="-406"/>
      <point x="774" y="-328"/>
      <point x="809" y="-156" type="curve" smooth="yes"/>
      <point x="864" y="117" type="line"/>
      <point x="1004" y="258"/>
      <point x="1085" y="492"/>
      <point x="1085" y="741" type="curve" smooth="yes"/>
      <point x="1085" y="989"/>
      <point x="965" y="1116"/>
      <point x="788" y="1116" type="curve" smooth="yes"/>
      <point x="635" y="1116"/>
      <point x="518" y="1014"/>
      <point x="422" y="893" type="curve"/>
      <point x="414" y="893" type="line"/>
      <point x="438" y="1098" type="line"/>
      <point x="291" y="1098" type="line"/>
    </contour>
    <contour>
      <point x="537" y="129" type="curve" smooth="yes"/>
      <point x="393" y="129"/>
      <point x="328" y="219"/>
      <point x="328" y="350" type="curve" smooth="yes"/>
      <point x="328" y="676"/>
      <point x="545" y="967"/>
      <point x="727" y="967" type="curve" smooth="yes"/>
      <point x="842" y="967"/>
      <point x="901" y="893"/>
      <point x="901" y="745" type="curve" smooth="yes"/>
      <point x="901" y="438"/>
      <point x="756" y="129"/>
    </contour>
  </outline>
</glyph>
<glyph name="uni1D8C" format="2">
  <advance width="956"/>
  <unicode hex="1D8C"/>
  <outline>
    <contour>
      <point x="461" y="-406" type="curve" smooth="yes"/>
      <point x="604" y="-406"/>
      <point x="684" y="-328"/>
      <point x="719" y="-156" type="curve" smooth="yes"/>
      <point x="780" y="143" type="line"/>
      <point x="539" y="143" type="line"/>
      <point x="1055" y="1098" type="line"/>
      <point x="862" y="1098" type="line"/>
      <point x="539" y="494" type="line" smooth="yes"/>
      <point x="492" y="406"/>
      <point x="414" y="238"/>
      <point x="369" y="137" type="curve"/>
      <point x="362" y="137" type="line"/>
      <point x="362" y="195"/>
      <point x="352" y="379"/>
      <point x="340" y="487" type="curve"/>
      <point x="279" y="1098" type="line"/>
      <point x="98" y="1098" type="line"/>
      <point x="225" y="0" type="line"/>
      <point x="582" y="0" type="line"/>
      <point x="551" y="-139" type="line" smooth="yes"/>
      <point x="535" y="-215"/>
      <point x="498" y="-250"/>
      <point x="428" y="-250" type="curve" smooth="yes"/>
      <point x="389" y="-250"/>
      <point x="356" y="-240"/>
      <point x="338" y="-231" type="curve"/>
      <point x="338" y="-381" type="line"/>
      <point x="362" y="-393"/>
      <point x="414" y="-406"/>
    </contour>
  </outline>
</glyph>
<glyph name="uni1D91" format="2">
  <advance width="1186"/>
  <unicode hex="1D91"/>
  <outline>
    <contour>
      <point x="895" y="-492" type="curve" smooth="yes"/>
      <point x="958" y="-492"/>
      <point x="1018" y="-477"/>
      <point x="1049" y="-459" type="curve"/>
      <point x="1049" y="-322" type="line"/>
      <point x="1026" y="-332"/>
      <point x="987" y="-344"/>
      <point x="936" y="-344" type="curve" smooth="yes"/>
      <point x="885" y="-344"/>
      <point x="846" y="-317"/>
      <point x="846" y="-246" type="curve" smooth="yes"/>
      <point x="846" y="-219"/>
      <point x="852" y="-184"/>
      <point x="860" y="-147" type="curve" smooth="yes"/>
      <point x="1167" y="1296" type="line" smooth="yes"/>
      <point x="1186" y="1380"/>
      <point x="1227" y="1411"/>
      <point x="1280" y="1411" type="curve" smooth="yes"/>
      <point x="1323" y="1411"/>
      <point x="1364" y="1401"/>
      <point x="1386" y="1391" type="curve"/>
      <point x="1386" y="1540" type="line"/>
      <point x="1364" y="1552"/>
      <point x="1315" y="1567"/>
      <point x="1268" y="1567" type="curve" smooth="yes"/>
      <point x="1096" y="1567"/>
      <point x="1026" y="1466"/>
      <point x="985" y="1278" type="curve" smooth="yes"/>
      <point x="967" y="1192" type="line" smooth="yes"/>
      <point x="946" y="1096"/>
      <point x="936" y="1018"/>
      <point x="924" y="928" type="curve"/>
      <point x="913" y="928" type="line"/>
      <point x="868" y="1028"/>
      <point x="784" y="1116"/>
      <point x="637" y="1116" type="curve" smooth="yes"/>
      <point x="305" y="1116"/>
      <point x="98" y="756"/>
      <point x="98" y="354" type="curve" smooth="yes"/>
      <point x="98" y="104"/>
      <point x="219" y="-20"/>
      <point x="395" y="-20" type="curve" smooth="yes"/>
      <point x="549" y="-20"/>
      <point x="662" y="80"/>
      <point x="760" y="203" type="curve"/>
      <point x="768" y="203" type="line"/>
      <point x="743" y="123"/>
      <point x="715" y="20"/>
      <point x="707" y="-20" type="curve" smooth="yes"/>
      <point x="680" y="-150" type="line" smooth="yes"/>
      <point x="672" y="-193"/>
      <point x="668" y="-231"/>
      <point x="668" y="-266" type="curve" smooth="yes"/>
      <point x="668" y="-432"/>
      <point x="764" y="-492"/>
    </contour>
    <contour>
      <point x="457" y="129" type="curve" smooth="yes"/>
      <point x="342" y="129"/>
      <point x="283" y="203"/>
      <point x="283" y="350" type="curve" smooth="yes"/>
      <point x="283" y="657"/>
      <point x="432" y="967"/>
      <point x="649" y="967" type="curve" smooth="yes"/>
      <point x="795" y="967"/>
      <point x="854" y="877"/>
      <point x="854" y="745" type="curve" smooth="yes"/>
      <point x="854" y="420"/>
      <point x="637" y="129"/>
    </contour>
  </outline>
</glyph>
<glyph name="suspensionmark" format="2">
  <unicode hex="1DC3"/>
  <anchor x="147" y="1098" name="_top"/>
  <anchor x="211" y="1493" name="top"/>
  <outline>
    <contour>
      <point x="37" y="1249" type="curve" smooth="yes"/>
      <point x="203" y="1249"/>
      <point x="334" y="1364"/>
      <point x="549" y="1364" type="curve" smooth="yes"/>
      <point x="559" y="1364" type="line"/>
      <point x="584" y="1493" type="line"/>
      <point x="569" y="1493" type="line" smooth="yes"/>
      <point x="350" y="1493"/>
      <point x="168" y="1376"/>
      <point x="53" y="1376" type="curve" smooth="yes"/>
      <point x="0" y="1376"/>
      <point x="-39" y="1399"/>
      <point x="-39" y="1446" type="curve" smooth="yes"/>
      <point x="-39" y="1460"/>
      <point x="-39" y="1475"/>
      <point x="-37" y="1491" type="curve"/>
      <point x="-166" y="1491" type="line"/>
      <point x="-170" y="1468"/>
      <point x="-172" y="1450"/>
      <point x="-172" y="1430" type="curve" smooth="yes"/>
      <point x="-172" y="1309"/>
      <point x="-84" y="1249"/>
    </contour>
  </outline>
</glyph>
<glyph name="usabove" format="2">
  <unicode hex="1DD2"/>
  <anchor x="74" y="819" name="_top"/>
  <anchor x="195" y="1688" name="top"/>
  <outline>
    <contour>
      <point x="106" y="1057" type="line"/>
      <point x="313" y="1098"/>
      <point x="401" y="1300"/>
      <point x="401" y="1473" type="curve" smooth="yes"/>
      <point x="401" y="1618"/>
      <point x="330" y="1688"/>
      <point x="207" y="1688" type="curve" smooth="yes"/>
      <point x="78" y="1688"/>
      <point x="-20" y="1579"/>
      <point x="-20" y="1434" type="curve" smooth="yes"/>
      <point x="-20" y="1311"/>
      <point x="47" y="1245"/>
      <point x="135" y="1245" type="curve" smooth="yes"/>
      <point x="164" y="1245"/>
      <point x="180" y="1251"/>
      <point x="190" y="1260" type="curve"/>
      <point x="213" y="1360" type="line"/>
      <point x="197" y="1350"/>
      <point x="174" y="1346"/>
      <point x="152" y="1346" type="curve" smooth="yes"/>
      <point x="113" y="1346"/>
      <point x="86" y="1378"/>
      <point x="86" y="1432" type="curve" smooth="yes"/>
      <point x="86" y="1513"/>
      <point x="137" y="1585"/>
      <point x="201" y="1585" type="curve" smooth="yes"/>
      <point x="262" y="1585"/>
      <point x="297" y="1552"/>
      <point x="297" y="1473" type="curve" smooth="yes"/>
      <point x="297" y="1343"/>
      <point x="231" y="1212"/>
      <point x="127" y="1163" type="curve"/>
    </contour>
  </outline>
</glyph>
<glyph name="yloop" format="2">
  <advance width="956"/>
  <unicode hex="1EFF"/>
  <anchor x="258" y="-492" name="bottom"/>
  <anchor x="596" y="1098" name="top"/>
  <outline>
    <contour>
      <point x="-12" y="-492" type="curve" smooth="yes"/>
      <point x="98" y="-492"/>
      <point x="209" y="-449"/>
      <point x="358" y="-184" type="curve" smooth="yes"/>
      <point x="1055" y="1098" type="line"/>
      <point x="862" y="1098" type="line"/>
      <point x="543" y="496" type="line"/>
      <point x="494" y="406"/>
      <point x="410" y="213"/>
      <point x="383" y="147" type="curve"/>
      <point x="377" y="147" type="line"/>
      <point x="377" y="233"/>
      <point x="369" y="422"/>
      <point x="350" y="555" type="curve" smooth="yes"/>
      <point x="279" y="1098" type="line"/>
      <point x="98" y="1098" type="line"/>
      <point x="264" y="-16" type="line"/>
      <point x="109" y="-317"/>
      <point x="41" y="-362"/>
      <point x="-8" y="-362" type="curve" smooth="yes"/>
      <point x="-45" y="-362"/>
      <point x="-66" y="-336"/>
      <point x="-66" y="-297" type="curve" smooth="yes"/>
      <point x="-66" y="-164"/>
      <point x="98" y="-45"/>
      <point x="319" y="-14" type="curve"/>
      <point x="338" y="102" type="line"/>
      <point x="4" y="63"/>
      <point x="-205" y="-96"/>
      <point x="-205" y="-301" type="curve" smooth="yes"/>
      <point x="-205" y="-420"/>
      <point x="-143" y="-492"/>
    </contour>
  </outline>
</glyph>
<glyph name="uni1FBD" format="2">
  <advance width="528"/>
  <unicode hex="1FBD"/>
  <anchor x="393" y="1098" name="_top"/>
  <outline>
    <contour>
      <point x="299" y="1221" type="line"/>
      <point x="444" y="1225"/>
      <point x="561" y="1315"/>
      <point x="561" y="1462" type="curve" smooth="yes"/>
      <point x="561" y="1536"/>
      <point x="518" y="1585"/>
      <point x="459" y="1585" type="curve" smooth="yes"/>
      <point x="395" y="1585"/>
      <point x="356" y="1544"/>
      <point x="356" y="1483" type="curve" smooth="yes"/>
      <point x="356" y="1427"/>
      <point x="397" y="1399"/>
      <point x="446" y="1391" type="curve"/>
      <point x="438" y="1350"/>
      <point x="399" y="1309"/>
      <point x="315" y="1296" type="curve"/>
    </contour>
  </outline>
</glyph>
<glyph name="uni1FFD" format="2">
  <advance width="1182"/>
  <unicode hex="1FFD"/>
  <anchor x="686" y="1098" name="_top"/>
  <anchor x="813" y="1565" name="top"/>
  <outline>
    <contour>
      <point x="655" y="1241" type="line"/>
      <point x="741" y="1241" type="line"/>
      <point x="817" y="1337"/>
      <point x="905" y="1452"/>
      <point x="961" y="1544" type="curve"/>
      <point x="961" y="1565" type="line"/>
      <point x="770" y="1565" type="line"/>
      <point x="735" y="1464"/>
      <point x="694" y="1350"/>
      <point x="655" y="1266" type="curve"/>
    </contour>
  </outline>
</glyph>
<glyph name="endash" format="2">
  <advance width="983"/>
  <unicode hex="2013"/>
  <outline>
    <contour>
      <point x="53" y="467" type="line"/>
      <point x="881" y="467" type="line"/>
      <point x="915" y="633" type="line"/>
      <point x="90" y="633" type="line"/>
    </contour>
  </outline>
</glyph>
<glyph name="swungdash" format="2">
  <advance width="2048"/>
  <unicode hex="2053"/>
  <outline>
    <contour>
      <point x="203" y="444" type="curve"/>
      <point x="309" y="444" type="line"/>
      <point x="340" y="545"/>
      <point x="426" y="627"/>
      <point x="575" y="627" type="curve" smooth="yes"/>
      <point x="856" y="627"/>
      <point x="1219" y="438"/>
      <point x="1532" y="438" type="curve" smooth="yes"/>
      <point x="1737" y="438"/>
      <point x="1905" y="545"/>
      <point x="1933" y="756" type="curve"/>
      <point x="1827" y="756" type="line"/>
      <point x="1794" y="653"/>
      <point x="1710" y="575"/>
      <point x="1559" y="575" type="curve" smooth="yes"/>
      <point x="1270" y="575"/>
      <point x="928" y="764"/>
      <point x="604" y="764" type="curve" smooth="yes"/>
      <point x="399" y="764"/>
      <point x="231" y="655"/>
    </contour>
  </outline>
</glyph>
<glyph name="flowerpunctuationmark" format="2">
  <advance width="1171"/>
  <unicode hex="2055"/>
  <outline>
    <contour>
      <point x="645" y="-8" type="line"/>
      <point x="645" y="358" type="line"/>
      <point x="903" y="100" type="line"/>
      <point x="995" y="190" type="line"/>
      <point x="737" y="449" type="line"/>
      <point x="1102" y="449" type="line"/>
      <point x="1102" y="578" type="line"/>
      <point x="737" y="578" type="line"/>
      <point x="995" y="838" type="line"/>
      <point x="905" y="928" type="line"/>
      <point x="645" y="668" type="line"/>
      <point x="645" y="1034" type="line"/>
      <point x="516" y="1034" type="line"/>
      <point x="516" y="668" type="line"/>
      <point x="258" y="928" type="line"/>
      <point x="168" y="838" type="line"/>
      <point x="426" y="578" type="line"/>
      <point x="59" y="578" type="line"/>
      <point x="59" y="449" type="line"/>
      <point x="426" y="449" type="line"/>
      <point x="168" y="190" type="line"/>
      <point x="258" y="98" type="line"/>
      <point x="516" y="358" type="line"/>
      <point x="516" y="-6" type="line"/>
    </contour>
  </outline>
</glyph>
<glyph name="fourdotpunctuation" format="2">
  <advance width="1683"/>
  <unicode hex="2058"/>
  <outline>
    <contour>
      <point x="829" y="-33" type="curve" smooth="yes"/>
      <point x="905" y="-33"/>
      <point x="948" y="8"/>
      <point x="948" y="90" type="curve" smooth="yes"/>
      <point x="948" y="174"/>
      <point x="905" y="213"/>
      <point x="829" y="213" type="curve" smooth="yes"/>
      <point x="756" y="213"/>
      <point x="713" y="174"/>
      <point x="713" y="90" type="curve" smooth="yes"/>
      <point x="713" y="8"/>
      <point x="756" y="-33"/>
    </contour>
    <contour>
      <point x="223" y="604" type="curve" smooth="yes"/>
      <point x="299" y="604"/>
      <point x="342" y="643"/>
      <point x="342" y="725" type="curve" smooth="yes"/>
      <point x="342" y="809"/>
      <point x="299" y="848"/>
      <point x="223" y="848" type="curve" smooth="yes"/>
      <point x="150" y="848"/>
      <point x="106" y="809"/>
      <point x="106" y="725" type="curve" smooth="yes"/>
      <point x="106" y="643"/>
      <point x="150" y="604"/>
    </contour>
    <contour>
      <point x="1456" y="604" type="curve" smooth="yes"/>
      <point x="1532" y="604"/>
      <point x="1575" y="643"/>
      <point x="1575" y="725" type="curve" smooth="yes"/>
      <point x="1575" y="809"/>
      <point x="1532" y="848"/>
      <point x="1456" y="848" type="curve" smooth="yes"/>
      <point x="1382" y="848"/>
      <point x="1339" y="809"/>
      <point x="1339" y="725" type="curve" smooth="yes"/>
      <point x="1339" y="643"/>
      <point x="1382" y="604"/>
    </contour>
    <contour>
      <point x="829" y="1247" type="curve" smooth="yes"/>
      <point x="905" y="1247"/>
      <point x="948" y="1288"/>
      <point x="948" y="1368" type="curve" smooth="yes"/>
      <point x="948" y="1452"/>
      <point x="905" y="1491"/>
      <point x="829" y="1491" type="curve" smooth="yes"/>
      <point x="756" y="1491"/>
      <point x="713" y="1452"/>
      <point x="713" y="1368" type="curve" smooth="yes"/>
      <point x="713" y="1288"/>
      <point x="756" y="1247"/>
    </contour>
  </outline>
</glyph>
<glyph name="dottedcross" format="2">
  <advance width="1630"/>
  <unicode hex="205C"/>
  <outline>
    <contour>
      <point x="737" y="-43" type="line"/>
      <point x="893" y="-43" type="line"/>
      <point x="893" y="653" type="line"/>
      <point x="1552" y="653" type="line"/>
      <point x="1552" y="809" type="line"/>
      <point x="893" y="809" type="line"/>
      <point x="893" y="1503" type="line"/>
      <point x="737" y="1503" type="line"/>
      <point x="737" y="809" type="line"/>
      <point x="80" y="809" type="line"/>
      <point x="80" y="653" type="line"/>
      <point x="737" y="653" type="line"/>
    </contour>
    <contour>
      <point x="356" y="133" type="curve" smooth="yes"/>
      <point x="426" y="133"/>
      <point x="473" y="174"/>
      <point x="473" y="260" type="curve" smooth="yes"/>
      <point x="473" y="350"/>
      <point x="426" y="387"/>
      <point x="356" y="387" type="curve" smooth="yes"/>
      <point x="285" y="387"/>
      <point x="238" y="350"/>
      <point x="238" y="260" type="curve" smooth="yes"/>
      <point x="238" y="174"/>
      <point x="285" y="133"/>
    </contour>
    <contour>
      <point x="1255" y="133" type="curve" smooth="yes"/>
      <point x="1325" y="133"/>
      <point x="1372" y="174"/>
      <point x="1372" y="260" type="curve" smooth="yes"/>
      <point x="1372" y="350"/>
      <point x="1325" y="387"/>
      <point x="1255" y="387" type="curve" smooth="yes"/>
      <point x="1184" y="387"/>
      <point x="1137" y="350"/>
      <point x="1137" y="260" type="curve" smooth="yes"/>
      <point x="1137" y="174"/>
      <point x="1184" y="133"/>
    </contour>
    <contour>
      <point x="356" y="1075" type="curve" smooth="yes"/>
      <point x="426" y="1075"/>
      <point x="473" y="1114"/>
      <point x="473" y="1202" type="curve" smooth="yes"/>
      <point x="473" y="1292"/>
      <point x="426" y="1329"/>
      <point x="356" y="1329" type="curve" smooth="yes"/>
      <point x="285" y="1329"/>
      <point x="238" y="1292"/>
      <point x="238" y="1202" type="curve" smooth="yes"/>
      <point x="238" y="1114"/>
      <point x="285" y="1075"/>
    </contour>
    <contour>
      <point x="1274" y="1075" type="curve" smooth="yes"/>
      <point x="1343" y="1075"/>
      <point x="1391" y="1114"/>
      <point x="1391" y="1202" type="curve" smooth="yes"/>
      <point x="1391" y="1292"/>
      <point x="1343" y="1329"/>
      <point x="1274" y="1329" type="curve" smooth="yes"/>
      <point x="1202" y="1329"/>
      <point x="1155" y="1292"/>
      <point x="1155" y="1202" type="curve" smooth="yes"/>
      <point x="1155" y="1114"/>
      <point x="1202" y="1075"/>
    </contour>
  </outline>
</glyph>
<glyph name="tricolon" format="2">
  <advance width="549"/>
  <unicode hex="205D"/>
  <outline>
    <contour>
      <point x="272" y="1153" type="curve" smooth="yes"/>
      <point x="342" y="1153"/>
      <point x="401" y="1194"/>
      <point x="401" y="1292" type="curve" smooth="yes"/>
      <point x="401" y="1393"/>
      <point x="342" y="1430"/>
      <point x="272" y="1430" type="curve" smooth="yes"/>
      <point x="203" y="1430"/>
      <point x="147" y="1393"/>
      <point x="147" y="1292" type="curve" smooth="yes"/>
      <point x="147" y="1194"/>
      <point x="203" y="1153"/>
    </contour>
    <contour>
      <point x="272" y="-29" type="curve" smooth="yes"/>
      <point x="342" y="-29"/>
      <point x="401" y="12"/>
      <point x="401" y="111" type="curve" smooth="yes"/>
      <point x="401" y="211"/>
      <point x="342" y="248"/>
      <point x="272" y="248" type="curve" smooth="yes"/>
      <point x="203" y="248"/>
      <point x="147" y="211"/>
      <point x="147" y="111" type="curve" smooth="yes"/>
      <point x="147" y="12"/>
      <point x="203" y="-29"/>
    </contour>
    <contour>
      <point x="272" y="559" type="curve" smooth="yes"/>
      <point x="342" y="559"/>
      <point x="401" y="600"/>
      <point x="401" y="698" type="curve" smooth="yes"/>
      <point x="401" y="799"/>
      <point x="342" y="836"/>
      <point x="272" y="836" type="curve" smooth="yes"/>
      <point x="203" y="836"/>
      <point x="147" y="799"/>
      <point x="147" y="698" type="curve" smooth="yes"/>
      <point x="147" y="600"/>
      <point x="203" y="559"/>
    </contour>
  </outline>
</glyph>
<glyph name="sevensuperior" format="2">
  <advance width="723"/>
  <unicode hex="2077"/>
  <outline>
    <contour>
      <point x="231" y="854" type="line"/>
      <point x="393" y="854" type="line"/>
      <point x="860" y="1632" type="line"/>
      <point x="881" y="1731" type="line"/>
      <point x="332" y="1731" type="line"/>
      <point x="305" y="1610" type="line"/>
      <point x="698" y="1610" type="line"/>
    </contour>
  </outline>
</glyph>
<glyph name="parenrightsuperior" format="2">
  <advance width="381"/>
  <unicode hex="207E"/>
  <outline>
    <contour>
      <point x="4" y="473" type="curve"/>
      <point x="143" y="473" type="line"/>
      <point x="356" y="688"/>
      <point x="453" y="915"/>
      <point x="453" y="1196" type="curve" smooth="yes"/>
      <point x="453" y="1331"/>
      <point x="422" y="1456"/>
      <point x="360" y="1567" type="curve"/>
      <point x="242" y="1567" type="line"/>
      <point x="291" y="1458"/>
      <point x="315" y="1337"/>
      <point x="315" y="1196" type="curve" smooth="yes"/>
      <point x="315" y="938"/>
      <point x="211" y="694"/>
    </contour>
  </outline>
</glyph>
<glyph name="franc" format="2">
  <advance width="1128"/>
  <unicode hex="20A3"/>
  <outline>
    <contour>
      <point x="158" y="0" type="line"/>
      <point x="332" y="0" type="line"/>
      <point x="389" y="262" type="line"/>
      <point x="670" y="262" type="line"/>
      <point x="696" y="397" type="line"/>
      <point x="416" y="397" type="line"/>
      <point x="465" y="618" type="line"/>
      <point x="979" y="618" type="line"/>
      <point x="1014" y="780" type="line"/>
      <point x="498" y="780" type="line"/>
      <point x="608" y="1300" type="line"/>
      <point x="1159" y="1300" type="line"/>
      <point x="1194" y="1462" type="line"/>
      <point x="467" y="1462" type="line"/>
      <point x="242" y="397" type="line"/>
      <point x="70" y="397" type="line"/>
      <point x="41" y="262" type="line"/>
      <point x="213" y="262" type="line"/>
    </contour>
  </outline>
</glyph>
<glyph name="uni20B0" format="2">
  <advance width="1128"/>
  <unicode hex="20B0"/>
  <outline>
    <contour>
      <point x="510" y="-492" type="curve" smooth="yes"/>
      <point x="752" y="-492"/>
      <point x="858" y="-324"/>
      <point x="858" y="-61" type="curve" smooth="yes"/>
      <point x="858" y="70"/>
      <point x="823" y="289"/>
      <point x="772" y="543" type="curve"/>
      <point x="926" y="735"/>
      <point x="1128" y="1004"/>
      <point x="1128" y="1241" type="curve" smooth="yes"/>
      <point x="1128" y="1386"/>
      <point x="1038" y="1485"/>
      <point x="893" y="1485" type="curve" smooth="yes"/>
      <point x="698" y="1485"/>
      <point x="559" y="1337"/>
      <point x="559" y="995" type="curve" smooth="yes"/>
      <point x="559" y="870"/>
      <point x="571" y="750"/>
      <point x="614" y="545" type="curve"/>
      <point x="389" y="244" type="line"/>
      <point x="291" y="530" type="line"/>
      <point x="-84" y="0" type="line"/>
      <point x="80" y="0" type="line"/>
      <point x="254" y="252" type="line"/>
      <point x="350" y="-25" type="line"/>
      <point x="647" y="377" type="line"/>
      <point x="680" y="199"/>
      <point x="694" y="76"/>
      <point x="694" y="-55" type="curve" smooth="yes"/>
      <point x="694" y="-209"/>
      <point x="647" y="-350"/>
      <point x="508" y="-350" type="curve" smooth="yes"/>
      <point x="465" y="-350"/>
      <point x="420" y="-340"/>
      <point x="375" y="-317" type="curve"/>
      <point x="375" y="-469" type="line"/>
      <point x="414" y="-481"/>
      <point x="461" y="-492"/>
    </contour>
    <contour>
      <point x="739" y="713" type="curve"/>
      <point x="725" y="788"/>
      <point x="713" y="877"/>
      <point x="713" y="973" type="curve" smooth="yes"/>
      <point x="713" y="1239"/>
      <point x="797" y="1343"/>
      <point x="881" y="1343" type="curve" smooth="yes"/>
      <point x="938" y="1343"/>
      <point x="971" y="1305"/>
      <point x="971" y="1227" type="curve" smooth="yes"/>
      <point x="971" y="1047"/>
      <point x="838" y="850"/>
    </contour>
  </outline>
</glyph>
<glyph name="uni20B1" format="2">
  <advance width="1128"/>
  <unicode hex="20B1"/>
  <outline>
    <contour>
      <point x="74" y="0" type="line"/>
      <point x="252" y="0" type="line"/>
      <point x="352" y="477" type="line"/>
      <point x="469" y="477" type="line" smooth="yes"/>
      <point x="733" y="477"/>
      <point x="907" y="561"/>
      <point x="1004" y="768" type="curve"/>
      <point x="1145" y="768" type="line"/>
      <point x="1169" y="879" type="line"/>
      <point x="1047" y="879" type="line"/>
      <point x="1065" y="926"/>
      <point x="1081" y="1004"/>
      <point x="1085" y="1061" type="curve"/>
      <point x="1208" y="1061" type="line"/>
      <point x="1231" y="1171" type="line"/>
      <point x="1081" y="1171" type="line"/>
      <point x="1061" y="1335"/>
      <point x="961" y="1462"/>
      <point x="711" y="1462" type="curve" smooth="yes"/>
      <point x="383" y="1462" type="line"/>
      <point x="322" y="1171" type="line"/>
      <point x="158" y="1171" type="line"/>
      <point x="135" y="1061" type="line"/>
      <point x="299" y="1061" type="line"/>
      <point x="260" y="879" type="line"/>
      <point x="96" y="879" type="line"/>
      <point x="72" y="768" type="line"/>
      <point x="236" y="768" type="line"/>
    </contour>
    <contour>
      <point x="385" y="629" type="line"/>
      <point x="414" y="768" type="line"/>
      <point x="813" y="768" type="line"/>
      <point x="762" y="668"/>
      <point x="627" y="629"/>
      <point x="481" y="629" type="curve" smooth="yes"/>
    </contour>
    <contour>
      <point x="438" y="879" type="line"/>
      <point x="477" y="1061" type="line"/>
      <point x="907" y="1061" type="line"/>
      <point x="901" y="995"/>
      <point x="885" y="932"/>
      <point x="864" y="879" type="curve"/>
    </contour>
    <contour>
      <point x="500" y="1171" type="line"/>
      <point x="530" y="1311" type="line"/>
      <point x="662" y="1311" type="line" smooth="yes"/>
      <point x="809" y="1311"/>
      <point x="887" y="1264"/>
      <point x="903" y="1171" type="curve"/>
    </contour>
  </outline>
</glyph>
<glyph name="uni20B5" format="2">
  <advance width="1202"/>
  <unicode hex="20B5"/>
  <outline>
    <contour>
      <point x="528" y="-164" type="line"/>
      <point x="662" y="-164" type="line"/>
      <point x="692" y="-18" type="line"/>
      <point x="829" y="-16"/>
      <point x="924" y="6"/>
      <point x="1024" y="43" type="curve"/>
      <point x="1024" y="201" type="line"/>
      <point x="928" y="168"/>
      <point x="831" y="145"/>
      <point x="727" y="141" type="curve"/>
      <point x="977" y="1319" type="line"/>
      <point x="1079" y="1313"/>
      <point x="1155" y="1284"/>
      <point x="1221" y="1249" type="curve"/>
      <point x="1294" y="1399" type="line"/>
      <point x="1210" y="1444"/>
      <point x="1122" y="1468"/>
      <point x="1012" y="1479" type="curve"/>
      <point x="1028" y="1554" type="line"/>
      <point x="895" y="1554" type="line"/>
      <point x="879" y="1479" type="line"/>
      <point x="385" y="1444"/>
      <point x="147" y="963"/>
      <point x="147" y="539" type="curve" smooth="yes"/>
      <point x="147" y="231"/>
      <point x="299" y="31"/>
      <point x="561" y="-10" type="curve"/>
    </contour>
    <contour>
      <point x="596" y="154" type="line"/>
      <point x="434" y="195"/>
      <point x="342" y="336"/>
      <point x="342" y="543" type="curve" smooth="yes"/>
      <point x="342" y="881"/>
      <point x="500" y="1255"/>
      <point x="844" y="1313" type="curve"/>
    </contour>
  </outline>
</glyph>
